{"glyphs":{"0":{"ha":629,"x_min":31,"x_max":599,"o":"m 314 -18 q 202 -15 249 -18 q 124 6 156 -11 q 74 56 92 22 q 46 151 56 90 q 33 303 36 211 q 31 526 31 394 q 33 749 31 657 q 46 901 36 840 q 74 995 56 961 q 124 1046 92 1029 q 202 1066 156 1063 q 314 1069 249 1069 q 426 1066 379 1069 q 505 1046 474 1063 q 555 995 536 1029 q 583 901 574 961 q 596 749 593 840 q 599 526 599 657 q 596 303 599 394 q 583 151 593 211 q 555 56 574 90 q 505 6 536 22 q 426 -15 474 -11 q 314 -18 379 -18 m 314 217 q 351 222 338 217 q 371 258 364 228 q 380 351 378 288 q 382 532 382 415 q 381 717 382 651 q 373 813 379 782 q 353 849 367 843 q 314 854 339 854 q 276 849 289 854 q 256 813 263 843 q 249 717 250 782 q 247 532 247 651 q 249 351 247 415 q 258 258 251 288 q 277 222 264 228 q 314 217 290 217 z "},"1":{"ha":629,"x_min":53,"x_max":576,"o":"m 56 0 l 56 233 l 208 233 l 208 692 l 53 692 l 53 885 l 147 885 q 194 888 175 885 q 224 900 213 890 q 240 928 235 910 q 247 978 246 947 l 251 1051 l 432 1051 l 432 233 l 576 233 l 576 0 l 56 0 z "},"2":{"ha":629,"x_min":33,"x_max":594,"o":"m 53 0 l 53 242 l 189 378 q 265 454 236 425 q 311 502 294 483 q 337 534 328 521 q 354 564 346 547 q 367 594 363 581 q 373 624 371 607 q 376 665 375 642 q 376 725 376 689 q 373 792 376 769 q 363 829 369 814 q 347 847 358 840 q 308 854 336 854 q 251 829 263 854 q 244 786 247 815 q 240 690 240 757 q 240 670 240 679 q 242 654 240 661 l 36 654 q 33 694 33 672 q 33 760 33 715 q 43 902 33 843 q 82 999 53 961 q 165 1053 111 1036 q 308 1069 219 1069 q 396 1065 358 1069 q 461 1051 433 1061 q 508 1026 489 1042 q 542 986 528 1010 q 563 944 553 967 q 579 891 572 921 q 590 822 586 861 q 594 728 594 782 q 590 618 594 665 q 571 529 586 571 q 524 446 556 488 q 439 353 493 404 l 318 238 l 322 225 l 585 225 l 585 0 l 53 0 z "},"3":{"ha":629,"x_min":31,"x_max":601,"o":"m 514 538 q 551 514 535 525 q 578 478 567 503 q 596 409 590 454 q 601 283 601 364 q 592 141 601 199 q 551 48 582 83 q 464 -3 521 13 q 311 -18 407 -18 q 164 1 219 -18 q 79 61 108 21 q 40 163 50 101 q 31 308 31 225 q 31 341 31 328 q 33 364 32 354 l 238 364 q 236 348 236 356 q 236 332 236 340 q 239 279 236 297 q 249 244 242 261 q 269 222 256 229 q 311 215 282 215 q 375 235 357 215 q 393 317 393 254 q 391 393 393 365 q 381 434 389 421 q 356 451 372 447 q 311 454 339 454 l 200 454 l 200 619 l 311 619 q 348 622 333 619 q 369 638 363 625 q 379 676 376 650 q 382 749 382 703 q 379 810 382 788 q 369 843 376 832 q 348 856 363 854 q 311 858 333 858 q 250 832 256 858 q 243 801 247 821 q 239 743 239 781 q 239 728 239 736 q 240 715 239 719 l 36 715 q 35 737 35 726 q 35 757 35 747 q 45 901 33 842 q 88 999 57 961 q 172 1053 118 1036 q 311 1069 226 1069 q 450 1060 396 1069 q 535 1019 504 1050 q 576 932 565 989 q 588 781 588 875 q 584 684 588 722 q 572 620 581 646 q 549 578 563 594 q 514 547 535 561 l 514 538 z "},"4":{"ha":629,"x_min":18,"x_max":611,"o":"m 329 0 l 329 178 l 18 178 l 18 382 l 324 1051 l 532 1051 l 532 369 l 611 369 l 611 178 l 532 178 l 532 0 l 329 0 m 336 628 l 321 628 l 219 382 l 225 369 l 336 369 l 336 628 z "},"5":{"ha":629,"x_min":35,"x_max":599,"o":"m 285 828 l 272 707 q 317 719 288 713 q 388 725 346 725 q 480 709 440 725 q 546 658 519 693 q 585 565 572 622 q 599 425 599 508 q 595 292 599 349 q 585 194 592 236 q 569 121 579 151 q 546 68 560 90 q 513 28 532 44 q 465 1 493 11 q 397 -14 436 -10 q 306 -18 357 -18 q 165 1 218 -18 q 82 61 111 21 q 44 163 53 101 q 35 308 35 225 q 39 403 35 353 l 240 403 q 239 380 239 393 q 239 356 239 367 q 249 253 239 290 q 306 217 260 217 q 350 222 338 217 q 367 242 363 228 q 377 303 374 265 q 381 418 381 342 q 378 481 381 457 q 366 517 375 504 q 341 533 357 529 q 299 538 325 538 q 228 513 257 538 l 58 567 l 92 1051 l 582 1051 l 582 828 l 285 828 z "},"6":{"ha":629,"x_min":32,"x_max":597,"o":"m 385 763 q 386 788 386 767 q 371 843 386 832 q 315 854 356 854 q 272 844 286 854 q 253 786 258 833 q 251 762 251 778 q 249 726 250 746 q 248 685 249 707 q 247 644 247 664 q 309 653 279 650 q 364 656 339 656 q 466 642 422 656 q 539 594 510 628 q 583 501 568 560 q 597 351 597 442 q 585 163 597 235 q 540 50 572 90 q 454 -4 508 10 q 315 -18 400 -18 q 209 -12 254 -18 q 133 13 164 -6 q 81 69 101 32 q 51 166 61 106 q 36 315 40 226 q 32 526 32 403 q 35 749 32 657 q 47 901 38 840 q 75 995 57 961 q 125 1046 93 1029 q 203 1066 157 1063 q 315 1069 250 1069 q 460 1061 407 1069 q 542 1022 514 1053 q 577 930 569 992 q 585 763 585 868 l 385 763 m 249 382 q 249 328 249 350 q 252 290 250 306 q 256 264 254 275 q 263 243 258 253 q 282 222 269 228 q 318 217 294 217 q 353 220 340 217 q 372 241 365 224 q 380 295 378 258 q 382 397 382 332 q 367 469 382 451 q 317 488 353 488 q 272 483 288 488 q 249 472 256 478 l 249 382 z "},"7":{"ha":629,"x_min":33,"x_max":596,"o":"m 94 0 l 326 814 l 321 828 l 33 828 l 33 1051 l 596 1051 l 596 932 l 339 0 l 94 0 z "},"8":{"ha":629,"x_min":25,"x_max":604,"o":"m 518 538 q 555 514 539 525 q 582 478 571 503 q 599 409 593 454 q 604 283 604 364 q 594 141 604 199 q 554 48 585 83 q 467 -3 524 13 q 314 -18 410 -18 q 163 -3 219 -18 q 75 48 106 13 q 35 141 44 83 q 25 283 25 199 q 31 409 25 364 q 47 478 36 454 q 74 514 58 503 q 111 538 90 525 l 111 547 q 76 578 90 561 q 53 620 63 594 q 41 684 44 646 q 38 781 38 722 q 49 932 38 875 q 90 1019 60 989 q 175 1060 121 1050 q 314 1069 229 1069 q 453 1060 399 1069 q 538 1019 507 1050 q 581 932 569 989 q 592 781 592 875 q 588 684 592 722 q 576 620 585 646 q 553 578 567 594 q 518 547 539 561 l 518 538 m 314 213 q 378 233 360 213 q 396 317 396 254 q 393 395 396 367 q 381 438 390 424 q 356 454 372 451 q 314 457 340 457 q 272 454 288 457 q 247 438 256 451 q 236 395 239 424 q 233 317 233 367 q 251 233 233 254 q 314 213 269 213 m 314 617 q 349 619 335 617 q 370 635 363 622 q 381 675 378 649 q 385 749 385 701 q 382 810 385 788 q 372 844 379 833 q 351 858 365 856 q 314 861 336 861 q 278 858 292 861 q 257 845 264 856 q 247 812 250 835 q 244 750 244 789 q 247 676 244 703 q 258 635 250 649 q 280 619 267 622 q 314 617 293 617 z "},"9":{"ha":629,"x_min":31,"x_max":599,"o":"m 157 0 l 157 13 q 213 109 186 58 q 264 211 240 160 q 306 312 288 263 q 338 406 325 361 l 325 414 q 297 406 318 410 q 247 403 275 403 q 135 417 178 403 q 69 467 93 431 q 38 569 46 504 q 31 735 31 633 q 40 909 31 843 q 80 1010 50 975 q 165 1058 110 1046 q 314 1069 221 1069 q 466 1058 410 1069 q 551 1009 522 1046 q 590 905 581 972 q 599 726 599 838 q 586 532 599 625 q 550 351 574 439 q 490 176 526 263 q 406 0 453 89 l 157 0 m 371 594 q 378 632 376 613 q 381 690 381 651 q 380 743 381 721 q 377 781 379 765 q 372 807 375 796 q 365 828 369 818 q 347 849 358 843 q 310 856 335 856 q 276 852 289 856 q 258 831 264 849 q 249 776 251 813 q 247 675 247 740 q 261 603 247 621 q 311 585 275 585 q 349 588 335 585 q 371 594 363 590 z "},"\u0017":{"ha":275,"x_min":0,"x_max":0,"o":""}," ":{"ha":275,"x_min":0,"x_max":0,"o":""},"!":{"ha":335,"x_min":47,"x_max":286,"o":"m 75 315 l 47 1094 l 286 1094 l 261 315 l 75 315 m 58 0 l 58 210 l 276 210 l 276 0 l 58 0 z "},"\"":{"ha":522,"x_min":40,"x_max":481,"o":"m 40 672 m 71 672 l 40 1094 l 240 1094 l 211 672 l 71 672 m 311 672 l 281 1094 l 481 1094 l 451 672 l 311 672 z "},"#":{"ha":629,"x_min":21,"x_max":608,"o":"m 368 0 l 368 296 l 260 296 l 260 0 l 128 0 l 128 296 l 21 296 l 21 428 l 128 428 l 128 626 l 21 626 l 21 758 l 128 758 l 128 1051 l 260 1051 l 260 758 l 368 758 l 368 1051 l 501 1051 l 501 758 l 608 758 l 608 626 l 501 626 l 501 428 l 608 428 l 608 296 l 501 296 l 501 0 l 368 0 m 368 626 l 260 626 l 260 428 l 368 428 l 368 626 z "},"$":{"ha":629,"x_min":35,"x_max":594,"o":"m 272 -60 l 272 114 q 94 158 150 117 q 38 299 38 200 q 39 353 38 328 q 44 403 40 379 l 243 403 l 243 379 q 254 319 243 339 q 310 299 265 299 q 365 320 356 299 q 375 372 375 342 q 365 415 375 401 q 324 442 354 428 q 209 487 268 468 q 104 536 150 506 q 68 567 82 550 q 47 609 54 585 q 38 666 40 633 q 35 743 35 699 q 45 842 35 801 q 83 910 56 883 q 156 949 110 936 q 272 964 201 961 l 272 1113 l 360 1113 l 360 964 q 460 950 419 961 q 527 917 501 939 q 565 858 553 894 q 576 771 576 822 q 572 696 576 726 l 372 696 l 372 725 q 360 778 372 761 q 310 794 347 794 q 258 776 269 794 q 246 731 246 758 q 257 689 246 701 q 301 663 268 676 q 360 642 333 650 q 410 626 386 633 q 456 610 435 618 q 500 590 478 601 q 542 565 524 579 q 572 526 560 550 q 589 469 583 503 q 594 386 594 435 q 583 266 594 315 q 544 184 571 217 q 472 135 517 151 q 360 115 426 119 l 360 -60 l 272 -60 z "},"%":{"ha":860,"x_min":31,"x_max":835,"o":"m 31 0 m 192 474 q 103 480 135 474 q 55 515 71 486 q 35 605 39 544 q 31 775 31 665 q 35 944 31 883 q 55 1035 39 1006 q 103 1070 71 1064 q 192 1076 135 1076 q 280 1070 247 1076 q 328 1035 313 1064 q 349 944 344 1006 q 353 775 353 883 q 349 605 353 665 q 328 515 344 544 q 280 480 313 486 q 192 474 247 474 m 192 617 q 207 619 201 617 q 215 638 213 622 q 219 685 218 653 q 219 778 219 718 q 219 872 219 839 q 216 922 218 906 q 208 940 214 938 q 192 943 201 943 q 175 940 181 943 q 167 922 169 938 q 165 872 165 906 q 164 778 164 839 q 165 685 164 718 q 168 638 165 653 q 176 619 171 622 q 192 617 182 617 m 61 0 l 61 7 l 663 1051 l 797 1051 l 797 1044 l 194 0 l 61 0 m 674 -24 q 585 -17 617 -24 q 537 18 553 -11 q 517 108 521 47 q 513 278 513 168 q 517 447 513 386 q 537 538 521 508 q 585 573 553 567 q 674 579 617 579 q 762 573 729 579 q 810 538 794 567 q 831 447 826 508 q 835 278 835 386 q 831 108 835 168 q 810 18 826 47 q 762 -17 794 -11 q 674 -24 729 -24 m 674 119 q 689 122 683 119 q 697 140 694 125 q 701 188 700 156 q 701 281 701 221 q 701 375 701 342 q 698 424 700 408 q 690 443 696 440 q 674 446 683 446 q 657 443 663 446 q 649 424 651 440 q 647 375 647 408 q 646 281 646 342 q 647 188 646 221 q 650 140 647 156 q 658 122 653 125 q 674 119 664 119 z "},"&":{"ha":754,"x_min":31,"x_max":749,"o":"m 561 0 l 503 104 l 485 72 q 457 33 472 50 q 419 5 442 17 q 366 -12 397 -7 q 290 -18 335 -18 q 149 -6 201 -18 q 71 42 97 7 q 38 137 44 76 q 31 292 31 197 q 35 407 31 363 q 53 483 39 451 q 92 536 67 514 q 163 583 118 558 l 215 613 l 179 679 q 154 725 164 706 q 139 763 144 744 q 131 804 133 782 q 128 858 128 826 q 138 965 128 924 q 176 1030 149 1007 q 251 1061 203 1053 q 372 1069 299 1069 q 476 1061 435 1069 q 544 1027 518 1053 q 580 954 569 1001 q 590 828 590 907 q 585 731 590 769 q 566 664 579 692 q 533 617 553 636 q 483 579 513 597 l 435 547 l 497 442 l 542 533 l 742 533 l 742 526 l 597 269 l 749 7 l 749 0 l 561 0 m 403 282 l 301 461 l 274 443 q 260 431 265 438 q 253 412 256 424 q 249 381 250 400 q 249 331 249 361 q 249 290 249 306 q 250 263 249 274 q 253 247 251 253 q 258 235 254 240 q 277 220 265 224 q 315 217 289 217 q 361 224 347 217 q 388 254 375 231 l 403 282 m 376 703 q 396 715 388 708 q 409 733 404 722 q 417 762 414 744 q 419 808 419 779 q 410 865 419 854 q 364 876 400 876 q 318 865 328 876 q 308 808 308 854 q 316 756 308 772 q 340 711 324 739 l 353 689 l 376 703 z "},"'":{"ha":282,"x_min":40,"x_max":240,"o":"m 71 672 l 40 1094 l 240 1094 l 211 672 l 71 672 z "},"(":{"ha":629,"x_min":207,"x_max":576,"o":"m 417 -331 q 337 -222 375 -286 q 269 -61 299 -158 q 224 174 240 36 q 207 503 207 311 q 224 832 207 694 q 269 1067 240 969 q 337 1228 299 1164 q 417 1336 375 1292 l 576 1336 l 576 1328 q 499 1210 536 1271 q 433 1060 461 1150 q 387 836 404 969 q 369 501 369 703 q 377 265 369 368 q 399 83 385 163 q 433 -55 414 4 q 476 -160 453 -114 q 524 -246 499 -207 q 576 -322 550 -285 l 576 -331 l 417 -331 z "},")":{"ha":629,"x_min":53,"x_max":422,"o":"m 53 -331 l 53 -322 q 105 -246 79 -285 q 153 -160 131 -207 q 196 -55 176 -114 q 230 83 215 4 q 252 265 244 163 q 260 501 260 367 q 242 836 260 703 q 197 1060 225 969 q 131 1210 168 1150 q 53 1328 93 1271 l 53 1336 l 213 1336 q 292 1228 254 1292 q 360 1067 331 1164 q 406 832 389 969 q 422 503 422 694 q 406 174 422 311 q 360 -61 389 36 q 292 -222 331 -158 q 213 -331 254 -286 l 53 -331 z "},"*":{"ha":690,"x_min":47,"x_max":643,"o":"m 461 485 l 353 674 l 338 674 l 229 485 l 117 567 l 264 729 l 260 740 l 47 786 l 92 917 l 289 828 l 299 838 l 278 1051 l 413 1051 l 392 838 l 400 828 l 599 917 l 643 786 l 431 740 l 426 729 l 574 567 l 461 485 z "},"+":{"ha":629,"x_min":21,"x_max":608,"o":"m 233 233 l 233 446 l 21 446 l 21 608 l 233 608 l 233 821 l 396 821 l 396 608 l 608 608 l 608 446 l 396 446 l 396 233 l 233 233 z "},",":{"ha":313,"x_min":47,"x_max":265,"o":"m 56 -197 l 56 -189 l 124 1 l 119 14 l 47 14 l 47 210 l 265 210 l 265 6 l 161 -197 l 56 -197 z "},"-":{"ha":507,"x_min":28,"x_max":478,"o":"m 28 443 l 28 615 l 478 615 l 478 443 l 28 443 z "},".":{"ha":313,"x_min":47,"x_max":265,"o":"m 47 0 l 47 210 l 265 210 l 265 0 l 47 0 z "},"/":{"ha":629,"x_min":22,"x_max":607,"o":"m 22 -212 l 447 1178 l 607 1178 l 182 -212 l 22 -212 z "},":":{"ha":349,"x_min":65,"x_max":283,"o":"m 65 0 l 65 210 l 283 210 l 283 0 l 65 0 m 65 568 l 65 778 l 283 778 l 283 568 l 65 568 z "},";":{"ha":349,"x_min":65,"x_max":283,"o":"m 74 -197 l 74 -189 l 142 1 l 138 14 l 65 14 l 65 210 l 283 210 l 283 6 l 179 -197 l 74 -197 m 65 568 l 65 778 l 283 778 l 283 568 l 65 568 z "},"<":{"ha":629,"x_min":21,"x_max":608,"o":"m 601 190 l 21 446 l 21 608 l 601 864 l 608 864 l 608 689 l 232 535 l 232 519 l 608 367 l 608 190 l 601 190 z "},"=":{"ha":629,"x_min":21,"x_max":608,"o":"m 21 267 l 21 428 l 608 428 l 608 267 l 21 267 m 21 626 l 21 789 l 608 789 l 608 626 l 21 626 z "},">":{"ha":629,"x_min":21,"x_max":608,"o":"m 29 190 l 21 190 l 21 367 l 399 519 l 399 535 l 21 689 l 21 864 l 29 864 l 608 608 l 608 446 l 29 190 z "},"?":{"ha":578,"x_min":35,"x_max":549,"o":"m 192 315 q 189 377 189 339 q 189 460 189 415 q 212 551 189 515 q 288 628 235 586 q 323 658 310 646 q 342 683 336 669 q 350 717 349 697 q 351 771 351 738 q 340 838 351 819 q 289 857 329 857 q 237 838 249 857 q 225 771 225 819 q 225 744 225 751 q 226 725 225 736 l 44 725 q 37 769 39 744 q 35 838 35 794 q 48 949 35 904 q 91 1020 61 993 q 169 1058 121 1047 q 289 1069 218 1069 q 417 1056 367 1069 q 496 1010 467 1042 q 537 928 525 979 q 549 804 549 878 q 547 710 549 749 q 538 645 544 672 q 522 598 532 618 q 496 560 513 578 q 447 517 471 532 q 403 481 422 501 q 391 465 396 474 q 383 440 386 457 q 380 393 381 422 q 379 315 379 364 l 192 315 m 175 0 l 175 210 l 393 210 l 393 0 l 175 0 z "},"@":{"ha":936,"x_min":43,"x_max":910,"o":"m 907 -18 q 909 -35 908 -29 q 910 -47 910 -40 q 894 -142 910 -97 q 831 -220 878 -186 q 699 -274 783 -254 q 479 -293 615 -293 q 234 -271 328 -293 q 94 -182 140 -249 q 71 -131 81 -162 q 55 -40 61 -99 q 46 109 49 18 q 43 338 43 200 q 47 583 43 489 q 60 731 51 676 q 83 813 69 786 q 114 858 96 840 q 254 926 165 907 q 475 946 343 946 q 667 932 588 946 q 797 883 747 918 q 838 843 821 868 q 867 769 856 818 q 883 638 878 719 q 889 426 889 556 q 888 269 889 328 q 882 177 886 211 q 872 126 878 143 q 856 94 865 110 q 807 57 839 67 q 719 47 775 47 q 616 60 650 47 q 564 94 582 74 l 549 94 q 508 62 533 76 q 436 47 483 47 q 384 57 406 47 q 349 95 363 67 q 328 174 335 124 q 322 304 322 224 q 328 487 322 418 q 347 593 333 556 q 380 642 360 631 q 429 654 400 654 q 496 639 471 654 q 538 603 521 624 l 542 606 l 543 640 l 665 640 l 665 215 q 675 176 665 186 q 711 163 685 163 q 737 167 729 163 q 750 182 744 171 q 753 195 751 186 q 756 230 754 204 q 757 304 757 256 q 757 438 757 353 q 753 607 757 543 q 744 706 750 671 q 727 757 738 742 q 703 782 717 772 q 475 822 639 822 q 327 808 382 822 q 242 763 272 794 q 225 735 232 751 q 214 674 218 718 q 208 551 210 631 q 206 338 206 472 q 207 140 206 214 q 211 25 208 67 q 219 -34 214 -17 q 231 -62 224 -51 q 266 -99 244 -85 q 319 -119 288 -112 q 397 -129 351 -126 q 503 -132 442 -132 q 646 -125 592 -132 q 729 -104 700 -118 q 768 -69 758 -90 q 778 -18 778 -47 l 907 -18 m 531 483 q 515 494 524 490 q 489 499 506 499 q 474 497 479 499 q 465 488 468 494 q 461 476 463 483 q 458 453 460 469 q 456 406 457 436 q 456 324 456 375 q 456 259 456 283 q 458 222 457 235 q 461 201 460 208 q 465 190 463 194 q 489 179 472 179 q 515 184 506 179 q 531 197 524 189 l 531 483 z "},"A":{"ha":618,"x_min":17,"x_max":601,"o":"m 376 0 l 358 243 l 253 243 l 236 0 l 17 0 l 129 1051 l 496 1051 l 601 0 l 376 0 m 313 832 l 297 832 l 263 456 l 349 456 l 313 832 z "},"B":{"ha":639,"x_min":47,"x_max":618,"o":"m 47 0 l 47 1051 l 360 1051 q 477 1035 431 1051 q 552 985 524 1019 q 592 898 581 951 q 604 768 604 844 q 601 675 604 711 q 588 615 597 639 q 565 576 579 592 q 531 547 551 561 l 531 538 q 567 514 551 525 q 595 478 583 503 q 613 409 607 454 q 618 283 618 364 q 607 153 618 207 q 569 66 596 100 q 496 16 542 32 q 379 0 450 0 l 47 0 m 335 213 q 381 232 367 213 q 396 313 396 251 q 383 415 396 385 q 340 446 371 446 l 265 446 l 265 213 l 335 213 m 329 619 q 373 644 361 619 q 385 740 385 669 q 370 823 385 803 q 324 843 356 843 l 265 843 l 265 619 l 329 619 z "},"C":{"ha":628,"x_min":31,"x_max":593,"o":"m 589 403 q 593 308 593 353 q 584 163 593 225 q 546 61 575 101 q 463 1 517 21 q 322 -18 410 -18 q 163 1 218 -18 q 82 68 108 19 q 58 121 68 90 q 42 203 49 151 q 33 333 36 254 q 31 535 31 413 q 33 733 31 657 q 42 858 36 810 q 58 935 49 907 q 82 986 68 963 q 163 1051 110 1033 q 315 1069 215 1069 q 458 1053 404 1069 q 542 999 513 1036 q 581 902 571 961 q 590 760 590 843 q 590 717 590 740 q 588 667 589 693 l 383 667 q 383 736 383 708 q 381 782 382 764 q 377 810 379 800 q 374 828 375 821 q 315 854 368 854 q 277 848 289 854 q 261 828 265 842 q 255 802 257 817 q 251 758 253 788 q 248 675 249 728 q 247 538 247 622 q 248 397 247 450 q 251 314 249 344 q 255 268 253 283 q 261 242 257 253 q 278 222 265 228 q 322 217 290 217 q 372 240 364 217 q 381 269 378 254 q 385 303 383 285 q 387 347 386 322 q 388 403 388 371 l 589 403 z "},"D":{"ha":654,"x_min":47,"x_max":624,"o":"m 47 0 l 47 1051 l 340 1051 q 493 1033 440 1051 q 574 968 546 1014 q 597 917 588 944 q 612 843 606 890 q 621 721 618 796 q 624 526 624 646 q 621 331 624 407 q 612 208 618 256 q 597 133 606 161 q 574 83 588 106 q 540 44 560 60 q 493 18 521 28 q 428 4 465 8 q 340 0 390 0 l 47 0 m 335 232 q 372 238 361 232 q 389 257 383 243 q 394 280 392 267 q 399 322 397 293 q 401 401 400 351 q 401 531 401 450 q 401 662 401 611 q 399 742 400 713 q 394 785 397 771 q 389 808 392 799 q 372 825 383 819 q 335 831 361 831 l 265 831 l 265 232 l 335 232 z "},"E":{"ha":553,"x_min":47,"x_max":513,"o":"m 47 0 l 47 1051 l 513 1051 l 513 829 l 265 829 l 265 644 l 508 644 l 508 432 l 265 432 l 265 233 l 511 233 l 511 0 l 47 0 z "},"F":{"ha":531,"x_min":47,"x_max":506,"o":"m 47 0 l 47 1051 l 506 1051 l 506 829 l 265 829 l 265 619 l 501 619 l 501 406 l 265 406 l 265 0 l 47 0 z "},"G":{"ha":624,"x_min":31,"x_max":596,"o":"m 397 407 l 296 407 l 296 618 l 593 618 q 595 538 594 590 q 596 411 596 485 q 593 268 596 325 q 584 174 590 211 q 569 113 578 136 q 547 68 560 89 q 515 27 533 43 q 468 1 496 11 q 403 -14 440 -10 q 315 -18 365 -18 q 162 1 214 -18 q 82 68 110 19 q 58 120 68 92 q 42 199 49 149 q 33 328 36 249 q 31 535 31 407 q 33 733 31 657 q 42 858 36 810 q 58 935 49 907 q 82 986 68 963 q 163 1051 110 1033 q 315 1069 215 1069 q 489 1040 431 1069 q 571 939 547 1010 q 589 785 589 881 q 589 755 589 765 q 588 731 589 744 l 385 731 q 386 740 386 735 q 386 749 386 744 q 383 800 386 783 q 378 828 381 817 q 314 854 372 854 q 273 848 286 854 q 254 828 260 842 q 249 802 251 817 q 244 758 246 788 q 242 675 243 728 q 242 538 242 622 q 242 394 242 447 q 244 310 243 340 q 248 267 246 281 q 253 244 250 254 q 319 214 264 214 q 360 220 347 214 q 382 240 374 226 q 390 255 386 247 q 394 275 393 263 q 397 306 396 288 q 397 357 397 325 l 397 407 z "},"H":{"ha":672,"x_min":44,"x_max":628,"o":"m 404 0 l 404 432 l 268 432 l 268 0 l 44 0 l 44 1051 l 268 1051 l 268 644 l 404 644 l 404 1051 l 628 1051 l 628 0 l 404 0 z "},"I":{"ha":324,"x_min":50,"x_max":274,"o":"m 50 0 l 50 1051 l 274 1051 l 274 0 l 50 0 z "},"J":{"ha":615,"x_min":17,"x_max":578,"o":"m 354 1051 l 578 1051 l 578 542 q 575 342 578 422 q 566 208 572 261 q 551 122 560 154 q 528 68 542 90 q 494 28 514 44 q 447 1 475 11 q 378 -14 418 -10 q 288 -18 339 -18 q 147 1 200 -18 q 64 61 93 21 q 26 163 35 101 q 17 308 17 225 q 21 403 17 353 l 215 403 q 216 347 215 371 q 218 303 217 322 q 222 269 219 285 q 229 240 225 254 q 279 217 239 217 q 324 222 311 217 q 342 242 336 228 q 347 268 344 253 q 351 314 350 283 q 353 397 353 344 q 354 536 354 449 l 354 1051 z "},"K":{"ha":678,"x_min":47,"x_max":664,"o":"m 414 0 l 282 472 l 268 472 q 271 434 271 454 q 271 394 271 414 l 271 0 l 47 0 l 47 1051 l 271 1051 l 271 668 q 270 638 271 651 q 268 611 269 625 l 282 611 l 422 1051 l 651 1051 l 651 1044 l 492 575 l 664 7 l 664 0 l 414 0 z "},"L":{"ha":508,"x_min":47,"x_max":490,"o":"m 47 0 l 47 1051 l 265 1051 l 265 233 l 490 233 l 490 0 l 47 0 z "},"M":{"ha":921,"x_min":44,"x_max":876,"o":"m 676 0 l 676 631 l 668 631 l 508 0 l 413 0 l 251 631 l 243 631 l 243 0 l 44 0 l 44 1051 l 353 1051 l 450 594 l 460 594 l 568 1051 l 875 1051 l 876 0 l 676 0 z "},"N":{"ha":660,"x_min":46,"x_max":615,"o":"m 501 0 l 253 564 l 244 564 l 244 0 l 46 0 l 46 1051 l 260 1051 l 407 686 l 415 686 l 415 1051 l 615 1051 l 615 0 l 501 0 z "},"O":{"ha":629,"x_min":31,"x_max":599,"o":"m 547 68 q 515 27 533 43 q 468 1 496 11 q 403 -14 440 -10 q 315 -18 365 -18 q 162 1 214 -18 q 82 68 110 19 q 58 120 68 92 q 42 197 49 149 q 33 324 36 246 q 31 526 31 403 q 33 728 31 650 q 42 854 36 806 q 58 931 49 903 q 82 983 68 958 q 115 1024 96 1007 q 161 1051 133 1040 q 227 1065 189 1061 q 315 1069 265 1069 q 467 1050 415 1069 q 547 983 519 1031 q 571 931 561 958 q 587 854 581 903 q 596 728 593 806 q 599 526 599 650 q 596 324 599 403 q 587 197 593 246 q 571 120 581 149 q 547 68 561 92 m 369 242 q 375 267 372 251 q 379 313 378 282 q 381 395 381 343 q 382 532 382 447 q 381 672 382 619 q 379 756 381 725 q 375 803 378 788 q 369 828 372 818 q 353 848 364 842 q 315 854 342 854 q 277 848 289 854 q 261 828 265 842 q 255 803 257 818 q 251 756 253 788 q 248 672 249 725 q 247 532 247 619 q 248 395 247 447 q 251 313 249 343 q 255 267 253 282 q 261 242 257 251 q 277 222 265 228 q 315 217 289 217 q 353 222 342 217 q 369 242 364 228 z "},"P":{"ha":625,"x_min":47,"x_max":600,"o":"m 47 0 l 47 1051 l 363 1051 q 479 1033 433 1051 q 552 972 525 1014 q 590 860 579 929 q 600 690 600 792 q 590 516 600 588 q 552 400 579 444 q 479 336 525 356 q 363 317 433 317 l 265 317 l 265 0 l 47 0 m 324 533 q 367 567 354 533 q 379 696 379 601 q 365 806 379 779 q 318 832 350 832 l 265 832 l 265 533 l 324 533 z "},"Q":{"ha":629,"x_min":31,"x_max":599,"o":"m 333 -126 q 323 -109 328 -119 q 310 -81 318 -99 q 294 -35 303 -62 q 271 35 285 -7 q 149 55 193 38 q 82 113 106 72 q 58 163 68 136 q 42 237 49 190 q 33 358 36 283 q 31 550 31 432 q 33 742 31 668 q 42 864 36 817 q 58 938 49 911 q 82 988 68 964 q 162 1051 110 1033 q 315 1069 214 1069 q 403 1065 365 1069 q 468 1051 440 1061 q 515 1026 496 1042 q 547 988 533 1010 q 571 938 561 964 q 587 864 581 911 q 596 742 593 817 q 599 550 599 668 q 596 358 599 432 q 587 237 593 283 q 571 163 581 190 q 547 113 561 136 q 517 78 536 92 q 476 56 499 65 q 520 -63 501 -26 q 551 -118 539 -100 l 551 -126 l 333 -126 m 369 271 q 375 293 372 281 q 379 333 378 306 q 381 412 381 361 q 382 549 382 463 q 381 681 382 631 q 379 762 381 732 q 375 806 378 792 q 369 829 372 819 q 353 848 364 842 q 315 854 342 854 q 277 848 289 854 q 261 829 265 842 q 255 806 257 819 q 251 762 253 792 q 248 681 249 732 q 247 549 247 631 q 248 414 247 464 q 251 335 249 364 q 255 293 253 306 q 261 271 257 281 q 277 254 265 258 q 315 250 289 250 q 353 254 342 250 q 369 271 364 258 z "},"R":{"ha":642,"x_min":47,"x_max":624,"o":"m 392 0 q 384 27 388 13 q 376 72 381 42 q 365 154 372 101 q 349 299 358 207 q 340 357 344 335 q 331 391 336 379 q 317 406 325 403 q 299 410 308 410 l 265 410 l 265 0 l 47 0 l 47 1051 l 365 1051 q 482 1035 436 1051 q 555 985 528 1019 q 592 898 582 951 q 603 768 603 844 q 597 640 603 686 q 580 567 592 593 q 551 527 568 540 q 513 501 535 514 l 513 493 q 530 478 521 486 q 546 450 539 469 q 569 374 557 425 q 592 232 581 324 q 604 129 600 168 q 612 67 608 90 q 617 31 615 43 q 624 7 619 18 l 624 0 l 392 0 m 326 606 q 369 631 357 606 q 382 731 382 657 q 367 814 382 793 q 321 835 353 835 l 265 835 l 265 606 l 326 606 z "},"S":{"ha":583,"x_min":25,"x_max":554,"o":"m 347 725 q 349 744 349 736 q 349 771 349 751 q 337 838 349 819 q 285 857 325 857 q 233 838 244 857 q 222 771 222 819 q 234 706 222 725 q 272 672 246 688 q 330 642 303 654 q 380 619 357 629 q 424 599 403 608 q 465 575 444 589 q 505 540 488 558 q 533 491 522 521 q 549 417 543 461 q 554 308 554 374 q 541 151 554 214 q 497 51 528 89 q 412 -2 465 14 q 279 -18 358 -18 q 88 31 149 -18 q 26 204 26 81 q 28 285 26 244 q 38 351 31 326 l 219 351 q 217 333 217 343 q 217 313 217 324 q 229 228 217 251 q 283 206 242 206 q 338 226 325 206 q 351 313 351 246 q 339 374 351 353 q 299 414 326 394 q 245 444 274 431 q 188 471 217 458 q 133 498 160 483 q 86 532 107 513 q 34 635 43 569 q 25 804 25 700 q 37 928 25 878 q 78 1010 49 979 q 157 1056 107 1042 q 285 1069 207 1069 q 403 1058 356 1069 q 482 1020 451 1047 q 526 949 513 993 q 539 838 539 904 q 537 769 539 794 q 528 725 535 744 l 347 725 z "},"T":{"ha":585,"x_min":18,"x_max":567,"o":"m 183 0 l 183 829 l 18 829 l 18 1051 l 567 1051 l 567 829 l 401 829 l 401 0 l 183 0 z "},"U":{"ha":642,"x_min":38,"x_max":604,"o":"m 388 1051 l 604 1051 l 604 324 q 599 215 603 258 q 588 143 594 172 q 574 95 582 114 q 554 58 565 76 q 522 22 540 36 q 475 -2 503 7 q 410 -15 447 -11 q 322 -18 372 -18 q 168 -2 221 -18 q 89 58 115 14 q 68 95 78 76 q 51 143 58 114 q 41 215 44 172 q 38 324 38 258 l 38 1051 l 261 1051 l 261 324 q 263 265 261 286 q 272 233 265 244 q 292 219 279 222 q 325 217 304 217 q 358 219 346 217 q 376 233 369 222 q 385 265 383 244 q 388 324 388 286 l 388 1051 z "},"V":{"ha":631,"x_min":17,"x_max":614,"o":"m 142 0 l 17 1051 l 253 1051 l 311 311 l 326 311 l 382 1051 l 614 1051 l 482 0 l 142 0 z "},"W":{"ha":1004,"x_min":19,"x_max":985,"o":"m 586 0 l 514 644 l 499 644 l 421 0 l 113 0 l 19 1051 l 240 1051 l 288 336 l 303 336 l 399 1051 l 618 1051 l 715 336 l 731 336 l 776 1051 l 985 1051 l 894 0 l 586 0 z "},"X":{"ha":644,"x_min":11,"x_max":631,"o":"m 397 0 l 326 383 l 311 383 l 236 0 l 11 0 l 11 7 l 147 581 l 38 1044 l 38 1051 l 264 1051 l 319 758 l 335 758 l 399 1051 l 610 1051 l 610 1044 l 496 581 l 631 7 l 631 0 l 397 0 z "},"Y":{"ha":621,"x_min":6,"x_max":615,"o":"m 197 0 l 197 383 l 6 1044 l 6 1051 l 231 1051 q 266 894 253 953 q 287 799 279 835 q 299 746 294 764 q 306 711 303 728 l 319 711 q 326 746 322 728 q 338 799 331 764 q 360 894 346 835 q 397 1051 374 953 l 615 1051 l 615 1044 l 432 386 l 432 0 l 197 0 z "},"Z":{"ha":631,"x_min":33,"x_max":607,"o":"m 33 0 l 33 249 l 311 814 l 306 828 l 44 828 l 44 1051 l 607 1051 l 607 932 l 275 246 l 282 233 l 597 233 l 597 0 l 33 0 z "},"[":{"ha":629,"x_min":182,"x_max":557,"o":"m 182 -331 l 182 1336 l 557 1336 l 557 1174 l 344 1174 l 344 -168 l 557 -168 l 557 -331 l 182 -331 z "},"\\":{"ha":629,"x_min":22,"x_max":607,"o":"m 447 -212 l 22 1178 l 182 1178 l 607 -212 l 447 -212 z "},"]":{"ha":629,"x_min":72,"x_max":447,"o":"m 72 -331 l 72 -168 l 285 -168 l 285 1174 l 72 1174 l 72 1336 l 447 1336 l 447 -331 l 72 -331 z "},"^":{"ha":629,"x_min":21,"x_max":608,"o":"m 447 464 l 322 819 l 308 819 l 183 464 l 21 464 l 21 472 l 244 1051 l 386 1051 l 608 472 l 608 464 l 447 464 z "},"_":{"ha":629,"x_min":1,"x_max":628,"o":"m 1 -253 l 1 -81 l 628 -81 l 628 -253 l 1 -253 z "},"`":{"ha":417,"x_min":47,"x_max":369,"o":"m 207 822 l 47 1054 l 47 1063 l 243 1063 l 369 829 l 369 822 l 207 822 z "},"a":{"ha":618,"x_min":17,"x_max":601,"o":"m 17 0 m 376 0 l 358 243 l 253 243 l 236 0 l 17 0 l 129 1051 l 496 1051 l 601 0 l 376 0 m 313 832 l 297 832 l 263 456 l 349 456 l 313 832 z "},"b":{"ha":639,"x_min":47,"x_max":618,"o":"m 47 0 m 47 0 l 47 1051 l 360 1051 q 477 1035 431 1051 q 552 985 524 1019 q 592 898 581 951 q 604 768 604 844 q 601 675 604 711 q 588 615 597 639 q 565 576 579 592 q 531 547 551 561 l 531 538 q 567 514 551 525 q 595 478 583 503 q 613 409 607 454 q 618 283 618 364 q 607 153 618 207 q 569 66 596 100 q 496 16 542 32 q 379 0 450 0 l 47 0 m 335 213 q 381 232 367 213 q 396 313 396 251 q 383 415 396 385 q 340 446 371 446 l 265 446 l 265 213 l 335 213 m 329 619 q 373 644 361 619 q 385 740 385 669 q 370 823 385 803 q 324 843 356 843 l 265 843 l 265 619 l 329 619 z "},"c":{"ha":628,"x_min":31,"x_max":593,"o":"m 31 0 m 589 403 q 593 308 593 353 q 584 163 593 225 q 546 61 575 101 q 463 1 517 21 q 322 -18 410 -18 q 163 1 218 -18 q 82 68 108 19 q 58 121 68 90 q 42 203 49 151 q 33 333 36 254 q 31 535 31 413 q 33 733 31 657 q 42 858 36 810 q 58 935 49 907 q 82 986 68 963 q 163 1051 110 1033 q 315 1069 215 1069 q 458 1053 404 1069 q 542 999 513 1036 q 581 902 571 961 q 590 760 590 843 q 590 717 590 740 q 588 667 589 693 l 383 667 q 383 736 383 708 q 381 782 382 764 q 377 810 379 800 q 374 828 375 821 q 315 854 368 854 q 277 848 289 854 q 261 828 265 842 q 255 802 257 817 q 251 758 253 788 q 248 675 249 728 q 247 538 247 622 q 248 397 247 450 q 251 314 249 344 q 255 268 253 283 q 261 242 257 253 q 278 222 265 228 q 322 217 290 217 q 372 240 364 217 q 381 269 378 254 q 385 303 383 285 q 387 347 386 322 q 388 403 388 371 l 589 403 z "},"d":{"ha":654,"x_min":47,"x_max":624,"o":"m 47 0 m 47 0 l 47 1051 l 340 1051 q 493 1033 440 1051 q 574 968 546 1014 q 597 917 588 944 q 612 843 606 890 q 621 721 618 796 q 624 526 624 646 q 621 331 624 407 q 612 208 618 256 q 597 133 606 161 q 574 83 588 106 q 540 44 560 60 q 493 18 521 28 q 428 4 465 8 q 340 0 390 0 l 47 0 m 335 232 q 372 238 361 232 q 389 257 383 243 q 394 280 392 267 q 399 322 397 293 q 401 401 400 351 q 401 531 401 450 q 401 662 401 611 q 399 742 400 713 q 394 785 397 771 q 389 808 392 799 q 372 825 383 819 q 335 831 361 831 l 265 831 l 265 232 l 335 232 z "},"e":{"ha":553,"x_min":47,"x_max":513,"o":"m 47 0 m 47 0 l 47 1051 l 513 1051 l 513 829 l 265 829 l 265 644 l 508 644 l 508 432 l 265 432 l 265 233 l 511 233 l 511 0 l 47 0 z "},"f":{"ha":531,"x_min":47,"x_max":506,"o":"m 47 0 m 47 0 l 47 1051 l 506 1051 l 506 829 l 265 829 l 265 619 l 501 619 l 501 406 l 265 406 l 265 0 l 47 0 z "},"g":{"ha":624,"x_min":31,"x_max":596,"o":"m 31 0 m 397 407 l 296 407 l 296 618 l 593 618 q 595 538 594 590 q 596 411 596 485 q 593 268 596 325 q 584 174 590 211 q 569 113 578 136 q 547 68 560 89 q 515 27 533 43 q 468 1 496 11 q 403 -14 440 -10 q 315 -18 365 -18 q 162 1 214 -18 q 82 68 110 19 q 58 120 68 92 q 42 199 49 149 q 33 328 36 249 q 31 535 31 407 q 33 733 31 657 q 42 858 36 810 q 58 935 49 907 q 82 986 68 963 q 163 1051 110 1033 q 315 1069 215 1069 q 489 1040 431 1069 q 571 939 547 1010 q 589 785 589 881 q 589 755 589 765 q 588 731 589 744 l 385 731 q 386 740 386 735 q 386 749 386 744 q 383 800 386 783 q 378 828 381 817 q 314 854 372 854 q 273 848 286 854 q 254 828 260 842 q 249 802 251 817 q 244 758 246 788 q 242 675 243 728 q 242 538 242 622 q 242 394 242 447 q 244 310 243 340 q 248 267 246 281 q 253 244 250 254 q 319 214 264 214 q 360 220 347 214 q 382 240 374 226 q 390 255 386 247 q 394 275 393 263 q 397 306 396 288 q 397 357 397 325 l 397 407 z "},"h":{"ha":672,"x_min":44,"x_max":628,"o":"m 44 0 m 404 0 l 404 432 l 268 432 l 268 0 l 44 0 l 44 1051 l 268 1051 l 268 644 l 404 644 l 404 1051 l 628 1051 l 628 0 l 404 0 z "},"i":{"ha":324,"x_min":50,"x_max":274,"o":"m 50 0 m 50 0 l 50 1051 l 274 1051 l 274 0 l 50 0 z "},"j":{"ha":615,"x_min":17,"x_max":578,"o":"m 17 0 m 354 1051 l 578 1051 l 578 542 q 575 342 578 422 q 566 208 572 261 q 551 122 560 154 q 528 68 542 90 q 494 28 514 44 q 447 1 475 11 q 378 -14 418 -10 q 288 -18 339 -18 q 147 1 200 -18 q 64 61 93 21 q 26 163 35 101 q 17 308 17 225 q 21 403 17 353 l 215 403 q 216 347 215 371 q 218 303 217 322 q 222 269 219 285 q 229 240 225 254 q 279 217 239 217 q 324 222 311 217 q 342 242 336 228 q 347 268 344 253 q 351 314 350 283 q 353 397 353 344 q 354 536 354 449 l 354 1051 z "},"k":{"ha":678,"x_min":47,"x_max":664,"o":"m 47 0 m 414 0 l 282 472 l 268 472 q 271 434 271 454 q 271 394 271 414 l 271 0 l 47 0 l 47 1051 l 271 1051 l 271 668 q 270 638 271 651 q 268 611 269 625 l 282 611 l 422 1051 l 651 1051 l 651 1044 l 492 575 l 664 7 l 664 0 l 414 0 z "},"l":{"ha":508,"x_min":47,"x_max":490,"o":"m 47 0 m 47 0 l 47 1051 l 265 1051 l 265 233 l 490 233 l 490 0 l 47 0 z "},"m":{"ha":921,"x_min":44,"x_max":876,"o":"m 44 0 m 676 0 l 676 631 l 668 631 l 508 0 l 413 0 l 251 631 l 243 631 l 243 0 l 44 0 l 44 1051 l 353 1051 l 450 594 l 460 594 l 568 1051 l 875 1051 l 876 0 l 676 0 z "},"n":{"ha":660,"x_min":46,"x_max":615,"o":"m 46 0 m 501 0 l 253 564 l 244 564 l 244 0 l 46 0 l 46 1051 l 260 1051 l 407 686 l 415 686 l 415 1051 l 615 1051 l 615 0 l 501 0 z "},"o":{"ha":629,"x_min":31,"x_max":599,"o":"m 31 0 m 547 68 q 515 27 533 43 q 468 1 496 11 q 403 -14 440 -10 q 315 -18 365 -18 q 162 1 214 -18 q 82 68 110 19 q 58 120 68 92 q 42 197 49 149 q 33 324 36 246 q 31 526 31 403 q 33 728 31 650 q 42 854 36 806 q 58 931 49 903 q 82 983 68 958 q 115 1024 96 1007 q 161 1051 133 1040 q 227 1065 189 1061 q 315 1069 265 1069 q 467 1050 415 1069 q 547 983 519 1031 q 571 931 561 958 q 587 854 581 903 q 596 728 593 806 q 599 526 599 650 q 596 324 599 403 q 587 197 593 246 q 571 120 581 149 q 547 68 561 92 m 369 242 q 375 267 372 251 q 379 313 378 282 q 381 395 381 343 q 382 532 382 447 q 381 672 382 619 q 379 756 381 725 q 375 803 378 788 q 369 828 372 818 q 353 848 364 842 q 315 854 342 854 q 277 848 289 854 q 261 828 265 842 q 255 803 257 818 q 251 756 253 788 q 248 672 249 725 q 247 532 247 619 q 248 395 247 447 q 251 313 249 343 q 255 267 253 282 q 261 242 257 251 q 277 222 265 228 q 315 217 289 217 q 353 222 342 217 q 369 242 364 228 z "},"p":{"ha":625,"x_min":47,"x_max":600,"o":"m 47 0 m 47 0 l 47 1051 l 363 1051 q 479 1033 433 1051 q 552 972 525 1014 q 590 860 579 929 q 600 690 600 792 q 590 516 600 588 q 552 400 579 444 q 479 336 525 356 q 363 317 433 317 l 265 317 l 265 0 l 47 0 m 324 533 q 367 567 354 533 q 379 696 379 601 q 365 806 379 779 q 318 832 350 832 l 265 832 l 265 533 l 324 533 z "},"q":{"ha":629,"x_min":31,"x_max":599,"o":"m 31 0 m 333 -126 q 323 -109 328 -119 q 310 -81 318 -99 q 294 -35 303 -62 q 271 35 285 -7 q 149 55 193 38 q 82 113 106 72 q 58 163 68 136 q 42 237 49 190 q 33 358 36 283 q 31 550 31 432 q 33 742 31 668 q 42 864 36 817 q 58 938 49 911 q 82 988 68 964 q 162 1051 110 1033 q 315 1069 214 1069 q 403 1065 365 1069 q 468 1051 440 1061 q 515 1026 496 1042 q 547 988 533 1010 q 571 938 561 964 q 587 864 581 911 q 596 742 593 817 q 599 550 599 668 q 596 358 599 432 q 587 237 593 283 q 571 163 581 190 q 547 113 561 136 q 517 78 536 92 q 476 56 499 65 q 520 -63 501 -26 q 551 -118 539 -100 l 551 -126 l 333 -126 m 369 271 q 375 293 372 281 q 379 333 378 306 q 381 412 381 361 q 382 549 382 463 q 381 681 382 631 q 379 762 381 732 q 375 806 378 792 q 369 829 372 819 q 353 848 364 842 q 315 854 342 854 q 277 848 289 854 q 261 829 265 842 q 255 806 257 819 q 251 762 253 792 q 248 681 249 732 q 247 549 247 631 q 248 414 247 464 q 251 335 249 364 q 255 293 253 306 q 261 271 257 281 q 277 254 265 258 q 315 250 289 250 q 353 254 342 250 q 369 271 364 258 z "},"r":{"ha":642,"x_min":47,"x_max":624,"o":"m 47 0 m 392 0 q 384 27 388 13 q 376 72 381 42 q 365 154 372 101 q 349 299 358 207 q 340 357 344 335 q 331 391 336 379 q 317 406 325 403 q 299 410 308 410 l 265 410 l 265 0 l 47 0 l 47 1051 l 365 1051 q 482 1035 436 1051 q 555 985 528 1019 q 592 898 582 951 q 603 768 603 844 q 597 640 603 686 q 580 567 592 593 q 551 527 568 540 q 513 501 535 514 l 513 493 q 530 478 521 486 q 546 450 539 469 q 569 374 557 425 q 592 232 581 324 q 604 129 600 168 q 612 67 608 90 q 617 31 615 43 q 624 7 619 18 l 624 0 l 392 0 m 326 606 q 369 631 357 606 q 382 731 382 657 q 367 814 382 793 q 321 835 353 835 l 265 835 l 265 606 l 326 606 z "},"s":{"ha":583,"x_min":25,"x_max":554,"o":"m 25 0 m 347 725 q 349 744 349 736 q 349 771 349 751 q 337 838 349 819 q 285 857 325 857 q 233 838 244 857 q 222 771 222 819 q 234 706 222 725 q 272 672 246 688 q 330 642 303 654 q 380 619 357 629 q 424 599 403 608 q 465 575 444 589 q 505 540 488 558 q 533 491 522 521 q 549 417 543 461 q 554 308 554 374 q 541 151 554 214 q 497 51 528 89 q 412 -2 465 14 q 279 -18 358 -18 q 88 31 149 -18 q 26 204 26 81 q 28 285 26 244 q 38 351 31 326 l 219 351 q 217 333 217 343 q 217 313 217 324 q 229 228 217 251 q 283 206 242 206 q 338 226 325 206 q 351 313 351 246 q 339 374 351 353 q 299 414 326 394 q 245 444 274 431 q 188 471 217 458 q 133 498 160 483 q 86 532 107 513 q 34 635 43 569 q 25 804 25 700 q 37 928 25 878 q 78 1010 49 979 q 157 1056 107 1042 q 285 1069 207 1069 q 403 1058 356 1069 q 482 1020 451 1047 q 526 949 513 993 q 539 838 539 904 q 537 769 539 794 q 528 725 535 744 l 347 725 z "},"t":{"ha":585,"x_min":18,"x_max":567,"o":"m 18 0 m 183 0 l 183 829 l 18 829 l 18 1051 l 567 1051 l 567 829 l 401 829 l 401 0 l 183 0 z "},"u":{"ha":642,"x_min":38,"x_max":604,"o":"m 38 0 m 388 1051 l 604 1051 l 604 324 q 599 215 603 258 q 588 143 594 172 q 574 95 582 114 q 554 58 565 76 q 522 22 540 36 q 475 -2 503 7 q 410 -15 447 -11 q 322 -18 372 -18 q 168 -2 221 -18 q 89 58 115 14 q 68 95 78 76 q 51 143 58 114 q 41 215 44 172 q 38 324 38 258 l 38 1051 l 261 1051 l 261 324 q 263 265 261 286 q 272 233 265 244 q 292 219 279 222 q 325 217 304 217 q 358 219 346 217 q 376 233 369 222 q 385 265 383 244 q 388 324 388 286 l 388 1051 z "},"v":{"ha":631,"x_min":17,"x_max":614,"o":"m 17 0 m 142 0 l 17 1051 l 253 1051 l 311 311 l 326 311 l 382 1051 l 614 1051 l 482 0 l 142 0 z "},"w":{"ha":1004,"x_min":19,"x_max":985,"o":"m 19 0 m 586 0 l 514 644 l 499 644 l 421 0 l 113 0 l 19 1051 l 240 1051 l 288 336 l 303 336 l 399 1051 l 618 1051 l 715 336 l 731 336 l 776 1051 l 985 1051 l 894 0 l 586 0 z "},"x":{"ha":644,"x_min":11,"x_max":631,"o":"m 11 0 m 397 0 l 326 383 l 311 383 l 236 0 l 11 0 l 11 7 l 147 581 l 38 1044 l 38 1051 l 264 1051 l 319 758 l 335 758 l 399 1051 l 610 1051 l 610 1044 l 496 581 l 631 7 l 631 0 l 397 0 z "},"y":{"ha":621,"x_min":6,"x_max":615,"o":"m 6 0 m 197 0 l 197 383 l 6 1044 l 6 1051 l 231 1051 q 266 894 253 953 q 287 799 279 835 q 299 746 294 764 q 306 711 303 728 l 319 711 q 326 746 322 728 q 338 799 331 764 q 360 894 346 835 q 397 1051 374 953 l 615 1051 l 615 1044 l 432 386 l 432 0 l 197 0 z "},"z":{"ha":631,"x_min":33,"x_max":607,"o":"m 33 0 m 33 0 l 33 249 l 311 814 l 306 828 l 44 828 l 44 1051 l 607 1051 l 607 932 l 275 246 l 282 233 l 597 233 l 597 0 l 33 0 z "},"{":{"ha":629,"x_min":125,"x_max":588,"o":"m 460 -331 q 358 -318 400 -331 q 289 -278 315 -306 q 250 -206 263 -250 q 238 -97 238 -161 q 242 8 238 -44 q 252 112 247 60 q 262 217 257 164 q 267 326 267 271 q 253 398 267 375 q 196 421 240 421 l 125 421 l 125 585 l 196 585 q 253 608 240 585 q 267 679 267 631 q 262 788 267 735 q 252 893 257 840 q 242 998 247 946 q 238 1103 238 1050 q 289 1283 238 1229 q 460 1336 340 1336 l 588 1336 l 588 1174 l 465 1174 q 413 1159 425 1174 q 400 1101 400 1144 q 405 1003 400 1056 q 415 894 410 951 q 424 776 419 838 q 429 653 429 715 q 408 566 429 604 q 357 510 388 528 l 357 494 q 408 441 388 479 q 429 353 429 403 q 424 229 429 290 q 415 111 419 168 q 405 2 410 54 q 400 -96 400 -50 q 413 -153 400 -139 q 465 -168 425 -168 l 588 -168 l 588 -331 l 460 -331 z "},"|":{"ha":629,"x_min":233,"x_max":396,"o":"m 233 -331 l 233 1336 l 396 1336 l 396 -331 l 233 -331 z "},"}":{"ha":629,"x_min":42,"x_max":504,"o":"m 42 -331 l 42 -168 l 164 -168 q 217 -153 204 -168 q 229 -96 229 -139 q 224 2 229 -50 q 215 111 219 54 q 205 229 210 168 q 200 353 200 290 q 221 441 200 403 q 272 494 242 479 l 272 510 q 221 566 242 528 q 200 653 200 604 q 205 776 200 715 q 215 894 210 838 q 224 1003 219 951 q 229 1101 229 1056 q 217 1159 229 1144 q 164 1174 204 1174 l 42 1174 l 42 1336 l 169 1336 q 340 1283 289 1336 q 392 1103 392 1229 q 387 998 392 1050 q 377 893 382 946 q 367 788 372 840 q 363 679 363 735 q 376 608 363 631 q 433 585 389 585 l 504 585 l 504 421 l 433 421 q 376 398 389 421 q 363 326 363 375 q 367 217 363 271 q 377 112 372 164 q 387 8 382 60 q 392 -97 392 -44 q 379 -206 392 -161 q 340 -278 367 -250 q 272 -318 314 -306 q 169 -331 229 -331 l 42 -331 z "},"~":{"ha":629,"x_min":21,"x_max":608,"o":"m 608 503 q 536 434 575 454 q 443 414 497 414 q 372 424 407 414 q 304 447 338 435 q 239 469 271 458 q 176 479 207 479 q 97 460 129 479 q 32 393 65 440 l 21 393 l 21 556 q 80 617 44 592 q 168 643 115 643 q 251 633 213 643 q 323 609 289 622 q 388 585 357 596 q 450 575 419 575 q 531 594 494 575 q 599 661 567 614 l 608 661 l 608 503 z "}," ":{"ha":275,"x_min":0,"x_max":0,"o":""},"¡":{"ha":335,"x_min":47,"x_max":286,"o":"m 47 -317 l 72 463 l 258 463 l 286 -317 l 47 -317 m 57 568 l 57 778 l 275 778 l 275 568 l 57 568 z "},"¢":{"ha":629,"x_min":24,"x_max":604,"o":"m 275 -60 l 275 114 q 146 131 192 117 q 76 182 100 146 q 53 222 63 200 q 37 282 43 243 q 27 382 31 321 q 24 542 24 443 q 26 698 24 638 q 35 797 29 758 q 52 857 42 835 q 76 897 63 879 q 147 946 100 931 q 275 964 193 961 l 275 1113 l 363 1113 l 363 964 q 487 946 442 961 q 557 897 532 931 q 594 809 585 858 q 603 707 603 760 q 603 680 603 693 q 601 651 603 667 l 386 651 l 386 668 q 383 731 386 714 q 375 758 379 749 q 357 774 369 769 q 318 778 344 778 q 279 774 290 778 q 263 758 268 769 q 256 740 258 751 q 252 707 254 729 q 249 647 250 685 q 249 546 249 608 q 249 447 249 485 q 252 386 250 408 q 256 353 254 364 q 263 333 258 342 q 279 321 268 325 q 318 317 290 317 q 357 321 344 317 q 375 333 369 325 q 383 360 381 344 q 386 425 386 376 l 386 443 l 601 443 q 604 409 604 426 q 604 375 604 392 q 596 277 604 328 q 557 182 588 226 q 486 131 531 146 q 363 114 442 117 l 363 -60 l 275 -60 z "},"£":{"ha":629,"x_min":21,"x_max":607,"o":"m 607 35 q 553 -3 583 11 q 474 -18 522 -18 q 380 13 414 -18 q 339 103 346 44 l 324 103 q 261 19 306 56 q 138 -18 217 -18 q 90 -10 118 -18 q 40 31 63 -3 l 40 231 q 106 222 83 222 q 152 243 140 222 q 164 328 164 264 q 157 358 164 342 q 139 392 150 375 l 21 392 l 21 481 l 79 481 q 39 590 47 533 q 31 728 31 646 q 35 822 31 782 q 46 891 39 861 q 63 944 53 921 q 83 986 72 967 q 164 1051 111 1033 q 317 1069 217 1069 q 460 1053 406 1069 q 543 999 514 1036 q 582 902 572 961 q 592 760 592 843 q 592 694 592 715 q 589 654 592 672 l 385 654 q 386 670 386 661 q 386 690 386 679 q 382 786 386 757 q 374 829 378 815 q 317 854 364 854 q 278 847 289 854 q 263 829 267 840 q 249 744 249 800 q 252 674 249 701 q 266 619 256 646 q 297 560 276 592 q 353 481 318 529 l 557 481 l 557 392 l 378 392 q 380 372 379 382 q 381 351 381 363 q 378 278 381 300 q 371 235 375 256 q 399 226 382 228 q 451 224 415 224 q 528 236 496 224 q 594 274 561 249 l 607 274 l 607 35 z "},"¤":{"ha":976,"x_min":47,"x_max":929,"o":"m 704 210 q 605 163 656 179 q 493 146 554 146 q 376 163 431 146 q 279 210 322 179 l 158 83 l 47 192 l 172 314 q 126 412 142 360 q 110 526 110 464 q 172 743 110 640 l 49 860 l 158 969 l 276 843 q 493 913 363 913 q 707 843 611 913 l 818 969 l 929 860 l 808 743 q 856 641 839 694 q 874 526 874 588 q 856 411 874 464 q 808 314 839 358 l 929 192 l 821 83 l 704 210 m 493 310 q 576 327 536 310 q 644 374 615 344 q 691 442 674 403 q 708 526 708 482 q 691 610 708 571 q 644 681 674 650 q 576 728 615 711 q 493 746 536 746 q 408 728 447 746 q 338 681 368 711 q 292 610 308 650 q 275 526 275 571 q 292 442 275 482 q 338 374 308 403 q 408 327 368 344 q 493 310 447 310 z "},"¥":{"ha":629,"x_min":10,"x_max":618,"o":"m 204 0 l 204 197 l 38 197 l 38 286 l 204 286 l 204 378 l 38 378 l 38 465 l 183 465 l 10 1044 l 10 1051 l 233 1051 l 308 731 l 324 731 l 400 1051 l 618 1051 l 618 1044 l 450 465 l 585 465 l 585 378 l 431 378 l 431 286 l 585 286 l 585 197 l 431 197 l 431 0 l 204 0 z "},"¦":{"ha":629,"x_min":233,"x_max":396,"o":"m 233 -331 l 233 269 l 396 269 l 396 -331 l 233 -331 m 233 749 l 233 1336 l 396 1336 l 396 749 l 233 749 z "},"§":{"ha":678,"x_min":33,"x_max":644,"o":"m 518 103 q 506 -33 518 21 q 466 -121 494 -87 q 389 -168 438 -154 q 267 -182 340 -182 q 90 -139 146 -182 q 35 14 35 -96 q 37 83 35 47 q 43 142 39 119 l 210 142 q 208 126 208 133 q 208 107 208 118 q 220 34 208 54 q 271 14 232 14 q 320 31 308 14 q 332 107 332 49 q 321 160 332 142 q 285 196 310 178 q 235 223 261 211 q 184 246 210 235 q 134 269 158 257 q 89 299 110 282 q 42 389 50 332 q 33 536 33 446 q 60 688 33 636 q 161 758 86 740 q 158 797 158 778 q 158 838 158 815 q 169 946 158 901 q 206 1018 179 990 q 278 1058 232 1046 q 396 1069 325 1069 q 506 1060 461 1069 q 579 1026 551 1050 q 619 964 607 1003 q 631 865 631 925 q 628 808 631 829 q 621 768 626 786 l 454 768 q 456 785 456 779 q 456 808 456 792 q 444 867 456 850 q 396 883 433 883 q 349 867 360 883 q 339 808 339 850 q 350 752 339 768 q 388 722 361 736 q 440 697 415 707 q 485 677 464 686 q 525 659 506 668 q 564 638 544 650 q 600 607 585 624 q 625 564 615 590 q 640 499 635 538 q 644 404 644 461 q 617 220 644 282 q 518 135 589 158 l 518 103 m 446 331 q 458 407 458 347 q 447 461 458 443 q 410 496 436 479 q 325 539 369 522 q 243 579 281 556 q 219 556 225 572 q 213 508 213 540 q 224 451 213 468 q 261 421 235 435 q 313 395 289 406 q 360 375 338 385 q 403 355 382 365 q 446 331 425 344 z "},"¨":{"ha":567,"x_min":47,"x_max":519,"o":"m 333 851 l 333 1022 l 519 1022 l 519 851 l 333 851 m 47 851 l 47 1022 l 235 1022 l 235 851 l 47 851 z "},"©":{"ha":875,"x_min":31,"x_max":844,"o":"m 104 68 q 71 120 85 92 q 48 197 57 149 q 35 324 39 246 q 31 526 31 403 q 35 728 31 650 q 48 854 39 806 q 71 931 57 903 q 104 983 85 958 q 151 1024 124 1007 q 217 1051 178 1040 q 311 1065 257 1061 q 436 1069 365 1069 q 563 1065 508 1069 q 656 1051 617 1061 q 724 1024 696 1040 q 771 983 751 1007 q 804 931 790 958 q 827 854 818 903 q 840 728 836 806 q 844 526 844 650 q 840 324 844 403 q 827 197 836 246 q 804 120 818 149 q 771 68 790 92 q 724 27 751 43 q 656 1 696 11 q 563 -14 617 -10 q 436 -18 508 -18 q 311 -14 365 -18 q 217 1 257 -10 q 151 27 178 11 q 104 68 124 43 m 675 143 q 697 179 688 158 q 713 241 707 200 q 721 349 718 282 q 724 526 724 417 q 721 702 724 635 q 713 809 718 769 q 697 869 707 849 q 675 906 688 890 q 601 940 656 929 q 436 950 547 950 q 271 940 325 950 q 197 906 217 929 q 176 870 185 890 q 163 810 168 850 q 154 703 157 771 q 151 526 151 636 q 154 349 151 417 q 163 240 157 281 q 176 178 168 199 q 197 143 185 158 q 269 111 215 119 q 436 103 324 103 q 603 111 550 103 q 675 143 657 119 m 578 471 q 580 445 579 457 q 581 421 581 433 q 576 347 581 378 q 556 294 571 315 q 514 264 542 274 q 442 254 486 254 q 360 264 389 254 q 318 297 332 274 q 306 325 311 310 q 298 367 301 340 q 293 434 294 393 q 292 538 292 475 q 293 640 292 600 q 298 703 294 679 q 306 742 301 728 q 318 769 311 757 q 360 803 332 794 q 438 813 388 813 q 511 803 483 813 q 554 776 539 794 q 574 727 569 757 q 579 654 579 697 q 578 631 579 643 q 578 606 578 619 l 472 606 q 472 665 472 649 q 468 689 471 681 q 438 701 464 701 q 410 689 414 701 q 407 676 408 683 q 405 652 406 668 q 404 610 404 636 q 404 539 404 583 q 404 467 404 494 q 405 424 404 440 q 407 401 406 408 q 410 388 408 393 q 419 377 413 381 q 442 374 425 374 q 467 386 461 374 q 473 419 472 401 q 474 471 474 436 l 578 471 z "},"ª":{"ha":381,"x_min":31,"x_max":363,"o":"m 363 560 q 344 540 358 549 q 308 532 331 532 q 267 539 283 532 q 240 557 251 546 q 209 539 229 546 q 154 532 189 532 q 91 538 115 532 q 53 561 67 544 q 35 606 40 578 q 31 681 31 635 q 39 749 31 722 q 65 792 47 776 q 110 813 82 807 q 176 818 138 818 q 204 814 193 818 l 207 817 l 207 842 q 203 872 207 865 q 185 879 200 879 q 163 874 167 879 q 158 854 158 869 q 160 843 158 847 l 44 843 q 43 855 43 850 q 43 865 43 860 q 49 920 43 897 q 72 958 56 943 q 115 979 88 972 q 185 986 143 986 q 264 976 235 986 q 307 947 293 965 q 324 902 321 928 q 328 847 328 876 l 328 658 q 340 635 328 635 q 352 636 347 635 q 363 639 357 638 l 363 560 m 207 736 l 197 736 q 158 727 168 736 q 149 686 149 718 q 154 652 149 658 q 185 646 160 646 q 207 650 199 646 l 207 736 z "},"«":{"ha":647,"x_min":28,"x_max":618,"o":"m 28 253 m 308 253 l 28 457 l 28 600 l 308 808 l 315 808 l 315 636 l 172 536 l 172 521 l 315 424 l 315 253 l 308 253 m 611 253 l 331 457 l 331 600 l 611 808 l 618 808 l 618 636 l 475 536 l 475 521 l 618 424 l 618 253 l 611 253 z "},"¬":{"ha":629,"x_min":21,"x_max":608,"o":"m 447 0 l 447 446 l 21 446 l 21 608 l 608 608 l 608 0 l 447 0 z "},"®":{"ha":875,"x_min":31,"x_max":844,"o":"m 104 68 q 71 120 85 92 q 48 197 57 149 q 35 324 39 246 q 31 526 31 403 q 35 728 31 650 q 48 854 39 806 q 71 931 57 903 q 104 983 85 958 q 151 1024 124 1007 q 217 1051 178 1040 q 311 1065 257 1061 q 436 1069 365 1069 q 563 1065 508 1069 q 656 1051 617 1061 q 724 1024 696 1040 q 771 983 751 1007 q 804 931 790 958 q 827 854 818 903 q 840 728 836 806 q 844 526 844 650 q 840 324 844 403 q 827 197 836 246 q 804 120 818 149 q 771 68 790 92 q 724 27 751 43 q 656 1 696 11 q 563 -14 617 -10 q 436 -18 508 -18 q 311 -14 365 -18 q 217 1 257 -10 q 151 27 178 11 q 104 68 124 43 m 675 143 q 697 179 688 158 q 713 241 707 200 q 721 349 718 282 q 724 526 724 417 q 721 702 724 635 q 713 809 718 769 q 697 869 707 849 q 675 906 688 890 q 601 940 656 929 q 436 950 547 950 q 271 940 325 950 q 197 906 217 929 q 176 870 185 890 q 163 810 168 850 q 154 703 157 771 q 151 526 151 636 q 154 349 151 417 q 163 240 157 281 q 176 178 168 199 q 197 143 185 158 q 269 111 215 119 q 436 103 324 103 q 603 111 550 103 q 675 143 657 119 m 476 263 q 472 276 474 269 q 467 299 469 283 q 460 342 464 315 q 453 417 457 369 q 444 463 449 453 q 428 474 439 474 l 411 474 l 411 263 l 299 263 l 299 804 l 463 804 q 559 770 535 804 q 583 658 583 736 q 581 597 583 621 q 572 559 578 574 q 558 537 567 544 q 538 524 549 529 l 538 510 q 547 502 542 507 q 556 488 551 497 q 567 451 561 474 q 578 382 572 429 q 585 329 582 349 q 589 298 588 310 q 592 280 590 286 q 594 268 593 274 l 594 263 l 476 263 m 443 574 q 465 587 458 574 q 471 639 471 600 q 464 681 471 671 q 440 692 457 692 l 411 692 l 411 574 l 443 574 z "},"¯":{"ha":650,"x_min":47,"x_max":603,"o":"m 47 869 l 47 1017 l 603 1017 l 603 869 l 47 869 z "},"°":{"ha":464,"x_min":33,"x_max":431,"o":"m 396 1057 q 411 1033 404 1046 q 422 1000 418 1021 q 428 945 426 979 q 431 857 431 911 q 428 768 431 803 q 422 712 426 733 q 411 678 418 690 q 396 656 404 665 q 339 626 376 633 q 231 618 301 618 q 124 626 160 618 q 68 656 88 633 q 53 678 60 665 q 42 712 46 690 q 35 768 38 733 q 33 857 33 803 q 35 945 33 911 q 42 1000 38 979 q 52 1033 46 1021 q 68 1057 58 1046 q 124 1085 88 1076 q 231 1094 161 1094 q 339 1085 301 1094 q 396 1057 376 1076 m 151 740 q 176 733 160 735 q 231 731 193 731 q 288 733 271 731 q 311 740 304 735 q 321 751 317 744 q 327 769 325 757 q 330 803 329 782 q 331 860 331 825 q 330 916 331 894 q 327 950 329 938 q 321 969 325 963 q 311 979 317 975 q 288 988 304 986 q 231 990 271 990 q 176 988 193 990 q 151 979 160 986 q 142 969 146 975 q 137 950 139 963 q 134 916 135 938 q 133 860 133 894 q 134 803 133 825 q 137 769 135 782 q 142 751 139 757 q 151 740 146 744 z "},"±":{"ha":629,"x_min":21,"x_max":608,"o":"m 21 0 m 233 233 l 233 446 l 21 446 l 21 608 l 233 608 l 233 821 l 396 821 l 396 608 l 608 608 l 608 446 l 396 446 l 396 233 l 233 233 m 21 -82 l 21 81 l 608 81 l 608 -82 l 21 -82 z "},"²":{"ha":388,"x_min":32,"x_max":350,"o":"m 32 483 m 43 483 l 43 625 l 139 719 q 170 749 158 738 q 189 769 182 761 q 199 783 196 778 q 207 797 203 789 q 215 827 214 813 q 217 882 217 842 q 215 915 217 903 q 211 933 214 926 q 204 940 208 938 q 189 943 200 943 q 164 933 168 943 q 160 917 161 928 q 160 878 160 906 q 160 853 160 863 q 163 836 160 844 l 35 836 q 32 867 32 854 q 32 901 32 879 q 38 982 32 949 q 60 1036 43 1015 q 108 1067 78 1057 q 189 1076 139 1076 q 267 1068 236 1076 q 316 1038 297 1060 q 342 979 335 1017 q 350 883 350 942 q 349 842 350 858 q 347 813 349 825 q 343 790 346 800 q 335 767 340 779 q 311 726 325 746 q 265 676 297 707 l 207 621 l 346 621 l 346 483 l 43 483 z "},"³":{"ha":388,"x_min":31,"x_max":354,"o":"m 31 474 m 122 728 l 122 833 l 190 833 q 215 842 210 833 q 219 894 219 851 q 215 938 219 931 q 190 946 210 946 q 165 938 169 946 q 160 892 160 931 q 160 880 160 885 q 161 868 160 875 l 35 868 q 33 884 33 876 q 33 900 33 892 q 40 981 33 947 q 63 1036 46 1015 q 111 1067 81 1057 q 190 1076 142 1076 q 269 1071 239 1076 q 317 1047 300 1065 q 341 997 335 1029 q 347 911 347 965 q 339 826 347 853 q 311 783 331 800 q 329 769 321 776 q 343 748 338 763 q 351 709 349 733 q 354 644 354 685 q 349 563 354 596 q 326 511 343 531 q 277 483 310 492 q 190 474 244 474 q 106 485 138 474 q 58 519 75 496 q 36 576 42 542 q 31 657 31 610 q 31 674 31 664 q 33 696 32 683 l 160 696 q 158 683 158 689 q 158 669 158 676 q 159 644 158 653 q 163 628 160 636 q 171 618 165 621 q 190 615 176 615 q 218 624 210 615 q 226 661 226 633 q 226 698 226 685 q 221 718 225 711 q 210 726 217 725 q 190 728 203 728 l 122 728 z "},"´":{"ha":417,"x_min":47,"x_max":369,"o":"m 47 822 l 47 829 l 174 1063 l 369 1063 l 369 1054 l 210 822 l 47 822 z "},"¶":{"ha":804,"x_min":21,"x_max":757,"o":"m 582 -142 l 582 878 l 467 878 l 467 -142 l 292 -142 l 292 469 l 211 469 q 118 485 154 469 q 60 535 82 500 q 29 626 38 569 q 21 765 21 683 q 29 901 21 846 q 60 989 38 956 q 118 1037 82 1022 q 211 1051 154 1051 l 757 1051 l 757 -142 l 582 -142 z "},"·":{"ha":313,"x_min":47,"x_max":265,"o":"m 47 410 m 47 410 l 47 619 l 265 619 l 265 410 l 47 410 z "},"¸":{"ha":363,"x_min":47,"x_max":315,"o":"m 47 -331 l 47 -324 l 126 -57 l 315 -57 l 315 -65 l 204 -331 l 47 -331 z "},"¹":{"ha":388,"x_min":43,"x_max":340,"o":"m 43 483 m 44 483 l 44 625 l 126 625 l 126 856 l 43 856 l 43 975 l 101 975 q 127 978 118 975 q 142 991 136 982 q 149 1018 147 1000 q 150 1065 150 1036 l 264 1065 l 264 625 l 340 625 l 340 483 l 44 483 z "},"º":{"ha":365,"x_min":31,"x_max":331,"o":"m 304 569 q 260 540 289 549 q 181 532 232 532 q 101 540 129 532 q 58 569 72 549 q 46 592 51 579 q 37 625 40 604 q 32 678 33 646 q 31 760 31 710 q 32 841 31 810 q 37 893 33 872 q 46 926 40 914 q 58 949 51 938 q 101 978 72 969 q 181 986 129 986 q 260 978 232 986 q 304 949 289 969 q 316 926 311 938 q 324 893 321 914 q 329 841 328 872 q 331 760 331 810 q 329 678 331 710 q 324 625 328 646 q 316 592 321 604 q 304 569 311 579 m 200 649 q 204 676 203 654 q 206 760 206 699 q 206 810 206 790 q 205 842 206 831 q 203 860 204 854 q 200 869 201 867 q 195 874 199 872 q 181 875 192 875 q 161 869 164 875 q 158 860 160 867 q 156 842 157 854 q 156 810 156 831 q 156 760 156 790 q 157 676 156 699 q 161 649 158 654 q 181 643 164 643 q 195 644 192 643 q 200 649 199 646 z "},"»":{"ha":647,"x_min":28,"x_max":618,"o":"m 28 253 m 35 253 l 28 253 l 28 424 l 171 521 l 171 536 l 28 636 l 28 808 l 35 808 l 315 600 l 315 457 l 35 253 m 338 253 l 331 253 l 331 424 l 474 521 l 474 536 l 331 636 l 331 808 l 338 808 l 618 600 l 618 457 l 338 253 z "},"¼":{"ha":860,"x_min":19,"x_max":840,"o":"m 19 0 m 21 483 l 21 625 l 103 625 l 103 856 l 19 856 l 19 975 l 78 975 q 103 978 94 975 q 118 991 113 982 q 125 1018 124 1000 q 126 1065 126 1036 l 240 1065 l 240 625 l 317 625 l 317 483 l 21 483 m 68 0 l 68 7 l 669 1051 l 804 1051 l 804 1044 l 201 0 l 68 0 m 672 -14 l 672 82 l 504 82 l 504 200 l 674 568 l 799 568 l 799 201 l 840 201 l 840 82 l 799 82 l 799 -14 l 672 -14 m 676 322 l 671 322 l 618 201 l 676 201 l 676 322 z "},"½":{"ha":860,"x_min":18,"x_max":840,"o":"m 18 0 m 19 483 l 19 625 l 101 625 l 101 856 l 18 856 l 18 975 l 76 975 q 102 978 93 975 q 117 991 111 982 q 124 1018 122 1000 q 125 1065 125 1036 l 239 1065 l 239 625 l 315 625 l 315 483 l 19 483 m 67 0 l 67 7 l 668 1051 l 803 1051 l 803 1044 l 200 0 l 67 0 m 533 -14 l 533 128 l 629 222 q 660 252 649 240 q 679 272 672 264 q 690 286 686 281 q 697 300 693 292 q 706 330 704 315 q 707 385 707 344 q 706 417 707 406 q 701 436 704 429 q 694 443 699 440 q 679 446 690 446 q 654 436 658 446 q 651 419 651 431 q 650 381 650 408 q 650 356 650 365 q 653 339 650 347 l 525 339 q 522 369 522 357 q 522 404 522 382 q 528 485 522 451 q 551 539 533 518 q 599 569 568 560 q 679 579 629 579 q 757 571 726 579 q 806 541 788 563 q 833 482 825 519 q 840 386 840 444 q 840 344 840 361 q 838 315 839 328 q 833 292 836 303 q 825 269 831 282 q 801 229 815 249 q 756 179 788 210 l 697 124 l 836 124 l 836 -14 l 533 -14 z "},"¾":{"ha":860,"x_min":25,"x_max":833,"o":"m 25 0 m 117 728 l 117 833 l 185 833 q 209 842 204 833 q 214 894 214 851 q 209 938 214 931 q 185 946 204 946 q 159 938 164 946 q 154 892 154 931 q 154 880 154 885 q 156 868 154 875 l 29 868 q 28 884 28 876 q 28 900 28 892 q 34 981 28 947 q 58 1036 40 1015 q 106 1067 75 1057 q 185 1076 136 1076 q 264 1071 233 1076 q 312 1047 294 1065 q 335 997 329 1029 q 342 911 342 965 q 333 826 342 853 q 306 783 325 800 q 324 769 315 776 q 338 748 332 763 q 346 709 343 733 q 349 644 349 685 q 343 563 349 596 q 321 511 338 531 q 272 483 304 492 q 185 474 239 474 q 101 485 132 474 q 53 519 69 496 q 31 576 36 542 q 25 657 25 610 q 26 674 25 664 q 28 696 26 683 l 154 696 q 153 683 153 689 q 153 669 153 676 q 153 644 153 653 q 157 628 154 636 q 165 618 160 621 q 185 615 171 615 q 213 624 204 615 q 221 661 221 633 q 220 698 221 685 q 215 718 219 711 q 204 726 211 725 q 185 728 197 728 l 117 728 m 86 0 l 86 7 l 688 1051 l 822 1051 l 822 1044 l 219 0 l 86 0 m 665 -14 l 665 82 l 497 82 l 497 200 l 667 568 l 792 568 l 792 201 l 833 201 l 833 82 l 792 82 l 792 -14 l 665 -14 m 669 322 l 664 322 l 611 201 l 669 201 l 669 322 z "},"¿":{"ha":578,"x_min":29,"x_max":543,"o":"m 533 53 q 541 8 539 33 q 543 -60 543 -17 q 530 -171 543 -126 q 487 -242 517 -215 q 408 -281 457 -269 q 289 -292 360 -292 q 161 -278 211 -292 q 82 -233 111 -264 q 41 -151 53 -201 q 29 -26 29 -100 q 31 67 29 29 q 40 133 33 106 q 56 179 46 160 q 82 218 65 199 q 131 261 107 246 q 175 297 156 276 q 187 313 182 304 q 194 338 192 321 q 198 385 197 356 q 199 463 199 414 l 386 463 q 389 401 389 439 q 389 318 389 363 q 383 268 389 290 q 366 226 378 246 q 335 189 354 207 q 290 150 317 171 q 254 120 267 132 q 235 94 242 108 q 228 60 229 81 q 226 7 226 40 q 238 -60 226 -42 q 289 -79 249 -79 q 341 -60 329 -79 q 353 7 353 -42 q 353 34 353 26 q 351 53 353 42 l 533 53 m 185 568 l 185 778 l 403 778 l 403 568 l 185 568 z "},"À":{"ha":618,"x_min":17,"x_max":601,"o":"m 17 0 m 376 0 l 358 243 l 253 243 l 236 0 l 17 0 l 129 1051 l 496 1051 l 601 0 l 376 0 m 313 832 l 297 832 l 263 456 l 349 456 l 313 832 m 238 1096 l 78 1328 l 78 1336 l 274 1336 l 400 1103 l 400 1096 l 238 1096 z "},"Á":{"ha":618,"x_min":17,"x_max":601,"o":"m 17 0 m 376 0 l 358 243 l 253 243 l 236 0 l 17 0 l 129 1051 l 496 1051 l 601 0 l 376 0 m 313 832 l 297 832 l 263 456 l 349 456 l 313 832 m 214 1096 l 214 1103 l 340 1336 l 536 1336 l 536 1328 l 376 1096 l 214 1096 z "},"Â":{"ha":618,"x_min":17,"x_max":601,"o":"m 17 0 m 376 0 l 358 243 l 253 243 l 236 0 l 17 0 l 129 1051 l 496 1051 l 601 0 l 376 0 m 313 832 l 297 832 l 263 456 l 349 456 l 313 832 m 378 1096 l 313 1192 l 297 1192 l 232 1096 l 61 1096 l 61 1103 l 233 1336 l 376 1336 l 550 1103 l 550 1096 l 378 1096 z "},"Ã":{"ha":618,"x_min":17,"x_max":601,"o":"m 17 0 m 376 0 l 358 243 l 253 243 l 236 0 l 17 0 l 129 1051 l 496 1051 l 601 0 l 376 0 m 313 832 l 297 832 l 263 456 l 349 456 l 313 832 m 588 1189 q 519 1124 556 1144 q 432 1104 482 1104 q 363 1114 396 1104 q 299 1135 331 1124 q 238 1157 268 1147 q 178 1167 207 1167 q 103 1148 135 1167 q 39 1086 71 1129 l 32 1086 l 32 1239 q 87 1295 53 1271 q 171 1319 121 1319 q 249 1310 213 1319 q 317 1288 285 1300 q 380 1267 350 1276 q 438 1257 410 1257 q 515 1274 481 1257 q 581 1336 549 1292 l 588 1336 l 588 1189 z "},"Ä":{"ha":618,"x_min":17,"x_max":601,"o":"m 17 0 m 376 0 l 358 243 l 253 243 l 236 0 l 17 0 l 129 1051 l 496 1051 l 601 0 l 376 0 m 313 832 l 297 832 l 263 456 l 349 456 l 313 832 m 358 1125 l 358 1296 l 544 1296 l 544 1125 l 358 1125 m 72 1125 l 72 1296 l 260 1296 l 260 1125 l 72 1125 z "},"Å":{"ha":618,"x_min":17,"x_max":601,"o":"m 17 0 m 376 0 l 358 243 l 253 243 l 236 0 l 17 0 l 129 1051 l 496 1051 l 601 0 l 376 0 m 313 832 l 297 832 l 263 456 l 349 456 l 313 832 m 426 1097 q 385 1081 413 1085 q 307 1076 357 1076 q 227 1081 254 1076 q 186 1097 200 1085 q 174 1109 179 1103 q 167 1127 169 1115 q 163 1157 164 1139 q 161 1206 161 1175 q 163 1255 161 1236 q 167 1285 164 1274 q 174 1303 169 1296 q 186 1315 179 1310 q 228 1331 200 1326 q 307 1336 256 1336 q 385 1331 357 1336 q 426 1315 413 1326 q 438 1303 433 1310 q 447 1285 443 1296 q 451 1255 450 1274 q 453 1206 453 1236 q 451 1157 453 1175 q 447 1127 450 1139 q 438 1109 443 1115 q 426 1097 433 1103 m 349 1165 q 356 1175 354 1168 q 358 1207 358 1182 q 356 1242 358 1235 q 349 1253 354 1249 q 337 1257 346 1256 q 307 1258 328 1258 q 276 1257 285 1258 q 263 1253 268 1256 q 256 1242 257 1250 q 254 1207 254 1235 q 256 1175 254 1182 q 263 1165 257 1168 q 276 1161 268 1163 q 307 1160 285 1160 q 336 1161 328 1160 q 349 1165 344 1163 z "},"Æ":{"ha":867,"x_min":17,"x_max":826,"o":"m 360 0 l 360 243 l 253 243 l 236 0 l 17 0 l 129 1051 l 826 1051 l 826 829 l 578 829 l 578 644 l 822 644 l 822 432 l 578 432 l 578 233 l 825 233 l 825 0 l 360 0 m 360 832 l 297 832 l 263 456 l 360 456 l 360 832 z "},"Ç":{"ha":628,"x_min":31,"x_max":593,"o":"m 31 0 m 589 403 q 593 308 593 353 q 584 163 593 225 q 546 61 575 101 q 463 1 517 21 q 322 -18 410 -18 q 163 1 218 -18 q 82 68 108 19 q 58 121 68 90 q 42 203 49 151 q 33 333 36 254 q 31 535 31 413 q 33 733 31 657 q 42 858 36 810 q 58 935 49 907 q 82 986 68 963 q 163 1051 110 1033 q 315 1069 215 1069 q 458 1053 404 1069 q 542 999 513 1036 q 581 902 571 961 q 590 760 590 843 q 590 717 590 740 q 588 667 589 693 l 383 667 q 383 736 383 708 q 381 782 382 764 q 377 810 379 800 q 374 828 375 821 q 315 854 368 854 q 277 848 289 854 q 261 828 265 842 q 255 802 257 817 q 251 758 253 788 q 248 675 249 728 q 247 538 247 622 q 248 397 247 450 q 251 314 249 344 q 255 268 253 283 q 261 242 257 253 q 278 222 265 228 q 322 217 290 217 q 372 240 364 217 q 381 269 378 254 q 385 303 383 285 q 387 347 386 322 q 388 403 388 371 l 589 403 m 135 -331 l 135 -324 l 214 -57 l 403 -57 l 403 -65 l 292 -331 l 135 -331 z "},"È":{"ha":553,"x_min":47,"x_max":513,"o":"m 47 0 m 47 0 l 47 1051 l 513 1051 l 513 829 l 265 829 l 265 644 l 508 644 l 508 432 l 265 432 l 265 233 l 511 233 l 511 0 l 47 0 m 213 1096 l 53 1328 l 53 1336 l 249 1336 l 375 1103 l 375 1096 l 213 1096 z "},"É":{"ha":553,"x_min":47,"x_max":515,"o":"m 47 0 m 47 0 l 47 1051 l 513 1051 l 513 829 l 265 829 l 265 644 l 508 644 l 508 432 l 265 432 l 265 233 l 511 233 l 511 0 l 47 0 m 193 1096 l 193 1103 l 319 1336 l 515 1336 l 515 1328 l 356 1096 l 193 1096 z "},"Ê":{"ha":553,"x_min":38,"x_max":526,"o":"m 38 0 m 47 0 l 47 1051 l 513 1051 l 513 829 l 265 829 l 265 644 l 508 644 l 508 432 l 265 432 l 265 233 l 511 233 l 511 0 l 47 0 m 354 1096 l 289 1192 l 274 1192 l 208 1096 l 38 1096 l 38 1103 l 210 1336 l 353 1336 l 526 1103 l 526 1096 l 354 1096 z "},"Ë":{"ha":553,"x_min":46,"x_max":518,"o":"m 46 0 m 47 0 l 47 1051 l 513 1051 l 513 829 l 265 829 l 265 644 l 508 644 l 508 432 l 265 432 l 265 233 l 511 233 l 511 0 l 47 0 m 332 1125 l 332 1296 l 518 1296 l 518 1125 l 332 1125 m 46 1125 l 46 1296 l 233 1296 l 233 1125 l 46 1125 z "},"Ì":{"ha":324,"x_min":-68,"x_max":274,"o":"m 0 0 m 50 0 l 50 1051 l 274 1051 l 274 0 l 50 0 m 92 1096 l -68 1328 l -68 1336 l 128 1336 l 254 1103 l 254 1096 l 92 1096 z "},"Í":{"ha":324,"x_min":50,"x_max":392,"o":"m 50 0 m 50 0 l 50 1051 l 274 1051 l 274 0 l 50 0 m 69 1096 l 69 1103 l 196 1336 l 392 1336 l 392 1328 l 232 1096 l 69 1096 z "},"Î":{"ha":324,"x_min":-82,"x_max":407,"o":"m 0 0 m 50 0 l 50 1051 l 274 1051 l 274 0 l 50 0 m 235 1096 l 169 1192 l 154 1192 l 89 1096 l -82 1096 l -82 1103 l 90 1336 l 233 1336 l 407 1103 l 407 1096 l 235 1096 z "},"Ï":{"ha":324,"x_min":-74,"x_max":399,"o":"m 0 0 m 50 0 l 50 1051 l 274 1051 l 274 0 l 50 0 m 213 1125 l 213 1296 l 399 1296 l 399 1125 l 213 1125 m -74 1125 l -74 1296 l 114 1296 l 114 1125 l -74 1125 z "},"Ð":{"ha":654,"x_min":0,"x_max":624,"o":"m 47 0 l 47 432 l 0 432 l 0 644 l 47 644 l 47 1051 l 340 1051 q 493 1033 440 1051 q 574 968 546 1014 q 597 917 588 944 q 612 843 606 890 q 621 721 618 796 q 624 526 624 646 q 621 331 624 407 q 612 208 618 256 q 597 133 606 161 q 574 83 588 106 q 540 44 560 60 q 493 18 521 28 q 428 4 465 8 q 340 0 390 0 l 47 0 m 339 232 q 376 238 365 232 q 393 257 388 243 q 399 280 396 267 q 403 322 401 293 q 405 401 404 351 q 406 531 406 450 q 405 662 406 611 q 403 742 404 713 q 399 785 401 771 q 393 808 396 799 q 376 825 388 819 q 339 831 365 831 l 254 831 l 254 644 l 350 644 l 350 432 l 254 432 l 254 232 l 339 232 z "},"Ñ":{"ha":660,"x_min":46,"x_max":615,"o":"m 46 0 m 501 0 l 253 564 l 244 564 l 244 0 l 46 0 l 46 1051 l 260 1051 l 407 686 l 415 686 l 415 1051 l 615 1051 l 615 0 l 501 0 m 607 1189 q 538 1124 575 1144 q 451 1104 501 1104 q 383 1114 415 1104 q 319 1135 350 1124 q 257 1157 288 1147 q 197 1167 226 1167 q 122 1148 154 1167 q 58 1086 90 1129 l 51 1086 l 51 1239 q 106 1295 72 1271 q 190 1319 140 1319 q 268 1310 232 1319 q 337 1288 304 1300 q 399 1267 369 1276 q 457 1257 429 1257 q 534 1274 500 1257 q 600 1336 568 1292 l 607 1336 l 607 1189 z "},"Ò":{"ha":629,"x_min":31,"x_max":599,"o":"m 31 0 m 547 68 q 515 27 533 43 q 468 1 496 11 q 403 -14 440 -10 q 315 -18 365 -18 q 162 1 214 -18 q 82 68 110 19 q 58 120 68 92 q 42 197 49 149 q 33 324 36 246 q 31 526 31 403 q 33 728 31 650 q 42 854 36 806 q 58 931 49 903 q 82 983 68 958 q 115 1024 96 1007 q 161 1051 133 1040 q 227 1065 189 1061 q 315 1069 265 1069 q 467 1050 415 1069 q 547 983 519 1031 q 571 931 561 958 q 587 854 581 903 q 596 728 593 806 q 599 526 599 650 q 596 324 599 403 q 587 197 593 246 q 571 120 581 149 q 547 68 561 92 m 369 242 q 375 267 372 251 q 379 313 378 282 q 381 395 381 343 q 382 532 382 447 q 381 672 382 619 q 379 756 381 725 q 375 803 378 788 q 369 828 372 818 q 353 848 364 842 q 315 854 342 854 q 277 848 289 854 q 261 828 265 842 q 255 803 257 818 q 251 756 253 788 q 248 672 249 725 q 247 532 247 619 q 248 395 247 447 q 251 313 249 343 q 255 267 253 282 q 261 242 257 251 q 277 222 265 228 q 315 217 289 217 q 353 222 342 217 q 369 242 364 228 m 243 1096 l 83 1328 l 83 1336 l 279 1336 l 406 1103 l 406 1096 l 243 1096 z "},"Ó":{"ha":629,"x_min":31,"x_max":599,"o":"m 31 0 m 547 68 q 515 27 533 43 q 468 1 496 11 q 403 -14 440 -10 q 315 -18 365 -18 q 162 1 214 -18 q 82 68 110 19 q 58 120 68 92 q 42 197 49 149 q 33 324 36 246 q 31 526 31 403 q 33 728 31 650 q 42 854 36 806 q 58 931 49 903 q 82 983 68 958 q 115 1024 96 1007 q 161 1051 133 1040 q 227 1065 189 1061 q 315 1069 265 1069 q 467 1050 415 1069 q 547 983 519 1031 q 571 931 561 958 q 587 854 581 903 q 596 728 593 806 q 599 526 599 650 q 596 324 599 403 q 587 197 593 246 q 571 120 581 149 q 547 68 561 92 m 369 242 q 375 267 372 251 q 379 313 378 282 q 381 395 381 343 q 382 532 382 447 q 381 672 382 619 q 379 756 381 725 q 375 803 378 788 q 369 828 372 818 q 353 848 364 842 q 315 854 342 854 q 277 848 289 854 q 261 828 265 842 q 255 803 257 818 q 251 756 253 788 q 248 672 249 725 q 247 532 247 619 q 248 395 247 447 q 251 313 249 343 q 255 267 253 282 q 261 242 257 251 q 277 222 265 228 q 315 217 289 217 q 353 222 342 217 q 369 242 364 228 m 222 1096 l 222 1103 l 349 1336 l 544 1336 l 544 1328 l 385 1096 l 222 1096 z "},"Ô":{"ha":629,"x_min":31,"x_max":599,"o":"m 31 0 m 547 68 q 515 27 533 43 q 468 1 496 11 q 403 -14 440 -10 q 315 -18 365 -18 q 162 1 214 -18 q 82 68 110 19 q 58 120 68 92 q 42 197 49 149 q 33 324 36 246 q 31 526 31 403 q 33 728 31 650 q 42 854 36 806 q 58 931 49 903 q 82 983 68 958 q 115 1024 96 1007 q 161 1051 133 1040 q 227 1065 189 1061 q 315 1069 265 1069 q 467 1050 415 1069 q 547 983 519 1031 q 571 931 561 958 q 587 854 581 903 q 596 728 593 806 q 599 526 599 650 q 596 324 599 403 q 587 197 593 246 q 571 120 581 149 q 547 68 561 92 m 369 242 q 375 267 372 251 q 379 313 378 282 q 381 395 381 343 q 382 532 382 447 q 381 672 382 619 q 379 756 381 725 q 375 803 378 788 q 369 828 372 818 q 353 848 364 842 q 315 854 342 854 q 277 848 289 854 q 261 828 265 842 q 255 803 257 818 q 251 756 253 788 q 248 672 249 725 q 247 532 247 619 q 248 395 247 447 q 251 313 249 343 q 255 267 253 282 q 261 242 257 251 q 277 222 265 228 q 315 217 289 217 q 353 222 342 217 q 369 242 364 228 m 386 1096 l 321 1192 l 306 1192 l 240 1096 l 69 1096 l 69 1103 l 242 1336 l 385 1336 l 558 1103 l 558 1096 l 386 1096 z "},"Õ":{"ha":629,"x_min":31,"x_max":599,"o":"m 31 0 m 547 68 q 515 27 533 43 q 468 1 496 11 q 403 -14 440 -10 q 315 -18 365 -18 q 162 1 214 -18 q 82 68 110 19 q 58 120 68 92 q 42 197 49 149 q 33 324 36 246 q 31 526 31 403 q 33 728 31 650 q 42 854 36 806 q 58 931 49 903 q 82 983 68 958 q 115 1024 96 1007 q 161 1051 133 1040 q 227 1065 189 1061 q 315 1069 265 1069 q 467 1050 415 1069 q 547 983 519 1031 q 571 931 561 958 q 587 854 581 903 q 596 728 593 806 q 599 526 599 650 q 596 324 599 403 q 587 197 593 246 q 571 120 581 149 q 547 68 561 92 m 369 242 q 375 267 372 251 q 379 313 378 282 q 381 395 381 343 q 382 532 382 447 q 381 672 382 619 q 379 756 381 725 q 375 803 378 788 q 369 828 372 818 q 353 848 364 842 q 315 854 342 854 q 277 848 289 854 q 261 828 265 842 q 255 803 257 818 q 251 756 253 788 q 248 672 249 725 q 247 532 247 619 q 248 395 247 447 q 251 313 249 343 q 255 267 253 282 q 261 242 257 251 q 277 222 265 228 q 315 217 289 217 q 353 222 342 217 q 369 242 364 228 m 593 1189 q 524 1124 561 1144 q 438 1104 488 1104 q 369 1114 401 1104 q 305 1135 336 1124 q 243 1157 274 1147 q 183 1167 213 1167 q 108 1148 140 1167 q 44 1086 76 1129 l 38 1086 l 38 1239 q 92 1295 58 1271 q 176 1319 126 1319 q 254 1310 218 1319 q 323 1288 290 1300 q 385 1267 356 1276 q 443 1257 415 1257 q 520 1274 486 1257 q 586 1336 554 1292 l 593 1336 l 593 1189 z "},"Ö":{"ha":629,"x_min":31,"x_max":599,"o":"m 31 0 m 547 68 q 515 27 533 43 q 468 1 496 11 q 403 -14 440 -10 q 315 -18 365 -18 q 162 1 214 -18 q 82 68 110 19 q 58 120 68 92 q 42 197 49 149 q 33 324 36 246 q 31 526 31 403 q 33 728 31 650 q 42 854 36 806 q 58 931 49 903 q 82 983 68 958 q 115 1024 96 1007 q 161 1051 133 1040 q 227 1065 189 1061 q 315 1069 265 1069 q 467 1050 415 1069 q 547 983 519 1031 q 571 931 561 958 q 587 854 581 903 q 596 728 593 806 q 599 526 599 650 q 596 324 599 403 q 587 197 593 246 q 571 120 581 149 q 547 68 561 92 m 369 242 q 375 267 372 251 q 379 313 378 282 q 381 395 381 343 q 382 532 382 447 q 381 672 382 619 q 379 756 381 725 q 375 803 378 788 q 369 828 372 818 q 353 848 364 842 q 315 854 342 854 q 277 848 289 854 q 261 828 265 842 q 255 803 257 818 q 251 756 253 788 q 248 672 249 725 q 247 532 247 619 q 248 395 247 447 q 251 313 249 343 q 255 267 253 282 q 261 242 257 251 q 277 222 265 228 q 315 217 289 217 q 353 222 342 217 q 369 242 364 228 m 364 1125 l 364 1296 l 550 1296 l 550 1125 l 364 1125 m 78 1125 l 78 1296 l 265 1296 l 265 1125 l 78 1125 z "},"×":{"ha":629,"x_min":38,"x_max":592,"o":"m 475 251 l 314 411 l 153 251 l 38 365 l 199 528 l 39 686 l 154 803 l 314 642 l 474 803 l 589 686 l 429 528 l 592 365 l 475 251 z "},"Ø":{"ha":629,"x_min":31,"x_max":599,"o":"m 43 -181 l 107 33 q 94 49 100 40 q 82 68 88 57 q 58 120 68 92 q 42 197 49 149 q 33 324 36 246 q 31 526 31 403 q 33 728 31 650 q 42 854 36 806 q 58 931 49 903 q 82 983 68 958 q 115 1024 96 1007 q 161 1051 133 1040 q 227 1065 189 1061 q 315 1069 265 1069 q 375 1067 347 1069 q 426 1063 403 1065 l 464 1185 l 565 1185 l 515 1022 q 547 983 533 1006 q 571 931 561 958 q 587 854 581 903 q 596 728 593 806 q 599 526 599 650 q 596 324 599 403 q 587 197 593 246 q 571 120 581 149 q 547 68 561 92 q 515 27 533 43 q 468 1 496 11 q 403 -14 440 -10 q 315 -18 365 -18 q 197 -8 242 -18 l 144 -181 l 43 -181 m 397 647 l 265 214 q 315 207 281 207 q 363 213 347 207 q 383 233 378 219 q 390 258 388 243 q 395 296 393 272 q 398 357 397 319 q 399 451 399 394 q 399 528 399 497 q 399 581 399 560 q 401 618 400 603 q 404 647 403 633 l 397 647 m 361 857 q 342 861 354 860 q 315 863 331 863 q 267 857 282 863 q 246 838 251 851 q 238 813 242 826 q 233 776 235 799 q 230 717 231 753 q 229 631 229 682 q 229 547 229 581 q 228 491 229 514 q 226 453 228 468 q 224 425 225 439 l 231 425 l 361 857 z "},"Ù":{"ha":642,"x_min":38,"x_max":604,"o":"m 38 0 m 388 1051 l 604 1051 l 604 324 q 599 215 603 258 q 588 143 594 172 q 574 95 582 114 q 554 58 565 76 q 522 22 540 36 q 475 -2 503 7 q 410 -15 447 -11 q 322 -18 372 -18 q 168 -2 221 -18 q 89 58 115 14 q 68 95 78 76 q 51 143 58 114 q 41 215 44 172 q 38 324 38 258 l 38 1051 l 261 1051 l 261 324 q 263 265 261 286 q 272 233 265 244 q 292 219 279 222 q 325 217 304 217 q 358 219 346 217 q 376 233 369 222 q 385 265 383 244 q 388 324 388 286 l 388 1051 m 251 1096 l 92 1328 l 92 1336 l 288 1336 l 414 1103 l 414 1096 l 251 1096 z "},"Ú":{"ha":642,"x_min":38,"x_max":604,"o":"m 38 0 m 388 1051 l 604 1051 l 604 324 q 599 215 603 258 q 588 143 594 172 q 574 95 582 114 q 554 58 565 76 q 522 22 540 36 q 475 -2 503 7 q 410 -15 447 -11 q 322 -18 372 -18 q 168 -2 221 -18 q 89 58 115 14 q 68 95 78 76 q 51 143 58 114 q 41 215 44 172 q 38 324 38 258 l 38 1051 l 261 1051 l 261 324 q 263 265 261 286 q 272 233 265 244 q 292 219 279 222 q 325 217 304 217 q 358 219 346 217 q 376 233 369 222 q 385 265 383 244 q 388 324 388 286 l 388 1051 m 229 1096 l 229 1103 l 356 1336 l 551 1336 l 551 1328 l 392 1096 l 229 1096 z "},"Û":{"ha":642,"x_min":38,"x_max":604,"o":"m 38 0 m 388 1051 l 604 1051 l 604 324 q 599 215 603 258 q 588 143 594 172 q 574 95 582 114 q 554 58 565 76 q 522 22 540 36 q 475 -2 503 7 q 410 -15 447 -11 q 322 -18 372 -18 q 168 -2 221 -18 q 89 58 115 14 q 68 95 78 76 q 51 143 58 114 q 41 215 44 172 q 38 324 38 258 l 38 1051 l 261 1051 l 261 324 q 263 265 261 286 q 272 233 265 244 q 292 219 279 222 q 325 217 304 217 q 358 219 346 217 q 376 233 369 222 q 385 265 383 244 q 388 324 388 286 l 388 1051 m 393 1096 l 328 1192 l 313 1192 l 247 1096 l 76 1096 l 76 1103 l 249 1336 l 392 1336 l 565 1103 l 565 1096 l 393 1096 z "},"Ü":{"ha":642,"x_min":38,"x_max":604,"o":"m 38 0 m 388 1051 l 604 1051 l 604 324 q 599 215 603 258 q 588 143 594 172 q 574 95 582 114 q 554 58 565 76 q 522 22 540 36 q 475 -2 503 7 q 410 -15 447 -11 q 322 -18 372 -18 q 168 -2 221 -18 q 89 58 115 14 q 68 95 78 76 q 51 143 58 114 q 41 215 44 172 q 38 324 38 258 l 38 1051 l 261 1051 l 261 324 q 263 265 261 286 q 272 233 265 244 q 292 219 279 222 q 325 217 304 217 q 358 219 346 217 q 376 233 369 222 q 385 265 383 244 q 388 324 388 286 l 388 1051 m 371 1125 l 371 1296 l 557 1296 l 557 1125 l 371 1125 m 85 1125 l 85 1296 l 272 1296 l 272 1125 l 85 1125 z "},"Ý":{"ha":621,"x_min":6,"x_max":615,"o":"m 6 0 m 197 0 l 197 383 l 6 1044 l 6 1051 l 231 1051 q 266 894 253 953 q 287 799 279 835 q 299 746 294 764 q 306 711 303 728 l 319 711 q 326 746 322 728 q 338 799 331 764 q 360 894 346 835 q 397 1051 374 953 l 615 1051 l 615 1044 l 432 386 l 432 0 l 197 0 m 219 1096 l 219 1103 l 346 1336 l 542 1336 l 542 1328 l 382 1096 l 219 1096 z "},"Þ":{"ha":626,"x_min":47,"x_max":600,"o":"m 47 0 l 47 1051 l 265 1051 l 265 890 l 363 890 q 479 872 433 890 q 552 810 525 853 q 590 699 579 768 q 600 528 600 629 q 590 353 600 425 q 552 238 579 282 q 479 174 525 193 q 363 154 433 154 l 265 154 l 265 0 l 47 0 m 324 371 q 367 405 354 371 q 379 533 379 439 q 365 644 379 617 q 318 671 350 671 l 265 671 l 265 371 l 324 371 z "},"ß":{"ha":908,"x_min":93,"x_max":878,"o":"m 93 0 l 93 821 q 103 924 93 875 q 139 1007 113 974 q 217 1056 165 1042 q 376 1071 269 1071 q 465 1067 428 1071 q 529 1056 503 1064 q 573 1036 556 1049 q 603 1006 590 1024 q 633 922 626 972 q 640 819 640 872 l 640 758 q 641 732 640 742 q 646 715 642 722 q 658 703 650 708 q 678 692 665 699 q 758 651 726 665 q 815 617 790 636 q 847 585 835 601 q 865 541 858 568 q 875 473 872 514 q 878 369 878 432 q 874 235 878 290 q 865 142 871 179 q 851 82 860 104 q 832 46 842 60 q 751 -4 806 10 q 610 -18 697 -18 q 480 -3 522 -18 q 414 47 438 11 q 392 94 400 68 q 379 144 383 119 q 374 193 375 169 q 372 233 372 217 q 373 265 372 249 q 376 297 374 281 l 554 297 l 554 279 q 564 192 554 210 q 615 176 571 176 q 649 180 639 176 q 664 192 660 183 q 673 234 669 203 q 676 347 676 265 q 676 400 676 381 q 671 431 675 419 q 660 449 667 443 q 640 464 653 456 q 556 514 596 492 q 488 563 515 536 q 462 594 471 578 q 447 634 453 611 q 440 689 442 657 q 439 767 439 721 l 439 808 q 428 875 439 858 q 375 892 418 892 q 340 888 353 892 q 322 875 328 885 q 313 849 315 865 q 311 808 311 833 l 311 0 l 93 0 z "},"à":{"ha":618,"x_min":17,"x_max":601,"o":"m 17 0 m 376 0 l 358 243 l 253 243 l 236 0 l 17 0 l 129 1051 l 496 1051 l 601 0 l 376 0 m 313 832 l 297 832 l 263 456 l 349 456 l 313 832 m 238 1096 l 78 1328 l 78 1336 l 274 1336 l 400 1103 l 400 1096 l 238 1096 z "},"á":{"ha":618,"x_min":17,"x_max":601,"o":"m 17 0 m 376 0 l 358 243 l 253 243 l 236 0 l 17 0 l 129 1051 l 496 1051 l 601 0 l 376 0 m 313 832 l 297 832 l 263 456 l 349 456 l 313 832 m 214 1096 l 214 1103 l 340 1336 l 536 1336 l 536 1328 l 376 1096 l 214 1096 z "},"â":{"ha":618,"x_min":17,"x_max":601,"o":"m 17 0 m 376 0 l 358 243 l 253 243 l 236 0 l 17 0 l 129 1051 l 496 1051 l 601 0 l 376 0 m 313 832 l 297 832 l 263 456 l 349 456 l 313 832 m 378 1096 l 313 1192 l 297 1192 l 232 1096 l 61 1096 l 61 1103 l 233 1336 l 376 1336 l 550 1103 l 550 1096 l 378 1096 z "},"ã":{"ha":618,"x_min":17,"x_max":601,"o":"m 17 0 m 376 0 l 358 243 l 253 243 l 236 0 l 17 0 l 129 1051 l 496 1051 l 601 0 l 376 0 m 313 832 l 297 832 l 263 456 l 349 456 l 313 832 m 588 1189 q 519 1124 556 1144 q 432 1104 482 1104 q 363 1114 396 1104 q 299 1135 331 1124 q 238 1157 268 1147 q 178 1167 207 1167 q 103 1148 135 1167 q 39 1086 71 1129 l 32 1086 l 32 1239 q 87 1295 53 1271 q 171 1319 121 1319 q 249 1310 213 1319 q 317 1288 285 1300 q 380 1267 350 1276 q 438 1257 410 1257 q 515 1274 481 1257 q 581 1336 549 1292 l 588 1336 l 588 1189 z "},"ä":{"ha":618,"x_min":17,"x_max":601,"o":"m 17 0 m 376 0 l 358 243 l 253 243 l 236 0 l 17 0 l 129 1051 l 496 1051 l 601 0 l 376 0 m 313 832 l 297 832 l 263 456 l 349 456 l 313 832 m 358 1125 l 358 1296 l 544 1296 l 544 1125 l 358 1125 m 72 1125 l 72 1296 l 260 1296 l 260 1125 l 72 1125 z "},"å":{"ha":618,"x_min":17,"x_max":601,"o":"m 17 0 m 376 0 l 358 243 l 253 243 l 236 0 l 17 0 l 129 1051 l 496 1051 l 601 0 l 376 0 m 313 832 l 297 832 l 263 456 l 349 456 l 313 832 m 426 1097 q 385 1081 413 1085 q 307 1076 357 1076 q 227 1081 254 1076 q 186 1097 200 1085 q 174 1109 179 1103 q 167 1127 169 1115 q 163 1157 164 1139 q 161 1206 161 1175 q 163 1255 161 1236 q 167 1285 164 1274 q 174 1303 169 1296 q 186 1315 179 1310 q 228 1331 200 1326 q 307 1336 256 1336 q 385 1331 357 1336 q 426 1315 413 1326 q 438 1303 433 1310 q 447 1285 443 1296 q 451 1255 450 1274 q 453 1206 453 1236 q 451 1157 453 1175 q 447 1127 450 1139 q 438 1109 443 1115 q 426 1097 433 1103 m 349 1165 q 356 1175 354 1168 q 358 1207 358 1182 q 356 1242 358 1235 q 349 1253 354 1249 q 337 1257 346 1256 q 307 1258 328 1258 q 276 1257 285 1258 q 263 1253 268 1256 q 256 1242 257 1250 q 254 1207 254 1235 q 256 1175 254 1182 q 263 1165 257 1168 q 276 1161 268 1163 q 307 1160 285 1160 q 336 1161 328 1160 q 349 1165 344 1163 z "},"æ":{"ha":867,"x_min":17,"x_max":826,"o":"m 17 0 m 360 0 l 360 243 l 253 243 l 236 0 l 17 0 l 129 1051 l 826 1051 l 826 829 l 578 829 l 578 644 l 822 644 l 822 432 l 578 432 l 578 233 l 825 233 l 825 0 l 360 0 m 360 832 l 297 832 l 263 456 l 360 456 l 360 832 z "},"ç":{"ha":628,"x_min":31,"x_max":593,"o":"m 31 0 m 589 403 q 593 308 593 353 q 584 163 593 225 q 546 61 575 101 q 463 1 517 21 q 322 -18 410 -18 q 163 1 218 -18 q 82 68 108 19 q 58 121 68 90 q 42 203 49 151 q 33 333 36 254 q 31 535 31 413 q 33 733 31 657 q 42 858 36 810 q 58 935 49 907 q 82 986 68 963 q 163 1051 110 1033 q 315 1069 215 1069 q 458 1053 404 1069 q 542 999 513 1036 q 581 902 571 961 q 590 760 590 843 q 590 717 590 740 q 588 667 589 693 l 383 667 q 383 736 383 708 q 381 782 382 764 q 377 810 379 800 q 374 828 375 821 q 315 854 368 854 q 277 848 289 854 q 261 828 265 842 q 255 802 257 817 q 251 758 253 788 q 248 675 249 728 q 247 538 247 622 q 248 397 247 450 q 251 314 249 344 q 255 268 253 283 q 261 242 257 253 q 278 222 265 228 q 322 217 290 217 q 372 240 364 217 q 381 269 378 254 q 385 303 383 285 q 387 347 386 322 q 388 403 388 371 l 589 403 m 135 -331 l 135 -324 l 214 -57 l 403 -57 l 403 -65 l 292 -331 l 135 -331 z "},"è":{"ha":553,"x_min":47,"x_max":513,"o":"m 47 0 m 47 0 l 47 1051 l 513 1051 l 513 829 l 265 829 l 265 644 l 508 644 l 508 432 l 265 432 l 265 233 l 511 233 l 511 0 l 47 0 m 213 1096 l 53 1328 l 53 1336 l 249 1336 l 375 1103 l 375 1096 l 213 1096 z "},"é":{"ha":553,"x_min":47,"x_max":515,"o":"m 47 0 m 47 0 l 47 1051 l 513 1051 l 513 829 l 265 829 l 265 644 l 508 644 l 508 432 l 265 432 l 265 233 l 511 233 l 511 0 l 47 0 m 193 1096 l 193 1103 l 319 1336 l 515 1336 l 515 1328 l 356 1096 l 193 1096 z "},"ê":{"ha":553,"x_min":38,"x_max":526,"o":"m 38 0 m 47 0 l 47 1051 l 513 1051 l 513 829 l 265 829 l 265 644 l 508 644 l 508 432 l 265 432 l 265 233 l 511 233 l 511 0 l 47 0 m 354 1096 l 289 1192 l 274 1192 l 208 1096 l 38 1096 l 38 1103 l 210 1336 l 353 1336 l 526 1103 l 526 1096 l 354 1096 z "},"ë":{"ha":553,"x_min":46,"x_max":518,"o":"m 46 0 m 47 0 l 47 1051 l 513 1051 l 513 829 l 265 829 l 265 644 l 508 644 l 508 432 l 265 432 l 265 233 l 511 233 l 511 0 l 47 0 m 332 1125 l 332 1296 l 518 1296 l 518 1125 l 332 1125 m 46 1125 l 46 1296 l 233 1296 l 233 1125 l 46 1125 z "},"ì":{"ha":324,"x_min":-68,"x_max":274,"o":"m 0 0 m 50 0 l 50 1051 l 274 1051 l 274 0 l 50 0 m 92 1096 l -68 1328 l -68 1336 l 128 1336 l 254 1103 l 254 1096 l 92 1096 z "},"í":{"ha":324,"x_min":50,"x_max":392,"o":"m 50 0 m 50 0 l 50 1051 l 274 1051 l 274 0 l 50 0 m 69 1096 l 69 1103 l 196 1336 l 392 1336 l 392 1328 l 232 1096 l 69 1096 z "},"î":{"ha":324,"x_min":-82,"x_max":407,"o":"m 0 0 m 50 0 l 50 1051 l 274 1051 l 274 0 l 50 0 m 235 1096 l 169 1192 l 154 1192 l 89 1096 l -82 1096 l -82 1103 l 90 1336 l 233 1336 l 407 1103 l 407 1096 l 235 1096 z "},"ï":{"ha":324,"x_min":-74,"x_max":399,"o":"m 0 0 m 50 0 l 50 1051 l 274 1051 l 274 0 l 50 0 m 213 1125 l 213 1296 l 399 1296 l 399 1125 l 213 1125 m -74 1125 l -74 1296 l 114 1296 l 114 1125 l -74 1125 z "},"ð":{"ha":654,"x_min":0,"x_max":624,"o":"m 0 0 m 47 0 l 47 432 l 0 432 l 0 644 l 47 644 l 47 1051 l 340 1051 q 493 1033 440 1051 q 574 968 546 1014 q 597 917 588 944 q 612 843 606 890 q 621 721 618 796 q 624 526 624 646 q 621 331 624 407 q 612 208 618 256 q 597 133 606 161 q 574 83 588 106 q 540 44 560 60 q 493 18 521 28 q 428 4 465 8 q 340 0 390 0 l 47 0 m 339 232 q 376 238 365 232 q 393 257 388 243 q 399 280 396 267 q 403 322 401 293 q 405 401 404 351 q 406 531 406 450 q 405 662 406 611 q 403 742 404 713 q 399 785 401 771 q 393 808 396 799 q 376 825 388 819 q 339 831 365 831 l 254 831 l 254 644 l 350 644 l 350 432 l 254 432 l 254 232 l 339 232 z "},"ñ":{"ha":660,"x_min":46,"x_max":615,"o":"m 46 0 m 501 0 l 253 564 l 244 564 l 244 0 l 46 0 l 46 1051 l 260 1051 l 407 686 l 415 686 l 415 1051 l 615 1051 l 615 0 l 501 0 m 607 1189 q 538 1124 575 1144 q 451 1104 501 1104 q 383 1114 415 1104 q 319 1135 350 1124 q 257 1157 288 1147 q 197 1167 226 1167 q 122 1148 154 1167 q 58 1086 90 1129 l 51 1086 l 51 1239 q 106 1295 72 1271 q 190 1319 140 1319 q 268 1310 232 1319 q 337 1288 304 1300 q 399 1267 369 1276 q 457 1257 429 1257 q 534 1274 500 1257 q 600 1336 568 1292 l 607 1336 l 607 1189 z "},"ò":{"ha":629,"x_min":31,"x_max":599,"o":"m 31 0 m 547 68 q 515 27 533 43 q 468 1 496 11 q 403 -14 440 -10 q 315 -18 365 -18 q 162 1 214 -18 q 82 68 110 19 q 58 120 68 92 q 42 197 49 149 q 33 324 36 246 q 31 526 31 403 q 33 728 31 650 q 42 854 36 806 q 58 931 49 903 q 82 983 68 958 q 115 1024 96 1007 q 161 1051 133 1040 q 227 1065 189 1061 q 315 1069 265 1069 q 467 1050 415 1069 q 547 983 519 1031 q 571 931 561 958 q 587 854 581 903 q 596 728 593 806 q 599 526 599 650 q 596 324 599 403 q 587 197 593 246 q 571 120 581 149 q 547 68 561 92 m 369 242 q 375 267 372 251 q 379 313 378 282 q 381 395 381 343 q 382 532 382 447 q 381 672 382 619 q 379 756 381 725 q 375 803 378 788 q 369 828 372 818 q 353 848 364 842 q 315 854 342 854 q 277 848 289 854 q 261 828 265 842 q 255 803 257 818 q 251 756 253 788 q 248 672 249 725 q 247 532 247 619 q 248 395 247 447 q 251 313 249 343 q 255 267 253 282 q 261 242 257 251 q 277 222 265 228 q 315 217 289 217 q 353 222 342 217 q 369 242 364 228 m 243 1096 l 83 1328 l 83 1336 l 279 1336 l 406 1103 l 406 1096 l 243 1096 z "},"ó":{"ha":629,"x_min":31,"x_max":599,"o":"m 31 0 m 547 68 q 515 27 533 43 q 468 1 496 11 q 403 -14 440 -10 q 315 -18 365 -18 q 162 1 214 -18 q 82 68 110 19 q 58 120 68 92 q 42 197 49 149 q 33 324 36 246 q 31 526 31 403 q 33 728 31 650 q 42 854 36 806 q 58 931 49 903 q 82 983 68 958 q 115 1024 96 1007 q 161 1051 133 1040 q 227 1065 189 1061 q 315 1069 265 1069 q 467 1050 415 1069 q 547 983 519 1031 q 571 931 561 958 q 587 854 581 903 q 596 728 593 806 q 599 526 599 650 q 596 324 599 403 q 587 197 593 246 q 571 120 581 149 q 547 68 561 92 m 369 242 q 375 267 372 251 q 379 313 378 282 q 381 395 381 343 q 382 532 382 447 q 381 672 382 619 q 379 756 381 725 q 375 803 378 788 q 369 828 372 818 q 353 848 364 842 q 315 854 342 854 q 277 848 289 854 q 261 828 265 842 q 255 803 257 818 q 251 756 253 788 q 248 672 249 725 q 247 532 247 619 q 248 395 247 447 q 251 313 249 343 q 255 267 253 282 q 261 242 257 251 q 277 222 265 228 q 315 217 289 217 q 353 222 342 217 q 369 242 364 228 m 222 1096 l 222 1103 l 349 1336 l 544 1336 l 544 1328 l 385 1096 l 222 1096 z "},"ô":{"ha":629,"x_min":31,"x_max":599,"o":"m 31 0 m 547 68 q 515 27 533 43 q 468 1 496 11 q 403 -14 440 -10 q 315 -18 365 -18 q 162 1 214 -18 q 82 68 110 19 q 58 120 68 92 q 42 197 49 149 q 33 324 36 246 q 31 526 31 403 q 33 728 31 650 q 42 854 36 806 q 58 931 49 903 q 82 983 68 958 q 115 1024 96 1007 q 161 1051 133 1040 q 227 1065 189 1061 q 315 1069 265 1069 q 467 1050 415 1069 q 547 983 519 1031 q 571 931 561 958 q 587 854 581 903 q 596 728 593 806 q 599 526 599 650 q 596 324 599 403 q 587 197 593 246 q 571 120 581 149 q 547 68 561 92 m 369 242 q 375 267 372 251 q 379 313 378 282 q 381 395 381 343 q 382 532 382 447 q 381 672 382 619 q 379 756 381 725 q 375 803 378 788 q 369 828 372 818 q 353 848 364 842 q 315 854 342 854 q 277 848 289 854 q 261 828 265 842 q 255 803 257 818 q 251 756 253 788 q 248 672 249 725 q 247 532 247 619 q 248 395 247 447 q 251 313 249 343 q 255 267 253 282 q 261 242 257 251 q 277 222 265 228 q 315 217 289 217 q 353 222 342 217 q 369 242 364 228 m 386 1096 l 321 1192 l 306 1192 l 240 1096 l 69 1096 l 69 1103 l 242 1336 l 385 1336 l 558 1103 l 558 1096 l 386 1096 z "},"õ":{"ha":629,"x_min":31,"x_max":599,"o":"m 31 0 m 547 68 q 515 27 533 43 q 468 1 496 11 q 403 -14 440 -10 q 315 -18 365 -18 q 162 1 214 -18 q 82 68 110 19 q 58 120 68 92 q 42 197 49 149 q 33 324 36 246 q 31 526 31 403 q 33 728 31 650 q 42 854 36 806 q 58 931 49 903 q 82 983 68 958 q 115 1024 96 1007 q 161 1051 133 1040 q 227 1065 189 1061 q 315 1069 265 1069 q 467 1050 415 1069 q 547 983 519 1031 q 571 931 561 958 q 587 854 581 903 q 596 728 593 806 q 599 526 599 650 q 596 324 599 403 q 587 197 593 246 q 571 120 581 149 q 547 68 561 92 m 369 242 q 375 267 372 251 q 379 313 378 282 q 381 395 381 343 q 382 532 382 447 q 381 672 382 619 q 379 756 381 725 q 375 803 378 788 q 369 828 372 818 q 353 848 364 842 q 315 854 342 854 q 277 848 289 854 q 261 828 265 842 q 255 803 257 818 q 251 756 253 788 q 248 672 249 725 q 247 532 247 619 q 248 395 247 447 q 251 313 249 343 q 255 267 253 282 q 261 242 257 251 q 277 222 265 228 q 315 217 289 217 q 353 222 342 217 q 369 242 364 228 m 593 1189 q 524 1124 561 1144 q 438 1104 488 1104 q 369 1114 401 1104 q 305 1135 336 1124 q 243 1157 274 1147 q 183 1167 213 1167 q 108 1148 140 1167 q 44 1086 76 1129 l 38 1086 l 38 1239 q 92 1295 58 1271 q 176 1319 126 1319 q 254 1310 218 1319 q 323 1288 290 1300 q 385 1267 356 1276 q 443 1257 415 1257 q 520 1274 486 1257 q 586 1336 554 1292 l 593 1336 l 593 1189 z "},"ö":{"ha":629,"x_min":31,"x_max":599,"o":"m 31 0 m 547 68 q 515 27 533 43 q 468 1 496 11 q 403 -14 440 -10 q 315 -18 365 -18 q 162 1 214 -18 q 82 68 110 19 q 58 120 68 92 q 42 197 49 149 q 33 324 36 246 q 31 526 31 403 q 33 728 31 650 q 42 854 36 806 q 58 931 49 903 q 82 983 68 958 q 115 1024 96 1007 q 161 1051 133 1040 q 227 1065 189 1061 q 315 1069 265 1069 q 467 1050 415 1069 q 547 983 519 1031 q 571 931 561 958 q 587 854 581 903 q 596 728 593 806 q 599 526 599 650 q 596 324 599 403 q 587 197 593 246 q 571 120 581 149 q 547 68 561 92 m 369 242 q 375 267 372 251 q 379 313 378 282 q 381 395 381 343 q 382 532 382 447 q 381 672 382 619 q 379 756 381 725 q 375 803 378 788 q 369 828 372 818 q 353 848 364 842 q 315 854 342 854 q 277 848 289 854 q 261 828 265 842 q 255 803 257 818 q 251 756 253 788 q 248 672 249 725 q 247 532 247 619 q 248 395 247 447 q 251 313 249 343 q 255 267 253 282 q 261 242 257 251 q 277 222 265 228 q 315 217 289 217 q 353 222 342 217 q 369 242 364 228 m 364 1125 l 364 1296 l 550 1296 l 550 1125 l 364 1125 m 78 1125 l 78 1296 l 265 1296 l 265 1125 l 78 1125 z "},"÷":{"ha":629,"x_min":21,"x_max":608,"o":"m 21 97 m 21 446 l 21 608 l 608 608 l 608 446 l 21 446 m 206 747 l 206 957 l 424 957 l 424 747 l 206 747 m 206 97 l 206 307 l 424 307 l 424 97 l 206 97 z "},"ø":{"ha":629,"x_min":31,"x_max":599,"o":"m 31 0 m 43 -181 l 107 33 q 94 49 100 40 q 82 68 88 57 q 58 120 68 92 q 42 197 49 149 q 33 324 36 246 q 31 526 31 403 q 33 728 31 650 q 42 854 36 806 q 58 931 49 903 q 82 983 68 958 q 115 1024 96 1007 q 161 1051 133 1040 q 227 1065 189 1061 q 315 1069 265 1069 q 375 1067 347 1069 q 426 1063 403 1065 l 464 1185 l 565 1185 l 515 1022 q 547 983 533 1006 q 571 931 561 958 q 587 854 581 903 q 596 728 593 806 q 599 526 599 650 q 596 324 599 403 q 587 197 593 246 q 571 120 581 149 q 547 68 561 92 q 515 27 533 43 q 468 1 496 11 q 403 -14 440 -10 q 315 -18 365 -18 q 197 -8 242 -18 l 144 -181 l 43 -181 m 397 647 l 265 214 q 315 207 281 207 q 363 213 347 207 q 383 233 378 219 q 390 258 388 243 q 395 296 393 272 q 398 357 397 319 q 399 451 399 394 q 399 528 399 497 q 399 581 399 560 q 401 618 400 603 q 404 647 403 633 l 397 647 m 361 857 q 342 861 354 860 q 315 863 331 863 q 267 857 282 863 q 246 838 251 851 q 238 813 242 826 q 233 776 235 799 q 230 717 231 753 q 229 631 229 682 q 229 547 229 581 q 228 491 229 514 q 226 453 228 468 q 224 425 225 439 l 231 425 l 361 857 z "},"ù":{"ha":642,"x_min":38,"x_max":604,"o":"m 38 0 m 388 1051 l 604 1051 l 604 324 q 599 215 603 258 q 588 143 594 172 q 574 95 582 114 q 554 58 565 76 q 522 22 540 36 q 475 -2 503 7 q 410 -15 447 -11 q 322 -18 372 -18 q 168 -2 221 -18 q 89 58 115 14 q 68 95 78 76 q 51 143 58 114 q 41 215 44 172 q 38 324 38 258 l 38 1051 l 261 1051 l 261 324 q 263 265 261 286 q 272 233 265 244 q 292 219 279 222 q 325 217 304 217 q 358 219 346 217 q 376 233 369 222 q 385 265 383 244 q 388 324 388 286 l 388 1051 m 251 1096 l 92 1328 l 92 1336 l 288 1336 l 414 1103 l 414 1096 l 251 1096 z "},"ú":{"ha":642,"x_min":38,"x_max":604,"o":"m 38 0 m 388 1051 l 604 1051 l 604 324 q 599 215 603 258 q 588 143 594 172 q 574 95 582 114 q 554 58 565 76 q 522 22 540 36 q 475 -2 503 7 q 410 -15 447 -11 q 322 -18 372 -18 q 168 -2 221 -18 q 89 58 115 14 q 68 95 78 76 q 51 143 58 114 q 41 215 44 172 q 38 324 38 258 l 38 1051 l 261 1051 l 261 324 q 263 265 261 286 q 272 233 265 244 q 292 219 279 222 q 325 217 304 217 q 358 219 346 217 q 376 233 369 222 q 385 265 383 244 q 388 324 388 286 l 388 1051 m 229 1096 l 229 1103 l 356 1336 l 551 1336 l 551 1328 l 392 1096 l 229 1096 z "},"û":{"ha":642,"x_min":38,"x_max":604,"o":"m 38 0 m 388 1051 l 604 1051 l 604 324 q 599 215 603 258 q 588 143 594 172 q 574 95 582 114 q 554 58 565 76 q 522 22 540 36 q 475 -2 503 7 q 410 -15 447 -11 q 322 -18 372 -18 q 168 -2 221 -18 q 89 58 115 14 q 68 95 78 76 q 51 143 58 114 q 41 215 44 172 q 38 324 38 258 l 38 1051 l 261 1051 l 261 324 q 263 265 261 286 q 272 233 265 244 q 292 219 279 222 q 325 217 304 217 q 358 219 346 217 q 376 233 369 222 q 385 265 383 244 q 388 324 388 286 l 388 1051 m 393 1096 l 328 1192 l 313 1192 l 247 1096 l 76 1096 l 76 1103 l 249 1336 l 392 1336 l 565 1103 l 565 1096 l 393 1096 z "},"ü":{"ha":642,"x_min":38,"x_max":604,"o":"m 38 0 m 388 1051 l 604 1051 l 604 324 q 599 215 603 258 q 588 143 594 172 q 574 95 582 114 q 554 58 565 76 q 522 22 540 36 q 475 -2 503 7 q 410 -15 447 -11 q 322 -18 372 -18 q 168 -2 221 -18 q 89 58 115 14 q 68 95 78 76 q 51 143 58 114 q 41 215 44 172 q 38 324 38 258 l 38 1051 l 261 1051 l 261 324 q 263 265 261 286 q 272 233 265 244 q 292 219 279 222 q 325 217 304 217 q 358 219 346 217 q 376 233 369 222 q 385 265 383 244 q 388 324 388 286 l 388 1051 m 371 1125 l 371 1296 l 557 1296 l 557 1125 l 371 1125 m 85 1125 l 85 1296 l 272 1296 l 272 1125 l 85 1125 z "},"ý":{"ha":621,"x_min":6,"x_max":615,"o":"m 6 0 m 197 0 l 197 383 l 6 1044 l 6 1051 l 231 1051 q 266 894 253 953 q 287 799 279 835 q 299 746 294 764 q 306 711 303 728 l 319 711 q 326 746 322 728 q 338 799 331 764 q 360 894 346 835 q 397 1051 374 953 l 615 1051 l 615 1044 l 432 386 l 432 0 l 197 0 m 219 1096 l 219 1103 l 346 1336 l 542 1336 l 542 1328 l 382 1096 l 219 1096 z "},"þ":{"ha":626,"x_min":47,"x_max":600,"o":"m 47 0 m 47 0 l 47 1051 l 265 1051 l 265 890 l 363 890 q 479 872 433 890 q 552 810 525 853 q 590 699 579 768 q 600 528 600 629 q 590 353 600 425 q 552 238 579 282 q 479 174 525 193 q 363 154 433 154 l 265 154 l 265 0 l 47 0 m 324 371 q 367 405 354 371 q 379 533 379 439 q 365 644 379 617 q 318 671 350 671 l 265 671 l 265 371 l 324 371 z "},"ÿ":{"ha":621,"x_min":6,"x_max":615,"o":"m 6 0 m 197 0 l 197 383 l 6 1044 l 6 1051 l 231 1051 q 266 894 253 953 q 287 799 279 835 q 299 746 294 764 q 306 711 303 728 l 319 711 q 326 746 322 728 q 338 799 331 764 q 360 894 346 835 q 397 1051 374 953 l 615 1051 l 615 1044 l 432 386 l 432 0 l 197 0 m 361 1125 l 361 1296 l 547 1296 l 547 1125 l 361 1125 m 75 1125 l 75 1296 l 263 1296 l 263 1125 l 75 1125 z "},"Ā":{"ha":618,"x_min":17,"x_max":601,"o":"m 17 0 m 376 0 l 358 243 l 253 243 l 236 0 l 17 0 l 129 1051 l 496 1051 l 601 0 l 376 0 m 313 832 l 297 832 l 263 456 l 349 456 l 313 832 m 28 1143 l 28 1290 l 583 1290 l 583 1143 l 28 1143 z "},"ā":{"ha":618,"x_min":17,"x_max":601,"o":"m 17 0 m 376 0 l 358 243 l 253 243 l 236 0 l 17 0 l 129 1051 l 496 1051 l 601 0 l 376 0 m 313 832 l 297 832 l 263 456 l 349 456 l 313 832 m 28 1143 l 28 1290 l 583 1290 l 583 1143 l 28 1143 z "},"Ă":{"ha":618,"x_min":17,"x_max":601,"o":"m 17 0 m 376 0 l 358 243 l 253 243 l 236 0 l 17 0 l 129 1051 l 496 1051 l 601 0 l 376 0 m 313 832 l 297 832 l 263 456 l 349 456 l 313 832 m 536 1336 q 533 1251 536 1285 q 526 1197 531 1218 q 514 1162 521 1175 q 497 1139 507 1149 q 432 1104 475 1113 q 307 1096 389 1096 q 183 1104 226 1096 q 118 1139 140 1113 q 101 1162 108 1149 q 90 1197 94 1175 q 82 1251 85 1218 q 79 1336 79 1285 l 221 1336 q 222 1291 221 1308 q 224 1263 222 1274 q 229 1247 226 1253 q 238 1236 232 1240 q 258 1227 244 1229 q 307 1225 272 1225 q 357 1227 343 1225 q 376 1236 371 1229 q 384 1247 381 1242 q 390 1263 388 1253 q 393 1291 392 1274 q 394 1336 394 1308 l 536 1336 z "},"ă":{"ha":618,"x_min":17,"x_max":601,"o":"m 17 0 m 376 0 l 358 243 l 253 243 l 236 0 l 17 0 l 129 1051 l 496 1051 l 601 0 l 376 0 m 313 832 l 297 832 l 263 456 l 349 456 l 313 832 m 536 1336 q 533 1251 536 1285 q 526 1197 531 1218 q 514 1162 521 1175 q 497 1139 507 1149 q 432 1104 475 1113 q 307 1096 389 1096 q 183 1104 226 1096 q 118 1139 140 1113 q 101 1162 108 1149 q 90 1197 94 1175 q 82 1251 85 1218 q 79 1336 79 1285 l 221 1336 q 222 1291 221 1308 q 224 1263 222 1274 q 229 1247 226 1253 q 238 1236 232 1240 q 258 1227 244 1229 q 307 1225 272 1225 q 357 1227 343 1225 q 376 1236 371 1229 q 384 1247 381 1242 q 390 1263 388 1253 q 393 1291 392 1274 q 394 1336 394 1308 l 536 1336 z "},"Ą":{"ha":618,"x_min":17,"x_max":601,"o":"m 600 -278 q 546 -312 589 -293 q 428 -331 503 -331 q 242 -183 242 -331 q 248 -140 242 -161 q 269 -97 254 -118 q 311 -58 285 -76 q 379 -26 338 -40 l 358 243 l 253 243 l 236 0 l 17 0 l 129 1051 l 496 1051 l 601 0 q 551 -18 576 -8 q 505 -39 525 -28 q 472 -65 485 -50 q 460 -99 460 -79 q 475 -147 460 -132 q 529 -162 490 -162 q 567 -158 551 -162 q 593 -149 582 -153 l 600 -149 l 600 -278 m 313 832 l 297 832 l 263 456 l 349 456 l 313 832 z "},"ą":{"ha":618,"x_min":17,"x_max":601,"o":"m 17 0 m 600 -278 q 546 -312 589 -293 q 428 -331 503 -331 q 242 -183 242 -331 q 248 -140 242 -161 q 269 -97 254 -118 q 311 -58 285 -76 q 379 -26 338 -40 l 358 243 l 253 243 l 236 0 l 17 0 l 129 1051 l 496 1051 l 601 0 q 551 -18 576 -8 q 505 -39 525 -28 q 472 -65 485 -50 q 460 -99 460 -79 q 475 -147 460 -132 q 529 -162 490 -162 q 567 -158 551 -162 q 593 -149 582 -153 l 600 -149 l 600 -278 m 313 832 l 297 832 l 263 456 l 349 456 l 313 832 z "},"Ć":{"ha":628,"x_min":31,"x_max":593,"o":"m 31 0 m 589 403 q 593 308 593 353 q 584 163 593 225 q 546 61 575 101 q 463 1 517 21 q 322 -18 410 -18 q 163 1 218 -18 q 82 68 108 19 q 58 121 68 90 q 42 203 49 151 q 33 333 36 254 q 31 535 31 413 q 33 733 31 657 q 42 858 36 810 q 58 935 49 907 q 82 986 68 963 q 163 1051 110 1033 q 315 1069 215 1069 q 458 1053 404 1069 q 542 999 513 1036 q 581 902 571 961 q 590 760 590 843 q 590 717 590 740 q 588 667 589 693 l 383 667 q 383 736 383 708 q 381 782 382 764 q 377 810 379 800 q 374 828 375 821 q 315 854 368 854 q 277 848 289 854 q 261 828 265 842 q 255 802 257 817 q 251 758 253 788 q 248 675 249 728 q 247 538 247 622 q 248 397 247 450 q 251 314 249 344 q 255 268 253 283 q 261 242 257 253 q 278 222 265 228 q 322 217 290 217 q 372 240 364 217 q 381 269 378 254 q 385 303 383 285 q 387 347 386 322 q 388 403 388 371 l 589 403 m 224 1096 l 224 1103 l 350 1336 l 546 1336 l 546 1328 l 386 1096 l 224 1096 z "},"ć":{"ha":628,"x_min":31,"x_max":593,"o":"m 31 0 m 589 403 q 593 308 593 353 q 584 163 593 225 q 546 61 575 101 q 463 1 517 21 q 322 -18 410 -18 q 163 1 218 -18 q 82 68 108 19 q 58 121 68 90 q 42 203 49 151 q 33 333 36 254 q 31 535 31 413 q 33 733 31 657 q 42 858 36 810 q 58 935 49 907 q 82 986 68 963 q 163 1051 110 1033 q 315 1069 215 1069 q 458 1053 404 1069 q 542 999 513 1036 q 581 902 571 961 q 590 760 590 843 q 590 717 590 740 q 588 667 589 693 l 383 667 q 383 736 383 708 q 381 782 382 764 q 377 810 379 800 q 374 828 375 821 q 315 854 368 854 q 277 848 289 854 q 261 828 265 842 q 255 802 257 817 q 251 758 253 788 q 248 675 249 728 q 247 538 247 622 q 248 397 247 450 q 251 314 249 344 q 255 268 253 283 q 261 242 257 253 q 278 222 265 228 q 322 217 290 217 q 372 240 364 217 q 381 269 378 254 q 385 303 383 285 q 387 347 386 322 q 388 403 388 371 l 589 403 m 224 1096 l 224 1103 l 350 1336 l 546 1336 l 546 1328 l 386 1096 l 224 1096 z "},"Ċ":{"ha":628,"x_min":31,"x_max":593,"o":"m 31 0 m 589 403 q 593 308 593 353 q 584 163 593 225 q 546 61 575 101 q 463 1 517 21 q 322 -18 410 -18 q 163 1 218 -18 q 82 68 108 19 q 58 121 68 90 q 42 203 49 151 q 33 333 36 254 q 31 535 31 413 q 33 733 31 657 q 42 858 36 810 q 58 935 49 907 q 82 986 68 963 q 163 1051 110 1033 q 315 1069 215 1069 q 458 1053 404 1069 q 542 999 513 1036 q 581 902 571 961 q 590 760 590 843 q 590 717 590 740 q 588 667 589 693 l 383 667 q 383 736 383 708 q 381 782 382 764 q 377 810 379 800 q 374 828 375 821 q 315 854 368 854 q 277 848 289 854 q 261 828 265 842 q 255 802 257 817 q 251 758 253 788 q 248 675 249 728 q 247 538 247 622 q 248 397 247 450 q 251 314 249 344 q 255 268 253 283 q 261 242 257 253 q 278 222 265 228 q 322 217 290 217 q 372 240 364 217 q 381 269 378 254 q 385 303 383 285 q 387 347 386 322 q 388 403 388 371 l 589 403 m 219 1125 l 219 1296 l 407 1296 l 407 1125 l 219 1125 z "},"ċ":{"ha":628,"x_min":31,"x_max":593,"o":"m 31 0 m 589 403 q 593 308 593 353 q 584 163 593 225 q 546 61 575 101 q 463 1 517 21 q 322 -18 410 -18 q 163 1 218 -18 q 82 68 108 19 q 58 121 68 90 q 42 203 49 151 q 33 333 36 254 q 31 535 31 413 q 33 733 31 657 q 42 858 36 810 q 58 935 49 907 q 82 986 68 963 q 163 1051 110 1033 q 315 1069 215 1069 q 458 1053 404 1069 q 542 999 513 1036 q 581 902 571 961 q 590 760 590 843 q 590 717 590 740 q 588 667 589 693 l 383 667 q 383 736 383 708 q 381 782 382 764 q 377 810 379 800 q 374 828 375 821 q 315 854 368 854 q 277 848 289 854 q 261 828 265 842 q 255 802 257 817 q 251 758 253 788 q 248 675 249 728 q 247 538 247 622 q 248 397 247 450 q 251 314 249 344 q 255 268 253 283 q 261 242 257 253 q 278 222 265 228 q 322 217 290 217 q 372 240 364 217 q 381 269 378 254 q 385 303 383 285 q 387 347 386 322 q 388 403 388 371 l 589 403 m 219 1125 l 219 1296 l 407 1296 l 407 1125 l 219 1125 z "},"Č":{"ha":628,"x_min":31,"x_max":593,"o":"m 31 0 m 589 403 q 593 308 593 353 q 584 163 593 225 q 546 61 575 101 q 463 1 517 21 q 322 -18 410 -18 q 163 1 218 -18 q 82 68 108 19 q 58 121 68 90 q 42 203 49 151 q 33 333 36 254 q 31 535 31 413 q 33 733 31 657 q 42 858 36 810 q 58 935 49 907 q 82 986 68 963 q 163 1051 110 1033 q 315 1069 215 1069 q 458 1053 404 1069 q 542 999 513 1036 q 581 902 571 961 q 590 760 590 843 q 590 717 590 740 q 588 667 589 693 l 383 667 q 383 736 383 708 q 381 782 382 764 q 377 810 379 800 q 374 828 375 821 q 315 854 368 854 q 277 848 289 854 q 261 828 265 842 q 255 802 257 817 q 251 758 253 788 q 248 675 249 728 q 247 538 247 622 q 248 397 247 450 q 251 314 249 344 q 255 268 253 283 q 261 242 257 253 q 278 222 265 228 q 322 217 290 217 q 372 240 364 217 q 381 269 378 254 q 385 303 383 285 q 387 347 386 322 q 388 403 388 371 l 589 403 m 243 1096 l 71 1328 l 71 1336 l 242 1336 l 308 1240 l 324 1240 l 388 1336 l 560 1336 l 560 1328 l 386 1096 l 243 1096 z "},"č":{"ha":628,"x_min":31,"x_max":593,"o":"m 31 0 m 589 403 q 593 308 593 353 q 584 163 593 225 q 546 61 575 101 q 463 1 517 21 q 322 -18 410 -18 q 163 1 218 -18 q 82 68 108 19 q 58 121 68 90 q 42 203 49 151 q 33 333 36 254 q 31 535 31 413 q 33 733 31 657 q 42 858 36 810 q 58 935 49 907 q 82 986 68 963 q 163 1051 110 1033 q 315 1069 215 1069 q 458 1053 404 1069 q 542 999 513 1036 q 581 902 571 961 q 590 760 590 843 q 590 717 590 740 q 588 667 589 693 l 383 667 q 383 736 383 708 q 381 782 382 764 q 377 810 379 800 q 374 828 375 821 q 315 854 368 854 q 277 848 289 854 q 261 828 265 842 q 255 802 257 817 q 251 758 253 788 q 248 675 249 728 q 247 538 247 622 q 248 397 247 450 q 251 314 249 344 q 255 268 253 283 q 261 242 257 253 q 278 222 265 228 q 322 217 290 217 q 372 240 364 217 q 381 269 378 254 q 385 303 383 285 q 387 347 386 322 q 388 403 388 371 l 589 403 m 243 1096 l 71 1328 l 71 1336 l 242 1336 l 308 1240 l 324 1240 l 388 1336 l 560 1336 l 560 1328 l 386 1096 l 243 1096 z "},"Ď":{"ha":654,"x_min":47,"x_max":624,"o":"m 47 0 m 47 0 l 47 1051 l 340 1051 q 493 1033 440 1051 q 574 968 546 1014 q 597 917 588 944 q 612 843 606 890 q 621 721 618 796 q 624 526 624 646 q 621 331 624 407 q 612 208 618 256 q 597 133 606 161 q 574 83 588 106 q 540 44 560 60 q 493 18 521 28 q 428 4 465 8 q 340 0 390 0 l 47 0 m 335 232 q 372 238 361 232 q 389 257 383 243 q 394 280 392 267 q 399 322 397 293 q 401 401 400 351 q 401 531 401 450 q 401 662 401 611 q 399 742 400 713 q 394 785 397 771 q 389 808 392 799 q 372 825 383 819 q 335 831 361 831 l 265 831 l 265 232 l 335 232 m 249 1096 l 76 1328 l 76 1336 l 247 1336 l 314 1240 l 329 1240 l 393 1336 l 565 1336 l 565 1328 l 392 1096 l 249 1096 z "},"ď":{"ha":654,"x_min":47,"x_max":624,"o":"m 47 0 m 47 0 l 47 1051 l 340 1051 q 493 1033 440 1051 q 574 968 546 1014 q 597 917 588 944 q 612 843 606 890 q 621 721 618 796 q 624 526 624 646 q 621 331 624 407 q 612 208 618 256 q 597 133 606 161 q 574 83 588 106 q 540 44 560 60 q 493 18 521 28 q 428 4 465 8 q 340 0 390 0 l 47 0 m 335 232 q 372 238 361 232 q 389 257 383 243 q 394 280 392 267 q 399 322 397 293 q 401 401 400 351 q 401 531 401 450 q 401 662 401 611 q 399 742 400 713 q 394 785 397 771 q 389 808 392 799 q 372 825 383 819 q 335 831 361 831 l 265 831 l 265 232 l 335 232 m 249 1096 l 76 1328 l 76 1336 l 247 1336 l 314 1240 l 329 1240 l 393 1336 l 565 1336 l 565 1328 l 392 1096 l 249 1096 z "},"Đ":{"ha":654,"x_min":0,"x_max":624,"o":"m 0 0 m 47 0 l 47 432 l 0 432 l 0 644 l 47 644 l 47 1051 l 340 1051 q 493 1033 440 1051 q 574 968 546 1014 q 597 917 588 944 q 612 843 606 890 q 621 721 618 796 q 624 526 624 646 q 621 331 624 407 q 612 208 618 256 q 597 133 606 161 q 574 83 588 106 q 540 44 560 60 q 493 18 521 28 q 428 4 465 8 q 340 0 390 0 l 47 0 m 339 232 q 376 238 365 232 q 393 257 388 243 q 399 280 396 267 q 403 322 401 293 q 405 401 404 351 q 406 531 406 450 q 405 662 406 611 q 403 742 404 713 q 399 785 401 771 q 393 808 396 799 q 376 825 388 819 q 339 831 365 831 l 254 831 l 254 644 l 350 644 l 350 432 l 254 432 l 254 232 l 339 232 z "},"đ":{"ha":654,"x_min":0,"x_max":624,"o":"m 0 0 m 47 0 l 47 432 l 0 432 l 0 644 l 47 644 l 47 1051 l 340 1051 q 493 1033 440 1051 q 574 968 546 1014 q 597 917 588 944 q 612 843 606 890 q 621 721 618 796 q 624 526 624 646 q 621 331 624 407 q 612 208 618 256 q 597 133 606 161 q 574 83 588 106 q 540 44 560 60 q 493 18 521 28 q 428 4 465 8 q 340 0 390 0 l 47 0 m 339 232 q 376 238 365 232 q 393 257 388 243 q 399 280 396 267 q 403 322 401 293 q 405 401 404 351 q 406 531 406 450 q 405 662 406 611 q 403 742 404 713 q 399 785 401 771 q 393 808 396 799 q 376 825 388 819 q 339 831 365 831 l 254 831 l 254 644 l 350 644 l 350 432 l 254 432 l 254 232 l 339 232 z "},"Ē":{"ha":553,"x_min":3,"x_max":558,"o":"m 3 0 m 47 0 l 47 1051 l 513 1051 l 513 829 l 265 829 l 265 644 l 508 644 l 508 432 l 265 432 l 265 233 l 511 233 l 511 0 l 47 0 m 3 1143 l 3 1290 l 558 1290 l 558 1143 l 3 1143 z "},"ē":{"ha":553,"x_min":3,"x_max":558,"o":"m 3 0 m 47 0 l 47 1051 l 513 1051 l 513 829 l 265 829 l 265 644 l 508 644 l 508 432 l 265 432 l 265 233 l 511 233 l 511 0 l 47 0 m 3 1143 l 3 1290 l 558 1290 l 558 1143 l 3 1143 z "},"Ĕ":{"ha":553,"x_min":47,"x_max":513,"o":"m 47 0 m 47 0 l 47 1051 l 513 1051 l 513 829 l 265 829 l 265 644 l 508 644 l 508 432 l 265 432 l 265 233 l 511 233 l 511 0 l 47 0 m 510 1336 q 507 1251 510 1285 q 499 1197 504 1218 q 488 1162 494 1175 q 471 1139 481 1149 q 406 1104 449 1113 q 281 1096 363 1096 q 157 1104 200 1096 q 92 1139 114 1113 q 75 1162 82 1149 q 63 1197 68 1175 q 56 1251 58 1218 q 53 1336 53 1285 l 194 1336 q 195 1291 194 1308 q 198 1263 196 1274 q 203 1247 200 1253 q 211 1236 206 1240 q 232 1227 218 1229 q 281 1225 246 1225 q 331 1227 317 1225 q 350 1236 344 1229 q 358 1247 354 1242 q 363 1263 361 1253 q 367 1291 365 1274 q 368 1336 368 1308 l 510 1336 z "},"ĕ":{"ha":553,"x_min":47,"x_max":513,"o":"m 47 0 m 47 0 l 47 1051 l 513 1051 l 513 829 l 265 829 l 265 644 l 508 644 l 508 432 l 265 432 l 265 233 l 511 233 l 511 0 l 47 0 m 510 1336 q 507 1251 510 1285 q 499 1197 504 1218 q 488 1162 494 1175 q 471 1139 481 1149 q 406 1104 449 1113 q 281 1096 363 1096 q 157 1104 200 1096 q 92 1139 114 1113 q 75 1162 82 1149 q 63 1197 68 1175 q 56 1251 58 1218 q 53 1336 53 1285 l 194 1336 q 195 1291 194 1308 q 198 1263 196 1274 q 203 1247 200 1253 q 211 1236 206 1240 q 232 1227 218 1229 q 281 1225 246 1225 q 331 1227 317 1225 q 350 1236 344 1229 q 358 1247 354 1242 q 363 1263 361 1253 q 367 1291 365 1274 q 368 1336 368 1308 l 510 1336 z "},"Ė":{"ha":553,"x_min":47,"x_max":513,"o":"m 47 0 m 47 0 l 47 1051 l 513 1051 l 513 829 l 265 829 l 265 644 l 508 644 l 508 432 l 265 432 l 265 233 l 511 233 l 511 0 l 47 0 m 192 1125 l 192 1296 l 379 1296 l 379 1125 l 192 1125 z "},"ė":{"ha":553,"x_min":47,"x_max":513,"o":"m 47 0 m 47 0 l 47 1051 l 513 1051 l 513 829 l 265 829 l 265 644 l 508 644 l 508 432 l 265 432 l 265 233 l 511 233 l 511 0 l 47 0 m 192 1125 l 192 1296 l 379 1296 l 379 1125 l 192 1125 z "},"Ę":{"ha":553,"x_min":47,"x_max":513,"o":"m 510 -278 q 456 -312 499 -293 q 338 -331 413 -331 q 151 -183 151 -331 q 163 -125 151 -154 q 204 -71 174 -96 q 289 -27 235 -46 q 428 0 343 -8 l 47 0 l 47 1051 l 513 1051 l 513 829 l 265 829 l 265 644 l 508 644 l 508 432 l 265 432 l 265 233 l 511 233 l 511 0 q 460 -18 486 -8 q 415 -39 435 -28 q 382 -65 394 -50 q 369 -99 369 -79 q 385 -147 369 -132 q 439 -162 400 -162 q 476 -158 461 -162 q 503 -149 492 -153 l 510 -149 l 510 -278 z "},"ę":{"ha":553,"x_min":47,"x_max":513,"o":"m 47 0 m 510 -278 q 456 -312 499 -293 q 338 -331 413 -331 q 151 -183 151 -331 q 163 -125 151 -154 q 204 -71 174 -96 q 289 -27 235 -46 q 428 0 343 -8 l 47 0 l 47 1051 l 513 1051 l 513 829 l 265 829 l 265 644 l 508 644 l 508 432 l 265 432 l 265 233 l 511 233 l 511 0 q 460 -18 486 -8 q 415 -39 435 -28 q 382 -65 394 -50 q 369 -99 369 -79 q 385 -147 369 -132 q 439 -162 400 -162 q 476 -158 461 -162 q 503 -149 492 -153 l 510 -149 l 510 -278 z "},"Ě":{"ha":553,"x_min":36,"x_max":525,"o":"m 36 0 m 47 0 l 47 1051 l 513 1051 l 513 829 l 265 829 l 265 644 l 508 644 l 508 432 l 265 432 l 265 233 l 511 233 l 511 0 l 47 0 m 208 1096 l 36 1328 l 36 1336 l 207 1336 l 274 1240 l 289 1240 l 353 1336 l 525 1336 l 525 1328 l 351 1096 l 208 1096 z "},"ě":{"ha":553,"x_min":36,"x_max":525,"o":"m 36 0 m 47 0 l 47 1051 l 513 1051 l 513 829 l 265 829 l 265 644 l 508 644 l 508 432 l 265 432 l 265 233 l 511 233 l 511 0 l 47 0 m 208 1096 l 36 1328 l 36 1336 l 207 1336 l 274 1240 l 289 1240 l 353 1336 l 525 1336 l 525 1328 l 351 1096 l 208 1096 z "},"Ğ":{"ha":624,"x_min":31,"x_max":596,"o":"m 31 0 m 397 407 l 296 407 l 296 618 l 593 618 q 595 538 594 590 q 596 411 596 485 q 593 268 596 325 q 584 174 590 211 q 569 113 578 136 q 547 68 560 89 q 515 27 533 43 q 468 1 496 11 q 403 -14 440 -10 q 315 -18 365 -18 q 162 1 214 -18 q 82 68 110 19 q 58 120 68 92 q 42 199 49 149 q 33 328 36 249 q 31 535 31 407 q 33 733 31 657 q 42 858 36 810 q 58 935 49 907 q 82 986 68 963 q 163 1051 110 1033 q 315 1069 215 1069 q 489 1040 431 1069 q 571 939 547 1010 q 589 785 589 881 q 589 755 589 765 q 588 731 589 744 l 385 731 q 386 740 386 735 q 386 749 386 744 q 383 800 386 783 q 378 828 381 817 q 314 854 372 854 q 273 848 286 854 q 254 828 260 842 q 249 802 251 817 q 244 758 246 788 q 242 675 243 728 q 242 538 242 622 q 242 394 242 447 q 244 310 243 340 q 248 267 246 281 q 253 244 250 254 q 319 214 264 214 q 360 220 347 214 q 382 240 374 226 q 390 255 386 247 q 394 275 393 263 q 397 306 396 288 q 397 357 397 325 l 397 407 m 543 1336 q 540 1251 543 1285 q 533 1197 538 1218 q 521 1162 528 1175 q 504 1139 514 1149 q 439 1104 482 1113 q 314 1096 396 1096 q 190 1104 233 1096 q 125 1139 147 1113 q 108 1162 115 1149 q 97 1197 101 1175 q 89 1251 92 1218 q 86 1336 86 1285 l 228 1336 q 228 1291 228 1308 q 231 1263 229 1274 q 236 1247 233 1253 q 244 1236 239 1240 q 265 1227 251 1229 q 314 1225 279 1225 q 364 1227 350 1225 q 383 1236 378 1229 q 391 1247 388 1242 q 397 1263 394 1253 q 400 1291 399 1274 q 401 1336 401 1308 l 543 1336 z "},"ğ":{"ha":624,"x_min":31,"x_max":596,"o":"m 31 0 m 397 407 l 296 407 l 296 618 l 593 618 q 595 538 594 590 q 596 411 596 485 q 593 268 596 325 q 584 174 590 211 q 569 113 578 136 q 547 68 560 89 q 515 27 533 43 q 468 1 496 11 q 403 -14 440 -10 q 315 -18 365 -18 q 162 1 214 -18 q 82 68 110 19 q 58 120 68 92 q 42 199 49 149 q 33 328 36 249 q 31 535 31 407 q 33 733 31 657 q 42 858 36 810 q 58 935 49 907 q 82 986 68 963 q 163 1051 110 1033 q 315 1069 215 1069 q 489 1040 431 1069 q 571 939 547 1010 q 589 785 589 881 q 589 755 589 765 q 588 731 589 744 l 385 731 q 386 740 386 735 q 386 749 386 744 q 383 800 386 783 q 378 828 381 817 q 314 854 372 854 q 273 848 286 854 q 254 828 260 842 q 249 802 251 817 q 244 758 246 788 q 242 675 243 728 q 242 538 242 622 q 242 394 242 447 q 244 310 243 340 q 248 267 246 281 q 253 244 250 254 q 319 214 264 214 q 360 220 347 214 q 382 240 374 226 q 390 255 386 247 q 394 275 393 263 q 397 306 396 288 q 397 357 397 325 l 397 407 m 543 1336 q 540 1251 543 1285 q 533 1197 538 1218 q 521 1162 528 1175 q 504 1139 514 1149 q 439 1104 482 1113 q 314 1096 396 1096 q 190 1104 233 1096 q 125 1139 147 1113 q 108 1162 115 1149 q 97 1197 101 1175 q 89 1251 92 1218 q 86 1336 86 1285 l 228 1336 q 228 1291 228 1308 q 231 1263 229 1274 q 236 1247 233 1253 q 244 1236 239 1240 q 265 1227 251 1229 q 314 1225 279 1225 q 364 1227 350 1225 q 383 1236 378 1229 q 391 1247 388 1242 q 397 1263 394 1253 q 400 1291 399 1274 q 401 1336 401 1308 l 543 1336 z "},"Ġ":{"ha":624,"x_min":31,"x_max":596,"o":"m 31 0 m 397 407 l 296 407 l 296 618 l 593 618 q 595 538 594 590 q 596 411 596 485 q 593 268 596 325 q 584 174 590 211 q 569 113 578 136 q 547 68 560 89 q 515 27 533 43 q 468 1 496 11 q 403 -14 440 -10 q 315 -18 365 -18 q 162 1 214 -18 q 82 68 110 19 q 58 120 68 92 q 42 199 49 149 q 33 328 36 249 q 31 535 31 407 q 33 733 31 657 q 42 858 36 810 q 58 935 49 907 q 82 986 68 963 q 163 1051 110 1033 q 315 1069 215 1069 q 489 1040 431 1069 q 571 939 547 1010 q 589 785 589 881 q 589 755 589 765 q 588 731 589 744 l 385 731 q 386 740 386 735 q 386 749 386 744 q 383 800 386 783 q 378 828 381 817 q 314 854 372 854 q 273 848 286 854 q 254 828 260 842 q 249 802 251 817 q 244 758 246 788 q 242 675 243 728 q 242 538 242 622 q 242 394 242 447 q 244 310 243 340 q 248 267 246 281 q 253 244 250 254 q 319 214 264 214 q 360 220 347 214 q 382 240 374 226 q 390 255 386 247 q 394 275 393 263 q 397 306 396 288 q 397 357 397 325 l 397 407 m 221 1125 l 221 1296 l 408 1296 l 408 1125 l 221 1125 z "},"ġ":{"ha":624,"x_min":31,"x_max":596,"o":"m 31 0 m 397 407 l 296 407 l 296 618 l 593 618 q 595 538 594 590 q 596 411 596 485 q 593 268 596 325 q 584 174 590 211 q 569 113 578 136 q 547 68 560 89 q 515 27 533 43 q 468 1 496 11 q 403 -14 440 -10 q 315 -18 365 -18 q 162 1 214 -18 q 82 68 110 19 q 58 120 68 92 q 42 199 49 149 q 33 328 36 249 q 31 535 31 407 q 33 733 31 657 q 42 858 36 810 q 58 935 49 907 q 82 986 68 963 q 163 1051 110 1033 q 315 1069 215 1069 q 489 1040 431 1069 q 571 939 547 1010 q 589 785 589 881 q 589 755 589 765 q 588 731 589 744 l 385 731 q 386 740 386 735 q 386 749 386 744 q 383 800 386 783 q 378 828 381 817 q 314 854 372 854 q 273 848 286 854 q 254 828 260 842 q 249 802 251 817 q 244 758 246 788 q 242 675 243 728 q 242 538 242 622 q 242 394 242 447 q 244 310 243 340 q 248 267 246 281 q 253 244 250 254 q 319 214 264 214 q 360 220 347 214 q 382 240 374 226 q 390 255 386 247 q 394 275 393 263 q 397 306 396 288 q 397 357 397 325 l 397 407 m 221 1125 l 221 1296 l 408 1296 l 408 1125 l 221 1125 z "},"Ģ":{"ha":624,"x_min":31,"x_max":596,"o":"m 31 0 m 397 407 l 296 407 l 296 618 l 593 618 q 595 538 594 590 q 596 411 596 485 q 593 268 596 325 q 584 174 590 211 q 569 113 578 136 q 547 68 560 89 q 515 27 533 43 q 468 1 496 11 q 403 -14 440 -10 q 315 -18 365 -18 q 162 1 214 -18 q 82 68 110 19 q 58 120 68 92 q 42 199 49 149 q 33 328 36 249 q 31 535 31 407 q 33 733 31 657 q 42 858 36 810 q 58 935 49 907 q 82 986 68 963 q 163 1051 110 1033 q 315 1069 215 1069 q 489 1040 431 1069 q 571 939 547 1010 q 589 785 589 881 q 589 755 589 765 q 588 731 589 744 l 385 731 q 386 740 386 735 q 386 749 386 744 q 383 800 386 783 q 378 828 381 817 q 314 854 372 854 q 273 848 286 854 q 254 828 260 842 q 249 802 251 817 q 244 758 246 788 q 242 675 243 728 q 242 538 242 622 q 242 394 242 447 q 244 310 243 340 q 248 267 246 281 q 253 244 250 254 q 319 214 264 214 q 360 220 347 214 q 382 240 374 226 q 390 255 386 247 q 394 275 393 263 q 397 306 396 288 q 397 357 397 325 l 397 407 m 149 -331 l 149 -324 l 228 -57 l 417 -57 l 417 -65 l 306 -331 l 149 -331 z "},"ģ":{"ha":624,"x_min":31,"x_max":596,"o":"m 31 0 m 397 407 l 296 407 l 296 618 l 593 618 q 595 538 594 590 q 596 411 596 485 q 593 268 596 325 q 584 174 590 211 q 569 113 578 136 q 547 68 560 89 q 515 27 533 43 q 468 1 496 11 q 403 -14 440 -10 q 315 -18 365 -18 q 162 1 214 -18 q 82 68 110 19 q 58 120 68 92 q 42 199 49 149 q 33 328 36 249 q 31 535 31 407 q 33 733 31 657 q 42 858 36 810 q 58 935 49 907 q 82 986 68 963 q 163 1051 110 1033 q 315 1069 215 1069 q 489 1040 431 1069 q 571 939 547 1010 q 589 785 589 881 q 589 755 589 765 q 588 731 589 744 l 385 731 q 386 740 386 735 q 386 749 386 744 q 383 800 386 783 q 378 828 381 817 q 314 854 372 854 q 273 848 286 854 q 254 828 260 842 q 249 802 251 817 q 244 758 246 788 q 242 675 243 728 q 242 538 242 622 q 242 394 242 447 q 244 310 243 340 q 248 267 246 281 q 253 244 250 254 q 319 214 264 214 q 360 220 347 214 q 382 240 374 226 q 390 255 386 247 q 394 275 393 263 q 397 306 396 288 q 397 357 397 325 l 397 407 m 149 -331 l 149 -324 l 228 -57 l 417 -57 l 417 -65 l 306 -331 l 149 -331 z "},"Ħ":{"ha":672,"x_min":44,"x_max":628,"o":"m 404 0 l 404 396 l 268 396 l 268 0 l 44 0 l 44 1051 l 268 1051 l 268 894 l 404 894 l 404 1051 l 628 1051 l 628 0 l 404 0 m 404 747 l 268 747 l 268 608 l 404 608 l 404 747 z "},"ħ":{"ha":672,"x_min":44,"x_max":628,"o":"m 44 0 m 404 0 l 404 396 l 268 396 l 268 0 l 44 0 l 44 1051 l 268 1051 l 268 894 l 404 894 l 404 1051 l 628 1051 l 628 0 l 404 0 m 404 747 l 268 747 l 268 608 l 404 608 l 404 747 z "},"Ī":{"ha":324,"x_min":-115,"x_max":440,"o":"m 0 0 m 50 0 l 50 1051 l 274 1051 l 274 0 l 50 0 m -115 1143 l -115 1290 l 440 1290 l 440 1143 l -115 1143 z "},"ī":{"ha":324,"x_min":-115,"x_max":440,"o":"m 0 0 m 50 0 l 50 1051 l 274 1051 l 274 0 l 50 0 m -115 1143 l -115 1290 l 440 1290 l 440 1143 l -115 1143 z "},"Ĭ":{"ha":324,"x_min":-67,"x_max":390,"o":"m 0 0 m 50 0 l 50 1051 l 274 1051 l 274 0 l 50 0 m 390 1336 q 388 1251 390 1285 q 380 1197 385 1218 q 368 1162 375 1175 q 351 1139 361 1149 q 286 1104 329 1113 q 161 1096 243 1096 q 38 1104 81 1096 q -28 1139 -6 1113 q -44 1162 -37 1149 q -56 1197 -51 1175 q -64 1251 -61 1218 q -67 1336 -67 1285 l 75 1336 q 76 1291 75 1308 q 78 1263 76 1274 q 83 1247 81 1253 q 92 1236 86 1240 q 113 1227 99 1229 q 161 1225 126 1225 q 211 1227 197 1225 q 231 1236 225 1229 q 238 1247 235 1242 q 244 1263 242 1253 q 247 1291 246 1274 q 249 1336 249 1308 l 390 1336 z "},"ĭ":{"ha":324,"x_min":-67,"x_max":390,"o":"m 0 0 m 50 0 l 50 1051 l 274 1051 l 274 0 l 50 0 m 390 1336 q 388 1251 390 1285 q 380 1197 385 1218 q 368 1162 375 1175 q 351 1139 361 1149 q 286 1104 329 1113 q 161 1096 243 1096 q 38 1104 81 1096 q -28 1139 -6 1113 q -44 1162 -37 1149 q -56 1197 -51 1175 q -64 1251 -61 1218 q -67 1336 -67 1285 l 75 1336 q 76 1291 75 1308 q 78 1263 76 1274 q 83 1247 81 1253 q 92 1236 86 1240 q 113 1227 99 1229 q 161 1225 126 1225 q 211 1227 197 1225 q 231 1236 225 1229 q 238 1247 235 1242 q 244 1263 242 1253 q 247 1291 246 1274 q 249 1336 249 1308 l 390 1336 z "},"Į":{"ha":324,"x_min":-86,"x_max":274,"o":"m 272 -278 q 218 -312 261 -293 q 100 -331 175 -331 q -86 -183 -86 -331 q -80 -140 -86 -161 q -58 -97 -74 -118 q -17 -59 -43 -76 q 50 -28 10 -42 l 50 1051 l 274 1051 l 274 0 q 223 -18 249 -8 q 177 -39 197 -28 q 144 -65 157 -50 q 132 -99 132 -79 q 147 -147 132 -132 q 201 -162 163 -162 q 239 -158 224 -162 q 265 -149 254 -153 l 272 -149 l 272 -278 z "},"į":{"ha":324,"x_min":-86,"x_max":274,"o":"m 0 0 m 272 -278 q 218 -312 261 -293 q 100 -331 175 -331 q -86 -183 -86 -331 q -80 -140 -86 -161 q -58 -97 -74 -118 q -17 -59 -43 -76 q 50 -28 10 -42 l 50 1051 l 274 1051 l 274 0 q 223 -18 249 -8 q 177 -39 197 -28 q 144 -65 157 -50 q 132 -99 132 -79 q 147 -147 132 -132 q 201 -162 163 -162 q 239 -158 224 -162 q 265 -149 254 -153 l 272 -149 l 272 -278 z "},"İ":{"ha":324,"x_min":50,"x_max":274,"o":"m 50 0 m 50 0 l 50 1051 l 274 1051 l 274 0 l 50 0 m 68 1125 l 68 1296 l 256 1296 l 256 1125 l 68 1125 z "},"ı":{"ha":324,"x_min":50,"x_max":274,"o":"m 50 0 m 50 0 l 50 1051 l 274 1051 l 274 0 l 50 0 z "},"Ĳ":{"ha":939,"x_min":50,"x_max":901,"o":"m 50 0 m 50 0 l 50 1051 l 274 1051 l 274 0 l 50 0 m 678 1051 l 901 1051 l 901 542 q 899 342 901 422 q 890 208 896 261 q 874 122 883 154 q 851 68 865 90 q 818 28 838 44 q 770 1 799 11 q 702 -14 742 -10 q 611 -18 663 -18 q 470 1 524 -18 q 388 61 417 21 q 349 163 358 101 q 340 308 340 225 q 344 403 340 353 l 539 403 q 540 347 539 371 q 542 303 540 322 q 546 269 543 285 q 553 240 549 254 q 603 217 563 217 q 647 222 635 217 q 665 242 660 228 q 671 268 668 253 q 675 314 674 283 q 677 397 676 344 q 678 536 678 449 l 678 1051 z "},"ĳ":{"ha":939,"x_min":50,"x_max":901,"o":"m 50 0 m 50 0 l 50 1051 l 274 1051 l 274 0 l 50 0 m 678 1051 l 901 1051 l 901 542 q 899 342 901 422 q 890 208 896 261 q 874 122 883 154 q 851 68 865 90 q 818 28 838 44 q 770 1 799 11 q 702 -14 742 -10 q 611 -18 663 -18 q 470 1 524 -18 q 388 61 417 21 q 349 163 358 101 q 340 308 340 225 q 344 403 340 353 l 539 403 q 540 347 539 371 q 542 303 540 322 q 546 269 543 285 q 553 240 549 254 q 603 217 563 217 q 647 222 635 217 q 665 242 660 228 q 671 268 668 253 q 675 314 674 283 q 677 397 676 344 q 678 536 678 449 l 678 1051 z "},"Ķ":{"ha":678,"x_min":47,"x_max":664,"o":"m 47 0 m 414 0 l 282 472 l 268 472 q 271 434 271 454 q 271 394 271 414 l 271 0 l 47 0 l 47 1051 l 271 1051 l 271 668 q 270 638 271 651 q 268 611 269 625 l 282 611 l 422 1051 l 651 1051 l 651 1044 l 492 575 l 664 7 l 664 0 l 414 0 m 165 -331 l 165 -324 l 244 -57 l 433 -57 l 433 -65 l 322 -331 l 165 -331 z "},"ķ":{"ha":678,"x_min":47,"x_max":664,"o":"m 47 0 m 414 0 l 282 472 l 268 472 q 271 434 271 454 q 271 394 271 414 l 271 0 l 47 0 l 47 1051 l 271 1051 l 271 668 q 270 638 271 651 q 268 611 269 625 l 282 611 l 422 1051 l 651 1051 l 651 1044 l 492 575 l 664 7 l 664 0 l 414 0 m 165 -331 l 165 -324 l 244 -57 l 433 -57 l 433 -65 l 322 -331 l 165 -331 z "},"Ĺ":{"ha":508,"x_min":47,"x_max":490,"o":"m 47 0 m 47 0 l 47 1051 l 265 1051 l 265 233 l 490 233 l 490 0 l 47 0 m 163 1096 l 163 1103 l 289 1336 l 485 1336 l 485 1328 l 325 1096 l 163 1096 z "},"ĺ":{"ha":508,"x_min":47,"x_max":490,"o":"m 47 0 m 47 0 l 47 1051 l 265 1051 l 265 233 l 490 233 l 490 0 l 47 0 m 163 1096 l 163 1103 l 289 1336 l 485 1336 l 485 1328 l 325 1096 l 163 1096 z "},"Ļ":{"ha":508,"x_min":47,"x_max":490,"o":"m 47 0 m 47 0 l 47 1051 l 265 1051 l 265 233 l 490 233 l 490 0 l 47 0 m 100 -331 l 100 -324 l 179 -57 l 368 -57 l 368 -65 l 257 -331 l 100 -331 z "},"ļ":{"ha":508,"x_min":47,"x_max":490,"o":"m 47 0 m 47 0 l 47 1051 l 265 1051 l 265 233 l 490 233 l 490 0 l 47 0 m 100 -331 l 100 -324 l 179 -57 l 368 -57 l 368 -65 l 257 -331 l 100 -331 z "},"Ľ":{"ha":540,"x_min":47,"x_max":565,"o":"m 47 0 m 47 0 l 47 1051 l 265 1051 l 265 233 l 490 233 l 490 0 l 47 0 m 297 821 l 297 828 l 376 1094 l 565 1094 l 565 1086 l 454 821 l 297 821 z "},"ľ":{"ha":540,"x_min":47,"x_max":565,"o":"m 47 0 m 47 0 l 47 1051 l 265 1051 l 265 233 l 490 233 l 490 0 l 47 0 m 297 821 l 297 828 l 376 1094 l 565 1094 l 565 1086 l 454 821 l 297 821 z "},"Ŀ":{"ha":518,"x_min":47,"x_max":513,"o":"m 47 0 m 47 0 l 47 1051 l 265 1051 l 265 233 l 490 233 l 490 0 l 47 0 m 325 482 l 325 653 l 513 653 l 513 482 l 325 482 z "},"ŀ":{"ha":518,"x_min":47,"x_max":513,"o":"m 47 0 m 47 0 l 47 1051 l 265 1051 l 265 233 l 490 233 l 490 0 l 47 0 m 325 482 l 325 653 l 513 653 l 513 482 l 325 482 z "},"Ł":{"ha":508,"x_min":0,"x_max":490,"o":"m 47 0 l 47 542 l 7 521 l 0 521 l 0 692 l 47 717 l 47 1051 l 265 1051 l 265 833 l 415 914 l 422 914 l 422 744 l 265 660 l 265 233 l 490 233 l 490 0 l 47 0 z "},"ł":{"ha":508,"x_min":0,"x_max":490,"o":"m 0 0 m 47 0 l 47 542 l 7 521 l 0 521 l 0 692 l 47 717 l 47 1051 l 265 1051 l 265 833 l 415 914 l 422 914 l 422 744 l 265 660 l 265 233 l 490 233 l 490 0 l 47 0 z "},"Ń":{"ha":660,"x_min":46,"x_max":615,"o":"m 46 0 m 501 0 l 253 564 l 244 564 l 244 0 l 46 0 l 46 1051 l 260 1051 l 407 686 l 415 686 l 415 1051 l 615 1051 l 615 0 l 501 0 m 238 1096 l 238 1103 l 364 1336 l 560 1336 l 560 1328 l 400 1096 l 238 1096 z "},"ń":{"ha":660,"x_min":46,"x_max":615,"o":"m 46 0 m 501 0 l 253 564 l 244 564 l 244 0 l 46 0 l 46 1051 l 260 1051 l 407 686 l 415 686 l 415 1051 l 615 1051 l 615 0 l 501 0 m 238 1096 l 238 1103 l 364 1336 l 560 1336 l 560 1328 l 400 1096 l 238 1096 z "},"Ņ":{"ha":660,"x_min":46,"x_max":615,"o":"m 46 0 m 501 0 l 253 564 l 244 564 l 244 0 l 46 0 l 46 1051 l 260 1051 l 407 686 l 415 686 l 415 1051 l 615 1051 l 615 0 l 501 0 m 196 -331 l 196 -324 l 275 -57 l 464 -57 l 464 -65 l 353 -331 l 196 -331 z "},"ņ":{"ha":660,"x_min":46,"x_max":615,"o":"m 46 0 m 501 0 l 253 564 l 244 564 l 244 0 l 46 0 l 46 1051 l 260 1051 l 407 686 l 415 686 l 415 1051 l 615 1051 l 615 0 l 501 0 m 196 -331 l 196 -324 l 275 -57 l 464 -57 l 464 -65 l 353 -331 l 196 -331 z "},"Ň":{"ha":660,"x_min":46,"x_max":615,"o":"m 46 0 m 501 0 l 253 564 l 244 564 l 244 0 l 46 0 l 46 1051 l 260 1051 l 407 686 l 415 686 l 415 1051 l 615 1051 l 615 0 l 501 0 m 257 1096 l 85 1328 l 85 1336 l 256 1336 l 322 1240 l 338 1240 l 401 1336 l 574 1336 l 574 1328 l 400 1096 l 257 1096 z "},"ň":{"ha":660,"x_min":46,"x_max":615,"o":"m 46 0 m 501 0 l 253 564 l 244 564 l 244 0 l 46 0 l 46 1051 l 260 1051 l 407 686 l 415 686 l 415 1051 l 615 1051 l 615 0 l 501 0 m 257 1096 l 85 1328 l 85 1336 l 256 1336 l 322 1240 l 338 1240 l 401 1336 l 574 1336 l 574 1328 l 400 1096 l 257 1096 z "},"Ŋ":{"ha":660,"x_min":46,"x_max":615,"o":"m 260 -144 l 269 -144 q 336 -151 300 -151 q 377 -147 361 -151 q 401 -132 393 -143 q 413 -101 410 -121 q 415 -50 415 -82 l 415 194 l 253 564 l 244 564 l 244 0 l 46 0 l 46 1051 l 260 1051 l 407 686 l 415 686 l 415 1051 l 615 1051 l 615 -54 q 613 -132 615 -100 q 605 -188 610 -164 q 591 -231 600 -212 q 569 -267 582 -249 q 542 -297 557 -285 q 503 -316 526 -308 q 449 -327 481 -324 q 371 -331 417 -331 q 346 -329 363 -331 q 312 -326 329 -328 q 280 -320 294 -324 q 260 -312 265 -317 l 260 -144 z "},"ŋ":{"ha":660,"x_min":46,"x_max":615,"o":"m 46 0 m 260 -144 l 269 -144 q 336 -151 300 -151 q 377 -147 361 -151 q 401 -132 393 -143 q 413 -101 410 -121 q 415 -50 415 -82 l 415 194 l 253 564 l 244 564 l 244 0 l 46 0 l 46 1051 l 260 1051 l 407 686 l 415 686 l 415 1051 l 615 1051 l 615 -54 q 613 -132 615 -100 q 605 -188 610 -164 q 591 -231 600 -212 q 569 -267 582 -249 q 542 -297 557 -285 q 503 -316 526 -308 q 449 -327 481 -324 q 371 -331 417 -331 q 346 -329 363 -331 q 312 -326 329 -328 q 280 -320 294 -324 q 260 -312 265 -317 l 260 -144 z "},"Ō":{"ha":629,"x_min":31,"x_max":599,"o":"m 31 0 m 547 68 q 515 27 533 43 q 468 1 496 11 q 403 -14 440 -10 q 315 -18 365 -18 q 162 1 214 -18 q 82 68 110 19 q 58 120 68 92 q 42 197 49 149 q 33 324 36 246 q 31 526 31 403 q 33 728 31 650 q 42 854 36 806 q 58 931 49 903 q 82 983 68 958 q 115 1024 96 1007 q 161 1051 133 1040 q 227 1065 189 1061 q 315 1069 265 1069 q 467 1050 415 1069 q 547 983 519 1031 q 571 931 561 958 q 587 854 581 903 q 596 728 593 806 q 599 526 599 650 q 596 324 599 403 q 587 197 593 246 q 571 120 581 149 q 547 68 561 92 m 369 242 q 375 267 372 251 q 379 313 378 282 q 381 395 381 343 q 382 532 382 447 q 381 672 382 619 q 379 756 381 725 q 375 803 378 788 q 369 828 372 818 q 353 848 364 842 q 315 854 342 854 q 277 848 289 854 q 261 828 265 842 q 255 803 257 818 q 251 756 253 788 q 248 672 249 725 q 247 532 247 619 q 248 395 247 447 q 251 313 249 343 q 255 267 253 282 q 261 242 257 251 q 277 222 265 228 q 315 217 289 217 q 353 222 342 217 q 369 242 364 228 m 38 1143 l 38 1290 l 593 1290 l 593 1143 l 38 1143 z "},"ō":{"ha":629,"x_min":31,"x_max":599,"o":"m 31 0 m 547 68 q 515 27 533 43 q 468 1 496 11 q 403 -14 440 -10 q 315 -18 365 -18 q 162 1 214 -18 q 82 68 110 19 q 58 120 68 92 q 42 197 49 149 q 33 324 36 246 q 31 526 31 403 q 33 728 31 650 q 42 854 36 806 q 58 931 49 903 q 82 983 68 958 q 115 1024 96 1007 q 161 1051 133 1040 q 227 1065 189 1061 q 315 1069 265 1069 q 467 1050 415 1069 q 547 983 519 1031 q 571 931 561 958 q 587 854 581 903 q 596 728 593 806 q 599 526 599 650 q 596 324 599 403 q 587 197 593 246 q 571 120 581 149 q 547 68 561 92 m 369 242 q 375 267 372 251 q 379 313 378 282 q 381 395 381 343 q 382 532 382 447 q 381 672 382 619 q 379 756 381 725 q 375 803 378 788 q 369 828 372 818 q 353 848 364 842 q 315 854 342 854 q 277 848 289 854 q 261 828 265 842 q 255 803 257 818 q 251 756 253 788 q 248 672 249 725 q 247 532 247 619 q 248 395 247 447 q 251 313 249 343 q 255 267 253 282 q 261 242 257 251 q 277 222 265 228 q 315 217 289 217 q 353 222 342 217 q 369 242 364 228 m 38 1143 l 38 1290 l 593 1290 l 593 1143 l 38 1143 z "},"Ŏ":{"ha":629,"x_min":31,"x_max":599,"o":"m 31 0 m 547 68 q 515 27 533 43 q 468 1 496 11 q 403 -14 440 -10 q 315 -18 365 -18 q 162 1 214 -18 q 82 68 110 19 q 58 120 68 92 q 42 197 49 149 q 33 324 36 246 q 31 526 31 403 q 33 728 31 650 q 42 854 36 806 q 58 931 49 903 q 82 983 68 958 q 115 1024 96 1007 q 161 1051 133 1040 q 227 1065 189 1061 q 315 1069 265 1069 q 467 1050 415 1069 q 547 983 519 1031 q 571 931 561 958 q 587 854 581 903 q 596 728 593 806 q 599 526 599 650 q 596 324 599 403 q 587 197 593 246 q 571 120 581 149 q 547 68 561 92 m 369 242 q 375 267 372 251 q 379 313 378 282 q 381 395 381 343 q 382 532 382 447 q 381 672 382 619 q 379 756 381 725 q 375 803 378 788 q 369 828 372 818 q 353 848 364 842 q 315 854 342 854 q 277 848 289 854 q 261 828 265 842 q 255 803 257 818 q 251 756 253 788 q 248 672 249 725 q 247 532 247 619 q 248 395 247 447 q 251 313 249 343 q 255 267 253 282 q 261 242 257 251 q 277 222 265 228 q 315 217 289 217 q 353 222 342 217 q 369 242 364 228 m 543 1336 q 540 1251 543 1285 q 533 1197 538 1218 q 521 1162 528 1175 q 504 1139 514 1149 q 439 1104 482 1113 q 314 1096 396 1096 q 190 1104 233 1096 q 125 1139 147 1113 q 108 1162 115 1149 q 97 1197 101 1175 q 89 1251 92 1218 q 86 1336 86 1285 l 228 1336 q 228 1291 228 1308 q 231 1263 229 1274 q 236 1247 233 1253 q 244 1236 239 1240 q 265 1227 251 1229 q 314 1225 279 1225 q 364 1227 350 1225 q 383 1236 378 1229 q 391 1247 388 1242 q 397 1263 394 1253 q 400 1291 399 1274 q 401 1336 401 1308 l 543 1336 z "},"ŏ":{"ha":629,"x_min":31,"x_max":599,"o":"m 31 0 m 547 68 q 515 27 533 43 q 468 1 496 11 q 403 -14 440 -10 q 315 -18 365 -18 q 162 1 214 -18 q 82 68 110 19 q 58 120 68 92 q 42 197 49 149 q 33 324 36 246 q 31 526 31 403 q 33 728 31 650 q 42 854 36 806 q 58 931 49 903 q 82 983 68 958 q 115 1024 96 1007 q 161 1051 133 1040 q 227 1065 189 1061 q 315 1069 265 1069 q 467 1050 415 1069 q 547 983 519 1031 q 571 931 561 958 q 587 854 581 903 q 596 728 593 806 q 599 526 599 650 q 596 324 599 403 q 587 197 593 246 q 571 120 581 149 q 547 68 561 92 m 369 242 q 375 267 372 251 q 379 313 378 282 q 381 395 381 343 q 382 532 382 447 q 381 672 382 619 q 379 756 381 725 q 375 803 378 788 q 369 828 372 818 q 353 848 364 842 q 315 854 342 854 q 277 848 289 854 q 261 828 265 842 q 255 803 257 818 q 251 756 253 788 q 248 672 249 725 q 247 532 247 619 q 248 395 247 447 q 251 313 249 343 q 255 267 253 282 q 261 242 257 251 q 277 222 265 228 q 315 217 289 217 q 353 222 342 217 q 369 242 364 228 m 543 1336 q 540 1251 543 1285 q 533 1197 538 1218 q 521 1162 528 1175 q 504 1139 514 1149 q 439 1104 482 1113 q 314 1096 396 1096 q 190 1104 233 1096 q 125 1139 147 1113 q 108 1162 115 1149 q 97 1197 101 1175 q 89 1251 92 1218 q 86 1336 86 1285 l 228 1336 q 228 1291 228 1308 q 231 1263 229 1274 q 236 1247 233 1253 q 244 1236 239 1240 q 265 1227 251 1229 q 314 1225 279 1225 q 364 1227 350 1225 q 383 1236 378 1229 q 391 1247 388 1242 q 397 1263 394 1253 q 400 1291 399 1274 q 401 1336 401 1308 l 543 1336 z "},"Ő":{"ha":629,"x_min":31,"x_max":681,"o":"m 31 0 m 547 68 q 515 27 533 43 q 468 1 496 11 q 403 -14 440 -10 q 315 -18 365 -18 q 162 1 214 -18 q 82 68 110 19 q 58 120 68 92 q 42 197 49 149 q 33 324 36 246 q 31 526 31 403 q 33 728 31 650 q 42 854 36 806 q 58 931 49 903 q 82 983 68 958 q 115 1024 96 1007 q 161 1051 133 1040 q 227 1065 189 1061 q 315 1069 265 1069 q 467 1050 415 1069 q 547 983 519 1031 q 571 931 561 958 q 587 854 581 903 q 596 728 593 806 q 599 526 599 650 q 596 324 599 403 q 587 197 593 246 q 571 120 581 149 q 547 68 561 92 m 369 242 q 375 267 372 251 q 379 313 378 282 q 381 395 381 343 q 382 532 382 447 q 381 672 382 619 q 379 756 381 725 q 375 803 378 788 q 369 828 372 818 q 353 848 364 842 q 315 854 342 854 q 277 848 289 854 q 261 828 265 842 q 255 803 257 818 q 251 756 253 788 q 248 672 249 725 q 247 532 247 619 q 248 395 247 447 q 251 313 249 343 q 255 267 253 282 q 261 242 257 251 q 277 222 265 228 q 315 217 289 217 q 353 222 342 217 q 369 242 364 228 m 360 1096 l 360 1103 l 486 1336 l 681 1336 l 681 1328 l 522 1096 l 360 1096 m 88 1096 l 88 1103 l 214 1336 l 410 1336 l 410 1328 l 250 1096 l 88 1096 z "},"ő":{"ha":629,"x_min":31,"x_max":681,"o":"m 31 0 m 547 68 q 515 27 533 43 q 468 1 496 11 q 403 -14 440 -10 q 315 -18 365 -18 q 162 1 214 -18 q 82 68 110 19 q 58 120 68 92 q 42 197 49 149 q 33 324 36 246 q 31 526 31 403 q 33 728 31 650 q 42 854 36 806 q 58 931 49 903 q 82 983 68 958 q 115 1024 96 1007 q 161 1051 133 1040 q 227 1065 189 1061 q 315 1069 265 1069 q 467 1050 415 1069 q 547 983 519 1031 q 571 931 561 958 q 587 854 581 903 q 596 728 593 806 q 599 526 599 650 q 596 324 599 403 q 587 197 593 246 q 571 120 581 149 q 547 68 561 92 m 369 242 q 375 267 372 251 q 379 313 378 282 q 381 395 381 343 q 382 532 382 447 q 381 672 382 619 q 379 756 381 725 q 375 803 378 788 q 369 828 372 818 q 353 848 364 842 q 315 854 342 854 q 277 848 289 854 q 261 828 265 842 q 255 803 257 818 q 251 756 253 788 q 248 672 249 725 q 247 532 247 619 q 248 395 247 447 q 251 313 249 343 q 255 267 253 282 q 261 242 257 251 q 277 222 265 228 q 315 217 289 217 q 353 222 342 217 q 369 242 364 228 m 360 1096 l 360 1103 l 486 1336 l 681 1336 l 681 1328 l 522 1096 l 360 1096 m 88 1096 l 88 1103 l 214 1336 l 410 1336 l 410 1328 l 250 1096 l 88 1096 z "},"Œ":{"ha":896,"x_min":31,"x_max":856,"o":"m 314 0 q 161 18 214 0 q 82 83 108 36 q 58 133 68 106 q 42 208 49 161 q 33 331 36 256 q 31 526 31 407 q 33 721 31 646 q 42 843 36 796 q 58 917 49 890 q 82 968 68 944 q 161 1033 108 1014 q 314 1051 214 1051 l 856 1051 l 856 829 l 607 829 l 607 644 l 851 644 l 851 432 l 607 432 l 607 233 l 854 233 l 854 0 l 314 0 m 390 831 l 321 831 q 283 825 294 831 q 267 808 271 819 q 260 785 263 799 q 256 742 258 771 q 253 662 254 713 q 253 531 253 611 q 253 401 253 450 q 256 322 254 351 q 260 280 258 293 q 267 257 263 267 q 283 238 271 243 q 321 232 294 232 l 390 232 l 390 831 z "},"œ":{"ha":896,"x_min":31,"x_max":856,"o":"m 31 0 m 314 0 q 161 18 214 0 q 82 83 108 36 q 58 133 68 106 q 42 208 49 161 q 33 331 36 256 q 31 526 31 407 q 33 721 31 646 q 42 843 36 796 q 58 917 49 890 q 82 968 68 944 q 161 1033 108 1014 q 314 1051 214 1051 l 856 1051 l 856 829 l 607 829 l 607 644 l 851 644 l 851 432 l 607 432 l 607 233 l 854 233 l 854 0 l 314 0 m 390 831 l 321 831 q 283 825 294 831 q 267 808 271 819 q 260 785 263 799 q 256 742 258 771 q 253 662 254 713 q 253 531 253 611 q 253 401 253 450 q 256 322 254 351 q 260 280 258 293 q 267 257 263 267 q 283 238 271 243 q 321 232 294 232 l 390 232 l 390 831 z "},"Ŕ":{"ha":642,"x_min":47,"x_max":624,"o":"m 47 0 m 392 0 q 384 27 388 13 q 376 72 381 42 q 365 154 372 101 q 349 299 358 207 q 340 357 344 335 q 331 391 336 379 q 317 406 325 403 q 299 410 308 410 l 265 410 l 265 0 l 47 0 l 47 1051 l 365 1051 q 482 1035 436 1051 q 555 985 528 1019 q 592 898 582 951 q 603 768 603 844 q 597 640 603 686 q 580 567 592 593 q 551 527 568 540 q 513 501 535 514 l 513 493 q 530 478 521 486 q 546 450 539 469 q 569 374 557 425 q 592 232 581 324 q 604 129 600 168 q 612 67 608 90 q 617 31 615 43 q 624 7 619 18 l 624 0 l 392 0 m 326 606 q 369 631 357 606 q 382 731 382 657 q 367 814 382 793 q 321 835 353 835 l 265 835 l 265 606 l 326 606 m 219 1096 l 219 1103 l 346 1336 l 542 1336 l 542 1328 l 382 1096 l 219 1096 z "},"ŕ":{"ha":642,"x_min":47,"x_max":624,"o":"m 47 0 m 392 0 q 384 27 388 13 q 376 72 381 42 q 365 154 372 101 q 349 299 358 207 q 340 357 344 335 q 331 391 336 379 q 317 406 325 403 q 299 410 308 410 l 265 410 l 265 0 l 47 0 l 47 1051 l 365 1051 q 482 1035 436 1051 q 555 985 528 1019 q 592 898 582 951 q 603 768 603 844 q 597 640 603 686 q 580 567 592 593 q 551 527 568 540 q 513 501 535 514 l 513 493 q 530 478 521 486 q 546 450 539 469 q 569 374 557 425 q 592 232 581 324 q 604 129 600 168 q 612 67 608 90 q 617 31 615 43 q 624 7 619 18 l 624 0 l 392 0 m 326 606 q 369 631 357 606 q 382 731 382 657 q 367 814 382 793 q 321 835 353 835 l 265 835 l 265 606 l 326 606 m 219 1096 l 219 1103 l 346 1336 l 542 1336 l 542 1328 l 382 1096 l 219 1096 z "},"Ŗ":{"ha":642,"x_min":47,"x_max":624,"o":"m 47 0 m 392 0 q 384 27 388 13 q 376 72 381 42 q 365 154 372 101 q 349 299 358 207 q 340 357 344 335 q 331 391 336 379 q 317 406 325 403 q 299 410 308 410 l 265 410 l 265 0 l 47 0 l 47 1051 l 365 1051 q 482 1035 436 1051 q 555 985 528 1019 q 592 898 582 951 q 603 768 603 844 q 597 640 603 686 q 580 567 592 593 q 551 527 568 540 q 513 501 535 514 l 513 493 q 530 478 521 486 q 546 450 539 469 q 569 374 557 425 q 592 232 581 324 q 604 129 600 168 q 612 67 608 90 q 617 31 615 43 q 624 7 619 18 l 624 0 l 392 0 m 326 606 q 369 631 357 606 q 382 731 382 657 q 367 814 382 793 q 321 835 353 835 l 265 835 l 265 606 l 326 606 m 158 -331 l 158 -324 l 238 -57 l 426 -57 l 426 -65 l 315 -331 l 158 -331 z "},"ŗ":{"ha":642,"x_min":47,"x_max":624,"o":"m 47 0 m 392 0 q 384 27 388 13 q 376 72 381 42 q 365 154 372 101 q 349 299 358 207 q 340 357 344 335 q 331 391 336 379 q 317 406 325 403 q 299 410 308 410 l 265 410 l 265 0 l 47 0 l 47 1051 l 365 1051 q 482 1035 436 1051 q 555 985 528 1019 q 592 898 582 951 q 603 768 603 844 q 597 640 603 686 q 580 567 592 593 q 551 527 568 540 q 513 501 535 514 l 513 493 q 530 478 521 486 q 546 450 539 469 q 569 374 557 425 q 592 232 581 324 q 604 129 600 168 q 612 67 608 90 q 617 31 615 43 q 624 7 619 18 l 624 0 l 392 0 m 326 606 q 369 631 357 606 q 382 731 382 657 q 367 814 382 793 q 321 835 353 835 l 265 835 l 265 606 l 326 606 m 158 -331 l 158 -324 l 238 -57 l 426 -57 l 426 -65 l 315 -331 l 158 -331 z "},"Ř":{"ha":642,"x_min":47,"x_max":624,"o":"m 47 0 m 392 0 q 384 27 388 13 q 376 72 381 42 q 365 154 372 101 q 349 299 358 207 q 340 357 344 335 q 331 391 336 379 q 317 406 325 403 q 299 410 308 410 l 265 410 l 265 0 l 47 0 l 47 1051 l 365 1051 q 482 1035 436 1051 q 555 985 528 1019 q 592 898 582 951 q 603 768 603 844 q 597 640 603 686 q 580 567 592 593 q 551 527 568 540 q 513 501 535 514 l 513 493 q 530 478 521 486 q 546 450 539 469 q 569 374 557 425 q 592 232 581 324 q 604 129 600 168 q 612 67 608 90 q 617 31 615 43 q 624 7 619 18 l 624 0 l 392 0 m 326 606 q 369 631 357 606 q 382 731 382 657 q 367 814 382 793 q 321 835 353 835 l 265 835 l 265 606 l 326 606 m 240 1096 l 68 1328 l 68 1336 l 239 1336 l 306 1240 l 321 1240 l 385 1336 l 557 1336 l 557 1328 l 383 1096 l 240 1096 z "},"ř":{"ha":642,"x_min":47,"x_max":624,"o":"m 47 0 m 392 0 q 384 27 388 13 q 376 72 381 42 q 365 154 372 101 q 349 299 358 207 q 340 357 344 335 q 331 391 336 379 q 317 406 325 403 q 299 410 308 410 l 265 410 l 265 0 l 47 0 l 47 1051 l 365 1051 q 482 1035 436 1051 q 555 985 528 1019 q 592 898 582 951 q 603 768 603 844 q 597 640 603 686 q 580 567 592 593 q 551 527 568 540 q 513 501 535 514 l 513 493 q 530 478 521 486 q 546 450 539 469 q 569 374 557 425 q 592 232 581 324 q 604 129 600 168 q 612 67 608 90 q 617 31 615 43 q 624 7 619 18 l 624 0 l 392 0 m 326 606 q 369 631 357 606 q 382 731 382 657 q 367 814 382 793 q 321 835 353 835 l 265 835 l 265 606 l 326 606 m 240 1096 l 68 1328 l 68 1336 l 239 1336 l 306 1240 l 321 1240 l 385 1336 l 557 1336 l 557 1328 l 383 1096 l 240 1096 z "},"Ś":{"ha":583,"x_min":25,"x_max":554,"o":"m 25 0 m 347 725 q 349 744 349 736 q 349 771 349 751 q 337 838 349 819 q 285 857 325 857 q 233 838 244 857 q 222 771 222 819 q 234 706 222 725 q 272 672 246 688 q 330 642 303 654 q 380 619 357 629 q 424 599 403 608 q 465 575 444 589 q 505 540 488 558 q 533 491 522 521 q 549 417 543 461 q 554 308 554 374 q 541 151 554 214 q 497 51 528 89 q 412 -2 465 14 q 279 -18 358 -18 q 88 31 149 -18 q 26 204 26 81 q 28 285 26 244 q 38 351 31 326 l 219 351 q 217 333 217 343 q 217 313 217 324 q 229 228 217 251 q 283 206 242 206 q 338 226 325 206 q 351 313 351 246 q 339 374 351 353 q 299 414 326 394 q 245 444 274 431 q 188 471 217 458 q 133 498 160 483 q 86 532 107 513 q 34 635 43 569 q 25 804 25 700 q 37 928 25 878 q 78 1010 49 979 q 157 1056 107 1042 q 285 1069 207 1069 q 403 1058 356 1069 q 482 1020 451 1047 q 526 949 513 993 q 539 838 539 904 q 537 769 539 794 q 528 725 535 744 l 347 725 m 196 1096 l 196 1103 l 322 1336 l 518 1336 l 518 1328 l 358 1096 l 196 1096 z "},"ś":{"ha":583,"x_min":25,"x_max":554,"o":"m 25 0 m 347 725 q 349 744 349 736 q 349 771 349 751 q 337 838 349 819 q 285 857 325 857 q 233 838 244 857 q 222 771 222 819 q 234 706 222 725 q 272 672 246 688 q 330 642 303 654 q 380 619 357 629 q 424 599 403 608 q 465 575 444 589 q 505 540 488 558 q 533 491 522 521 q 549 417 543 461 q 554 308 554 374 q 541 151 554 214 q 497 51 528 89 q 412 -2 465 14 q 279 -18 358 -18 q 88 31 149 -18 q 26 204 26 81 q 28 285 26 244 q 38 351 31 326 l 219 351 q 217 333 217 343 q 217 313 217 324 q 229 228 217 251 q 283 206 242 206 q 338 226 325 206 q 351 313 351 246 q 339 374 351 353 q 299 414 326 394 q 245 444 274 431 q 188 471 217 458 q 133 498 160 483 q 86 532 107 513 q 34 635 43 569 q 25 804 25 700 q 37 928 25 878 q 78 1010 49 979 q 157 1056 107 1042 q 285 1069 207 1069 q 403 1058 356 1069 q 482 1020 451 1047 q 526 949 513 993 q 539 838 539 904 q 537 769 539 794 q 528 725 535 744 l 347 725 m 196 1096 l 196 1103 l 322 1336 l 518 1336 l 518 1328 l 358 1096 l 196 1096 z "},"Ş":{"ha":583,"x_min":25,"x_max":554,"o":"m 25 0 m 347 725 q 349 744 349 736 q 349 771 349 751 q 337 838 349 819 q 285 857 325 857 q 233 838 244 857 q 222 771 222 819 q 234 706 222 725 q 272 672 246 688 q 330 642 303 654 q 380 619 357 629 q 424 599 403 608 q 465 575 444 589 q 505 540 488 558 q 533 491 522 521 q 549 417 543 461 q 554 308 554 374 q 541 151 554 214 q 497 51 528 89 q 412 -2 465 14 q 279 -18 358 -18 q 88 31 149 -18 q 26 204 26 81 q 28 285 26 244 q 38 351 31 326 l 219 351 q 217 333 217 343 q 217 313 217 324 q 229 228 217 251 q 283 206 242 206 q 338 226 325 206 q 351 313 351 246 q 339 374 351 353 q 299 414 326 394 q 245 444 274 431 q 188 471 217 458 q 133 498 160 483 q 86 532 107 513 q 34 635 43 569 q 25 804 25 700 q 37 928 25 878 q 78 1010 49 979 q 157 1056 107 1042 q 285 1069 207 1069 q 403 1058 356 1069 q 482 1020 451 1047 q 526 949 513 993 q 539 838 539 904 q 537 769 539 794 q 528 725 535 744 l 347 725 m 103 -331 l 103 -324 l 182 -57 l 371 -57 l 371 -65 l 260 -331 l 103 -331 z "},"ş":{"ha":583,"x_min":25,"x_max":554,"o":"m 25 0 m 347 725 q 349 744 349 736 q 349 771 349 751 q 337 838 349 819 q 285 857 325 857 q 233 838 244 857 q 222 771 222 819 q 234 706 222 725 q 272 672 246 688 q 330 642 303 654 q 380 619 357 629 q 424 599 403 608 q 465 575 444 589 q 505 540 488 558 q 533 491 522 521 q 549 417 543 461 q 554 308 554 374 q 541 151 554 214 q 497 51 528 89 q 412 -2 465 14 q 279 -18 358 -18 q 88 31 149 -18 q 26 204 26 81 q 28 285 26 244 q 38 351 31 326 l 219 351 q 217 333 217 343 q 217 313 217 324 q 229 228 217 251 q 283 206 242 206 q 338 226 325 206 q 351 313 351 246 q 339 374 351 353 q 299 414 326 394 q 245 444 274 431 q 188 471 217 458 q 133 498 160 483 q 86 532 107 513 q 34 635 43 569 q 25 804 25 700 q 37 928 25 878 q 78 1010 49 979 q 157 1056 107 1042 q 285 1069 207 1069 q 403 1058 356 1069 q 482 1020 451 1047 q 526 949 513 993 q 539 838 539 904 q 537 769 539 794 q 528 725 535 744 l 347 725 m 103 -331 l 103 -324 l 182 -57 l 371 -57 l 371 -65 l 260 -331 l 103 -331 z "},"Š":{"ha":583,"x_min":25,"x_max":554,"o":"m 25 0 m 347 725 q 349 744 349 736 q 349 771 349 751 q 337 838 349 819 q 285 857 325 857 q 233 838 244 857 q 222 771 222 819 q 234 706 222 725 q 272 672 246 688 q 330 642 303 654 q 380 619 357 629 q 424 599 403 608 q 465 575 444 589 q 505 540 488 558 q 533 491 522 521 q 549 417 543 461 q 554 308 554 374 q 541 151 554 214 q 497 51 528 89 q 412 -2 465 14 q 279 -18 358 -18 q 88 31 149 -18 q 26 204 26 81 q 28 285 26 244 q 38 351 31 326 l 219 351 q 217 333 217 343 q 217 313 217 324 q 229 228 217 251 q 283 206 242 206 q 338 226 325 206 q 351 313 351 246 q 339 374 351 353 q 299 414 326 394 q 245 444 274 431 q 188 471 217 458 q 133 498 160 483 q 86 532 107 513 q 34 635 43 569 q 25 804 25 700 q 37 928 25 878 q 78 1010 49 979 q 157 1056 107 1042 q 285 1069 207 1069 q 403 1058 356 1069 q 482 1020 451 1047 q 526 949 513 993 q 539 838 539 904 q 537 769 539 794 q 528 725 535 744 l 347 725 m 219 1096 l 47 1328 l 47 1336 l 218 1336 l 285 1240 l 300 1240 l 364 1336 l 536 1336 l 536 1328 l 363 1096 l 219 1096 z "},"š":{"ha":583,"x_min":25,"x_max":554,"o":"m 25 0 m 347 725 q 349 744 349 736 q 349 771 349 751 q 337 838 349 819 q 285 857 325 857 q 233 838 244 857 q 222 771 222 819 q 234 706 222 725 q 272 672 246 688 q 330 642 303 654 q 380 619 357 629 q 424 599 403 608 q 465 575 444 589 q 505 540 488 558 q 533 491 522 521 q 549 417 543 461 q 554 308 554 374 q 541 151 554 214 q 497 51 528 89 q 412 -2 465 14 q 279 -18 358 -18 q 88 31 149 -18 q 26 204 26 81 q 28 285 26 244 q 38 351 31 326 l 219 351 q 217 333 217 343 q 217 313 217 324 q 229 228 217 251 q 283 206 242 206 q 338 226 325 206 q 351 313 351 246 q 339 374 351 353 q 299 414 326 394 q 245 444 274 431 q 188 471 217 458 q 133 498 160 483 q 86 532 107 513 q 34 635 43 569 q 25 804 25 700 q 37 928 25 878 q 78 1010 49 979 q 157 1056 107 1042 q 285 1069 207 1069 q 403 1058 356 1069 q 482 1020 451 1047 q 526 949 513 993 q 539 838 539 904 q 537 769 539 794 q 528 725 535 744 l 347 725 m 219 1096 l 47 1328 l 47 1336 l 218 1336 l 285 1240 l 300 1240 l 364 1336 l 536 1336 l 536 1328 l 363 1096 l 219 1096 z "},"Ţ":{"ha":585,"x_min":18,"x_max":567,"o":"m 18 0 m 183 0 l 183 829 l 18 829 l 18 1051 l 567 1051 l 567 829 l 401 829 l 401 0 l 183 0 m 121 -331 l 121 -324 l 200 -57 l 389 -57 l 389 -65 l 278 -331 l 121 -331 z "},"ţ":{"ha":585,"x_min":18,"x_max":567,"o":"m 18 0 m 183 0 l 183 829 l 18 829 l 18 1051 l 567 1051 l 567 829 l 401 829 l 401 0 l 183 0 m 121 -331 l 121 -324 l 200 -57 l 389 -57 l 389 -65 l 278 -331 l 121 -331 z "},"Ť":{"ha":585,"x_min":18,"x_max":567,"o":"m 18 0 m 183 0 l 183 829 l 18 829 l 18 1051 l 567 1051 l 567 829 l 401 829 l 401 0 l 183 0 m 219 1096 l 47 1328 l 47 1336 l 218 1336 l 285 1240 l 300 1240 l 364 1336 l 536 1336 l 536 1328 l 363 1096 l 219 1096 z "},"ť":{"ha":585,"x_min":18,"x_max":567,"o":"m 18 0 m 183 0 l 183 829 l 18 829 l 18 1051 l 567 1051 l 567 829 l 401 829 l 401 0 l 183 0 m 219 1096 l 47 1328 l 47 1336 l 218 1336 l 285 1240 l 300 1240 l 364 1336 l 536 1336 l 536 1328 l 363 1096 l 219 1096 z "},"Ŧ":{"ha":585,"x_min":18,"x_max":567,"o":"m 183 0 l 183 474 l 67 474 l 67 646 l 183 646 l 183 829 l 18 829 l 18 1051 l 567 1051 l 567 829 l 401 829 l 401 646 l 517 646 l 517 474 l 401 474 l 401 0 l 183 0 z "},"ŧ":{"ha":585,"x_min":18,"x_max":567,"o":"m 18 0 m 183 0 l 183 474 l 67 474 l 67 646 l 183 646 l 183 829 l 18 829 l 18 1051 l 567 1051 l 567 829 l 401 829 l 401 646 l 517 646 l 517 474 l 401 474 l 401 0 l 183 0 z "},"Ũ":{"ha":642,"x_min":38,"x_max":604,"o":"m 38 0 m 388 1051 l 604 1051 l 604 324 q 599 215 603 258 q 588 143 594 172 q 574 95 582 114 q 554 58 565 76 q 522 22 540 36 q 475 -2 503 7 q 410 -15 447 -11 q 322 -18 372 -18 q 168 -2 221 -18 q 89 58 115 14 q 68 95 78 76 q 51 143 58 114 q 41 215 44 172 q 38 324 38 258 l 38 1051 l 261 1051 l 261 324 q 263 265 261 286 q 272 233 265 244 q 292 219 279 222 q 325 217 304 217 q 358 219 346 217 q 376 233 369 222 q 385 265 383 244 q 388 324 388 286 l 388 1051 m 599 1189 q 530 1124 567 1144 q 443 1104 493 1104 q 374 1114 407 1104 q 310 1135 342 1124 q 249 1157 279 1147 q 189 1167 218 1167 q 114 1148 146 1167 q 50 1086 82 1129 l 43 1086 l 43 1239 q 98 1295 64 1271 q 182 1319 132 1319 q 260 1310 224 1319 q 328 1288 296 1300 q 391 1267 361 1276 q 449 1257 421 1257 q 526 1274 492 1257 q 592 1336 560 1292 l 599 1336 l 599 1189 z "},"ũ":{"ha":642,"x_min":38,"x_max":604,"o":"m 38 0 m 388 1051 l 604 1051 l 604 324 q 599 215 603 258 q 588 143 594 172 q 574 95 582 114 q 554 58 565 76 q 522 22 540 36 q 475 -2 503 7 q 410 -15 447 -11 q 322 -18 372 -18 q 168 -2 221 -18 q 89 58 115 14 q 68 95 78 76 q 51 143 58 114 q 41 215 44 172 q 38 324 38 258 l 38 1051 l 261 1051 l 261 324 q 263 265 261 286 q 272 233 265 244 q 292 219 279 222 q 325 217 304 217 q 358 219 346 217 q 376 233 369 222 q 385 265 383 244 q 388 324 388 286 l 388 1051 m 599 1189 q 530 1124 567 1144 q 443 1104 493 1104 q 374 1114 407 1104 q 310 1135 342 1124 q 249 1157 279 1147 q 189 1167 218 1167 q 114 1148 146 1167 q 50 1086 82 1129 l 43 1086 l 43 1239 q 98 1295 64 1271 q 182 1319 132 1319 q 260 1310 224 1319 q 328 1288 296 1300 q 391 1267 361 1276 q 449 1257 421 1257 q 526 1274 492 1257 q 592 1336 560 1292 l 599 1336 l 599 1189 z "},"Ū":{"ha":642,"x_min":38,"x_max":604,"o":"m 38 0 m 388 1051 l 604 1051 l 604 324 q 599 215 603 258 q 588 143 594 172 q 574 95 582 114 q 554 58 565 76 q 522 22 540 36 q 475 -2 503 7 q 410 -15 447 -11 q 322 -18 372 -18 q 168 -2 221 -18 q 89 58 115 14 q 68 95 78 76 q 51 143 58 114 q 41 215 44 172 q 38 324 38 258 l 38 1051 l 261 1051 l 261 324 q 263 265 261 286 q 272 233 265 244 q 292 219 279 222 q 325 217 304 217 q 358 219 346 217 q 376 233 369 222 q 385 265 383 244 q 388 324 388 286 l 388 1051 m 43 1143 l 43 1290 l 599 1290 l 599 1143 l 43 1143 z "},"ū":{"ha":642,"x_min":38,"x_max":604,"o":"m 38 0 m 388 1051 l 604 1051 l 604 324 q 599 215 603 258 q 588 143 594 172 q 574 95 582 114 q 554 58 565 76 q 522 22 540 36 q 475 -2 503 7 q 410 -15 447 -11 q 322 -18 372 -18 q 168 -2 221 -18 q 89 58 115 14 q 68 95 78 76 q 51 143 58 114 q 41 215 44 172 q 38 324 38 258 l 38 1051 l 261 1051 l 261 324 q 263 265 261 286 q 272 233 265 244 q 292 219 279 222 q 325 217 304 217 q 358 219 346 217 q 376 233 369 222 q 385 265 383 244 q 388 324 388 286 l 388 1051 m 43 1143 l 43 1290 l 599 1290 l 599 1143 l 43 1143 z "},"Ŭ":{"ha":642,"x_min":38,"x_max":604,"o":"m 38 0 m 388 1051 l 604 1051 l 604 324 q 599 215 603 258 q 588 143 594 172 q 574 95 582 114 q 554 58 565 76 q 522 22 540 36 q 475 -2 503 7 q 410 -15 447 -11 q 322 -18 372 -18 q 168 -2 221 -18 q 89 58 115 14 q 68 95 78 76 q 51 143 58 114 q 41 215 44 172 q 38 324 38 258 l 38 1051 l 261 1051 l 261 324 q 263 265 261 286 q 272 233 265 244 q 292 219 279 222 q 325 217 304 217 q 358 219 346 217 q 376 233 369 222 q 385 265 383 244 q 388 324 388 286 l 388 1051 m 549 1336 q 546 1251 549 1285 q 538 1197 543 1218 q 526 1162 533 1175 q 510 1139 519 1149 q 444 1104 488 1113 q 319 1096 401 1096 q 196 1104 239 1096 q 131 1139 153 1113 q 114 1162 121 1149 q 102 1197 107 1175 q 94 1251 97 1218 q 92 1336 92 1285 l 233 1336 q 234 1291 233 1308 q 237 1263 235 1274 q 242 1247 239 1253 q 250 1236 244 1240 q 271 1227 257 1229 q 319 1225 285 1225 q 369 1227 356 1225 q 389 1236 383 1229 q 397 1247 393 1242 q 402 1263 400 1253 q 406 1291 404 1274 q 407 1336 407 1308 l 549 1336 z "},"ŭ":{"ha":642,"x_min":38,"x_max":604,"o":"m 38 0 m 388 1051 l 604 1051 l 604 324 q 599 215 603 258 q 588 143 594 172 q 574 95 582 114 q 554 58 565 76 q 522 22 540 36 q 475 -2 503 7 q 410 -15 447 -11 q 322 -18 372 -18 q 168 -2 221 -18 q 89 58 115 14 q 68 95 78 76 q 51 143 58 114 q 41 215 44 172 q 38 324 38 258 l 38 1051 l 261 1051 l 261 324 q 263 265 261 286 q 272 233 265 244 q 292 219 279 222 q 325 217 304 217 q 358 219 346 217 q 376 233 369 222 q 385 265 383 244 q 388 324 388 286 l 388 1051 m 549 1336 q 546 1251 549 1285 q 538 1197 543 1218 q 526 1162 533 1175 q 510 1139 519 1149 q 444 1104 488 1113 q 319 1096 401 1096 q 196 1104 239 1096 q 131 1139 153 1113 q 114 1162 121 1149 q 102 1197 107 1175 q 94 1251 97 1218 q 92 1336 92 1285 l 233 1336 q 234 1291 233 1308 q 237 1263 235 1274 q 242 1247 239 1253 q 250 1236 244 1240 q 271 1227 257 1229 q 319 1225 285 1225 q 369 1227 356 1225 q 389 1236 383 1229 q 397 1247 393 1242 q 402 1263 400 1253 q 406 1291 404 1274 q 407 1336 407 1308 l 549 1336 z "},"Ů":{"ha":642,"x_min":38,"x_max":604,"o":"m 38 0 m 388 1051 l 604 1051 l 604 324 q 599 215 603 258 q 588 143 594 172 q 574 95 582 114 q 554 58 565 76 q 522 22 540 36 q 475 -2 503 7 q 410 -15 447 -11 q 322 -18 372 -18 q 168 -2 221 -18 q 89 58 115 14 q 68 95 78 76 q 51 143 58 114 q 41 215 44 172 q 38 324 38 258 l 38 1051 l 261 1051 l 261 324 q 263 265 261 286 q 272 233 265 244 q 292 219 279 222 q 325 217 304 217 q 358 219 346 217 q 376 233 369 222 q 385 265 383 244 q 388 324 388 286 l 388 1051 m 440 1097 q 399 1081 426 1085 q 321 1076 371 1076 q 241 1081 268 1076 q 200 1097 214 1085 q 188 1109 193 1103 q 181 1127 183 1115 q 176 1157 178 1139 q 175 1206 175 1175 q 176 1255 175 1236 q 181 1285 178 1274 q 188 1303 183 1296 q 200 1315 193 1310 q 242 1331 214 1326 q 321 1336 269 1336 q 399 1331 371 1336 q 440 1315 426 1326 q 452 1303 447 1310 q 460 1285 457 1296 q 465 1255 464 1274 q 467 1206 467 1236 q 465 1157 467 1175 q 460 1127 464 1139 q 452 1109 457 1115 q 440 1097 447 1103 m 363 1165 q 370 1175 368 1168 q 372 1207 372 1182 q 370 1242 372 1235 q 363 1253 368 1249 q 351 1257 360 1256 q 321 1258 342 1258 q 290 1257 299 1258 q 276 1253 282 1256 q 269 1242 271 1250 q 268 1207 268 1235 q 269 1175 268 1182 q 276 1165 271 1168 q 290 1161 282 1163 q 321 1160 299 1160 q 350 1161 342 1160 q 363 1165 358 1163 z "},"ů":{"ha":642,"x_min":38,"x_max":604,"o":"m 38 0 m 388 1051 l 604 1051 l 604 324 q 599 215 603 258 q 588 143 594 172 q 574 95 582 114 q 554 58 565 76 q 522 22 540 36 q 475 -2 503 7 q 410 -15 447 -11 q 322 -18 372 -18 q 168 -2 221 -18 q 89 58 115 14 q 68 95 78 76 q 51 143 58 114 q 41 215 44 172 q 38 324 38 258 l 38 1051 l 261 1051 l 261 324 q 263 265 261 286 q 272 233 265 244 q 292 219 279 222 q 325 217 304 217 q 358 219 346 217 q 376 233 369 222 q 385 265 383 244 q 388 324 388 286 l 388 1051 m 440 1097 q 399 1081 426 1085 q 321 1076 371 1076 q 241 1081 268 1076 q 200 1097 214 1085 q 188 1109 193 1103 q 181 1127 183 1115 q 176 1157 178 1139 q 175 1206 175 1175 q 176 1255 175 1236 q 181 1285 178 1274 q 188 1303 183 1296 q 200 1315 193 1310 q 242 1331 214 1326 q 321 1336 269 1336 q 399 1331 371 1336 q 440 1315 426 1326 q 452 1303 447 1310 q 460 1285 457 1296 q 465 1255 464 1274 q 467 1206 467 1236 q 465 1157 467 1175 q 460 1127 464 1139 q 452 1109 457 1115 q 440 1097 447 1103 m 363 1165 q 370 1175 368 1168 q 372 1207 372 1182 q 370 1242 372 1235 q 363 1253 368 1249 q 351 1257 360 1256 q 321 1258 342 1258 q 290 1257 299 1258 q 276 1253 282 1256 q 269 1242 271 1250 q 268 1207 268 1235 q 269 1175 268 1182 q 276 1165 271 1168 q 290 1161 282 1163 q 321 1160 299 1160 q 350 1161 342 1160 q 363 1165 358 1163 z "},"Ű":{"ha":642,"x_min":38,"x_max":686,"o":"m 38 0 m 388 1051 l 604 1051 l 604 324 q 599 215 603 258 q 588 143 594 172 q 574 95 582 114 q 554 58 565 76 q 522 22 540 36 q 475 -2 503 7 q 410 -15 447 -11 q 322 -18 372 -18 q 168 -2 221 -18 q 89 58 115 14 q 68 95 78 76 q 51 143 58 114 q 41 215 44 172 q 38 324 38 258 l 38 1051 l 261 1051 l 261 324 q 263 265 261 286 q 272 233 265 244 q 292 219 279 222 q 325 217 304 217 q 358 219 346 217 q 376 233 369 222 q 385 265 383 244 q 388 324 388 286 l 388 1051 m 365 1096 l 365 1103 l 492 1336 l 686 1336 l 686 1328 l 528 1096 l 365 1096 m 93 1096 l 93 1103 l 219 1336 l 415 1336 l 415 1328 l 256 1096 l 93 1096 z "},"ű":{"ha":642,"x_min":38,"x_max":686,"o":"m 38 0 m 388 1051 l 604 1051 l 604 324 q 599 215 603 258 q 588 143 594 172 q 574 95 582 114 q 554 58 565 76 q 522 22 540 36 q 475 -2 503 7 q 410 -15 447 -11 q 322 -18 372 -18 q 168 -2 221 -18 q 89 58 115 14 q 68 95 78 76 q 51 143 58 114 q 41 215 44 172 q 38 324 38 258 l 38 1051 l 261 1051 l 261 324 q 263 265 261 286 q 272 233 265 244 q 292 219 279 222 q 325 217 304 217 q 358 219 346 217 q 376 233 369 222 q 385 265 383 244 q 388 324 388 286 l 388 1051 m 365 1096 l 365 1103 l 492 1336 l 686 1336 l 686 1328 l 528 1096 l 365 1096 m 93 1096 l 93 1103 l 219 1336 l 415 1336 l 415 1328 l 256 1096 l 93 1096 z "},"Ų":{"ha":642,"x_min":38,"x_max":604,"o":"m 479 -278 q 425 -312 468 -293 q 307 -331 382 -331 q 121 -183 121 -331 q 128 -135 121 -160 q 155 -90 136 -111 q 206 -49 174 -68 q 289 -18 239 -31 q 159 1 204 -15 q 89 58 114 18 q 68 95 78 76 q 51 143 58 114 q 41 215 44 172 q 38 324 38 258 l 38 1051 l 261 1051 l 261 324 q 263 265 261 286 q 272 233 265 244 q 292 219 279 222 q 325 217 304 217 q 358 219 346 217 q 376 233 369 222 q 385 265 383 244 q 388 324 388 286 l 388 1051 l 604 1051 l 604 324 q 599 215 603 258 q 588 143 594 172 q 574 95 582 114 q 554 58 565 76 q 523 23 540 38 q 479 0 506 8 q 429 -17 454 -8 q 384 -38 404 -26 q 351 -65 364 -50 q 339 -99 339 -79 q 354 -147 339 -132 q 408 -162 369 -162 q 446 -158 431 -162 q 472 -149 461 -153 l 479 -149 l 479 -278 z "},"ų":{"ha":642,"x_min":38,"x_max":604,"o":"m 38 0 m 479 -278 q 425 -312 468 -293 q 307 -331 382 -331 q 121 -183 121 -331 q 128 -135 121 -160 q 155 -90 136 -111 q 206 -49 174 -68 q 289 -18 239 -31 q 159 1 204 -15 q 89 58 114 18 q 68 95 78 76 q 51 143 58 114 q 41 215 44 172 q 38 324 38 258 l 38 1051 l 261 1051 l 261 324 q 263 265 261 286 q 272 233 265 244 q 292 219 279 222 q 325 217 304 217 q 358 219 346 217 q 376 233 369 222 q 385 265 383 244 q 388 324 388 286 l 388 1051 l 604 1051 l 604 324 q 599 215 603 258 q 588 143 594 172 q 574 95 582 114 q 554 58 565 76 q 523 23 540 38 q 479 0 506 8 q 429 -17 454 -8 q 384 -38 404 -26 q 351 -65 364 -50 q 339 -99 339 -79 q 354 -147 339 -132 q 408 -162 369 -162 q 446 -158 431 -162 q 472 -149 461 -153 l 479 -149 l 479 -278 z "},"Ŵ":{"ha":1004,"x_min":19,"x_max":985,"o":"m 19 0 m 586 0 l 514 644 l 499 644 l 421 0 l 113 0 l 19 1051 l 240 1051 l 288 336 l 303 336 l 399 1051 l 618 1051 l 715 336 l 731 336 l 776 1051 l 985 1051 l 894 0 l 586 0 m 579 1096 l 514 1192 l 499 1192 l 433 1096 l 263 1096 l 263 1103 l 435 1336 l 578 1336 l 751 1103 l 751 1096 l 579 1096 z "},"ŵ":{"ha":1004,"x_min":19,"x_max":985,"o":"m 19 0 m 586 0 l 514 644 l 499 644 l 421 0 l 113 0 l 19 1051 l 240 1051 l 288 336 l 303 336 l 399 1051 l 618 1051 l 715 336 l 731 336 l 776 1051 l 985 1051 l 894 0 l 586 0 m 579 1096 l 514 1192 l 499 1192 l 433 1096 l 263 1096 l 263 1103 l 435 1336 l 578 1336 l 751 1103 l 751 1096 l 579 1096 z "},"Ŷ":{"ha":621,"x_min":6,"x_max":615,"o":"m 6 0 m 197 0 l 197 383 l 6 1044 l 6 1051 l 231 1051 q 266 894 253 953 q 287 799 279 835 q 299 746 294 764 q 306 711 303 728 l 319 711 q 326 746 322 728 q 338 799 331 764 q 360 894 346 835 q 397 1051 374 953 l 615 1051 l 615 1044 l 432 386 l 432 0 l 197 0 m 383 1096 l 318 1192 l 303 1192 l 238 1096 l 67 1096 l 67 1103 l 239 1336 l 382 1336 l 556 1103 l 556 1096 l 383 1096 z "},"ŷ":{"ha":621,"x_min":6,"x_max":615,"o":"m 6 0 m 197 0 l 197 383 l 6 1044 l 6 1051 l 231 1051 q 266 894 253 953 q 287 799 279 835 q 299 746 294 764 q 306 711 303 728 l 319 711 q 326 746 322 728 q 338 799 331 764 q 360 894 346 835 q 397 1051 374 953 l 615 1051 l 615 1044 l 432 386 l 432 0 l 197 0 m 383 1096 l 318 1192 l 303 1192 l 238 1096 l 67 1096 l 67 1103 l 239 1336 l 382 1336 l 556 1103 l 556 1096 l 383 1096 z "},"Ÿ":{"ha":621,"x_min":6,"x_max":615,"o":"m 6 0 m 197 0 l 197 383 l 6 1044 l 6 1051 l 231 1051 q 266 894 253 953 q 287 799 279 835 q 299 746 294 764 q 306 711 303 728 l 319 711 q 326 746 322 728 q 338 799 331 764 q 360 894 346 835 q 397 1051 374 953 l 615 1051 l 615 1044 l 432 386 l 432 0 l 197 0 m 361 1125 l 361 1296 l 547 1296 l 547 1125 l 361 1125 m 75 1125 l 75 1296 l 263 1296 l 263 1125 l 75 1125 z "},"Ź":{"ha":631,"x_min":33,"x_max":607,"o":"m 33 0 m 33 0 l 33 249 l 311 814 l 306 828 l 44 828 l 44 1051 l 607 1051 l 607 932 l 275 246 l 282 233 l 597 233 l 597 0 l 33 0 m 233 1096 l 233 1103 l 360 1336 l 556 1336 l 556 1328 l 396 1096 l 233 1096 z "},"ź":{"ha":631,"x_min":33,"x_max":607,"o":"m 33 0 m 33 0 l 33 249 l 311 814 l 306 828 l 44 828 l 44 1051 l 607 1051 l 607 932 l 275 246 l 282 233 l 597 233 l 597 0 l 33 0 m 233 1096 l 233 1103 l 360 1336 l 556 1336 l 556 1328 l 396 1096 l 233 1096 z "},"Ż":{"ha":631,"x_min":33,"x_max":607,"o":"m 33 0 m 33 0 l 33 249 l 311 814 l 306 828 l 44 828 l 44 1051 l 607 1051 l 607 932 l 275 246 l 282 233 l 597 233 l 597 0 l 33 0 m 228 1125 l 228 1296 l 415 1296 l 415 1125 l 228 1125 z "},"ż":{"ha":631,"x_min":33,"x_max":607,"o":"m 33 0 m 33 0 l 33 249 l 311 814 l 306 828 l 44 828 l 44 1051 l 607 1051 l 607 932 l 275 246 l 282 233 l 597 233 l 597 0 l 33 0 m 228 1125 l 228 1296 l 415 1296 l 415 1125 l 228 1125 z "},"Ž":{"ha":631,"x_min":33,"x_max":607,"o":"m 33 0 m 33 0 l 33 249 l 311 814 l 306 828 l 44 828 l 44 1051 l 607 1051 l 607 932 l 275 246 l 282 233 l 597 233 l 597 0 l 33 0 m 254 1096 l 82 1328 l 82 1336 l 253 1336 l 319 1240 l 335 1240 l 399 1336 l 571 1336 l 571 1328 l 397 1096 l 254 1096 z "},"ž":{"ha":631,"x_min":33,"x_max":607,"o":"m 33 0 m 33 0 l 33 249 l 311 814 l 306 828 l 44 828 l 44 1051 l 607 1051 l 607 932 l 275 246 l 282 233 l 597 233 l 597 0 l 33 0 m 254 1096 l 82 1328 l 82 1336 l 253 1336 l 319 1240 l 335 1240 l 399 1336 l 571 1336 l 571 1328 l 397 1096 l 254 1096 z "},"ƒ":{"ha":629,"x_min":49,"x_max":579,"o":"m 49 -144 l 58 -144 q 88 -149 72 -147 q 125 -151 104 -151 q 166 -147 150 -151 q 190 -132 182 -143 q 201 -101 199 -121 q 204 -50 204 -82 l 204 607 l 122 607 l 122 778 l 204 778 l 204 863 q 207 927 204 900 q 215 975 210 954 q 230 1013 221 996 q 251 1047 239 1031 q 326 1098 276 1083 q 468 1113 376 1113 q 493 1111 476 1113 q 527 1107 510 1110 q 559 1101 544 1104 q 579 1094 574 1099 l 579 924 l 571 924 q 540 931 557 928 q 501 933 524 933 q 461 929 476 933 q 437 914 446 925 q 425 883 428 903 q 422 831 422 863 l 422 778 l 572 778 l 572 607 l 422 607 l 422 -54 q 419 -132 422 -100 q 411 -188 417 -164 q 397 -231 406 -212 q 376 -267 389 -249 q 301 -317 351 -303 q 160 -331 251 -331 q 133 -329 150 -331 q 100 -326 117 -328 q 69 -320 83 -324 q 49 -312 54 -317 l 49 -144 z "},"Ș":{"ha":583,"x_min":25,"x_max":554,"o":"m 25 0 m 347 725 q 349 744 349 736 q 349 771 349 751 q 337 838 349 819 q 285 857 325 857 q 233 838 244 857 q 222 771 222 819 q 234 706 222 725 q 272 672 246 688 q 330 642 303 654 q 380 619 357 629 q 424 599 403 608 q 465 575 444 589 q 505 540 488 558 q 533 491 522 521 q 549 417 543 461 q 554 308 554 374 q 541 151 554 214 q 497 51 528 89 q 412 -2 465 14 q 279 -18 358 -18 q 88 31 149 -18 q 26 204 26 81 q 28 285 26 244 q 38 351 31 326 l 219 351 q 217 333 217 343 q 217 313 217 324 q 229 228 217 251 q 283 206 242 206 q 338 226 325 206 q 351 313 351 246 q 339 374 351 353 q 299 414 326 394 q 245 444 274 431 q 188 471 217 458 q 133 498 160 483 q 86 532 107 513 q 34 635 43 569 q 25 804 25 700 q 37 928 25 878 q 78 1010 49 979 q 157 1056 107 1042 q 285 1069 207 1069 q 403 1058 356 1069 q 482 1020 451 1047 q 526 949 513 993 q 539 838 539 904 q 537 769 539 794 q 528 725 535 744 l 347 725 m 103 -331 l 103 -324 l 182 -57 l 371 -57 l 371 -65 l 260 -331 l 103 -331 z "},"ș":{"ha":583,"x_min":25,"x_max":554,"o":"m 25 0 m 347 725 q 349 744 349 736 q 349 771 349 751 q 337 838 349 819 q 285 857 325 857 q 233 838 244 857 q 222 771 222 819 q 234 706 222 725 q 272 672 246 688 q 330 642 303 654 q 380 619 357 629 q 424 599 403 608 q 465 575 444 589 q 505 540 488 558 q 533 491 522 521 q 549 417 543 461 q 554 308 554 374 q 541 151 554 214 q 497 51 528 89 q 412 -2 465 14 q 279 -18 358 -18 q 88 31 149 -18 q 26 204 26 81 q 28 285 26 244 q 38 351 31 326 l 219 351 q 217 333 217 343 q 217 313 217 324 q 229 228 217 251 q 283 206 242 206 q 338 226 325 206 q 351 313 351 246 q 339 374 351 353 q 299 414 326 394 q 245 444 274 431 q 188 471 217 458 q 133 498 160 483 q 86 532 107 513 q 34 635 43 569 q 25 804 25 700 q 37 928 25 878 q 78 1010 49 979 q 157 1056 107 1042 q 285 1069 207 1069 q 403 1058 356 1069 q 482 1020 451 1047 q 526 949 513 993 q 539 838 539 904 q 537 769 539 794 q 528 725 535 744 l 347 725 m 103 -331 l 103 -324 l 182 -57 l 371 -57 l 371 -65 l 260 -331 l 103 -331 z "},"Ț":{"ha":585,"x_min":18,"x_max":567,"o":"m 18 0 m 183 0 l 183 829 l 18 829 l 18 1051 l 567 1051 l 567 829 l 401 829 l 401 0 l 183 0 m 121 -331 l 121 -324 l 200 -57 l 389 -57 l 389 -65 l 278 -331 l 121 -331 z "},"ț":{"ha":585,"x_min":18,"x_max":567,"o":"m 18 0 m 183 0 l 183 829 l 18 829 l 18 1051 l 567 1051 l 567 829 l 401 829 l 401 0 l 183 0 m 121 -331 l 121 -324 l 200 -57 l 389 -57 l 389 -65 l 278 -331 l 121 -331 z "},"ˆ":{"ha":583,"x_min":47,"x_max":536,"o":"m 364 822 l 299 918 l 283 918 l 218 822 l 47 822 l 47 829 l 219 1063 l 363 1063 l 536 829 l 536 822 l 364 822 z "},"ˇ":{"ha":583,"x_min":47,"x_max":536,"o":"m 219 822 l 47 1054 l 47 1063 l 218 1063 l 285 967 l 300 967 l 364 1063 l 536 1063 l 536 1054 l 363 822 l 219 822 z "},"˘":{"ha":551,"x_min":47,"x_max":504,"o":"m 504 1063 q 501 978 504 1011 q 494 923 499 944 q 482 888 489 901 q 465 865 475 875 q 400 831 443 839 q 275 822 357 822 q 151 831 194 822 q 86 865 108 839 q 69 888 76 875 q 58 923 63 901 q 50 978 53 944 q 47 1063 47 1011 l 189 1063 q 190 1017 189 1035 q 192 990 190 1000 q 197 973 194 979 q 206 963 200 967 q 226 953 213 956 q 275 951 240 951 q 325 953 311 951 q 344 963 339 956 q 352 974 349 968 q 358 990 356 979 q 361 1017 360 1000 q 363 1063 363 1035 l 504 1063 z "},"˙":{"ha":282,"x_min":47,"x_max":235,"o":"m 47 851 l 47 1022 l 235 1022 l 235 851 l 47 851 z "},"˚":{"ha":386,"x_min":47,"x_max":339,"o":"m 313 824 q 271 807 299 811 q 193 803 243 803 q 113 807 140 803 q 72 824 86 811 q 60 835 65 829 q 53 853 56 842 q 49 883 50 865 q 47 932 47 901 q 49 981 47 963 q 53 1011 50 1000 q 60 1029 56 1022 q 72 1042 65 1036 q 114 1058 86 1053 q 193 1063 142 1063 q 271 1058 243 1063 q 313 1042 299 1053 q 324 1029 319 1036 q 333 1011 329 1022 q 338 981 336 1000 q 339 932 339 963 q 338 883 339 901 q 333 853 336 865 q 324 835 329 842 q 313 824 319 829 m 235 892 q 242 901 240 894 q 244 933 244 908 q 242 968 244 961 q 235 979 240 975 q 223 983 232 982 q 193 985 214 985 q 163 983 171 985 q 149 979 154 982 q 142 969 143 976 q 140 933 140 961 q 142 901 140 908 q 149 892 143 894 q 163 888 154 889 q 193 886 171 886 q 222 888 214 886 q 235 892 231 889 z "},"˛":{"ha":454,"x_min":47,"x_max":407,"o":"m 406 -278 q 351 -312 394 -293 q 233 -331 308 -331 q 47 -183 47 -331 q 58 -125 47 -154 q 100 -71 69 -96 q 185 -27 131 -46 q 324 0 239 -8 l 407 0 q 356 -18 382 -8 q 310 -39 331 -28 q 278 -65 290 -50 q 265 -99 265 -79 q 281 -147 265 -132 q 335 -162 296 -162 q 372 -158 357 -162 q 399 -149 388 -153 l 406 -149 l 406 -278 z "},"˜":{"ha":650,"x_min":47,"x_max":603,"o":"m 603 915 q 534 851 571 871 q 447 831 497 831 q 378 840 411 831 q 315 862 346 850 q 253 883 283 874 q 193 893 222 893 q 118 874 150 893 q 54 813 86 856 l 47 813 l 47 965 q 102 1022 68 997 q 186 1046 136 1046 q 264 1036 228 1046 q 333 1015 300 1026 q 395 993 365 1003 q 453 983 425 983 q 530 1001 496 983 q 596 1063 564 1018 l 603 1063 l 603 915 z "},"˝":{"ha":688,"x_min":47,"x_max":640,"o":"m 319 822 l 319 829 l 446 1063 l 640 1063 l 640 1054 l 482 822 l 319 822 m 47 822 l 47 829 l 174 1063 l 369 1063 l 369 1054 l 210 822 l 47 822 z "},"Δ":{"ha":629,"x_min":15,"x_max":613,"o":"m 15 0 l 232 1051 l 408 1051 l 613 0 l 15 0 m 297 613 l 282 613 l 206 233 l 357 233 l 297 613 z "},"Ω":{"ha":629,"x_min":26,"x_max":603,"o":"m 347 0 l 347 190 q 369 240 358 200 q 388 345 379 279 q 401 501 396 411 q 407 701 407 590 q 402 788 407 757 q 385 834 397 819 q 356 851 374 849 q 314 854 339 854 q 272 851 289 854 q 243 834 254 849 q 227 788 232 819 q 222 701 222 757 q 227 501 222 590 q 240 345 232 411 q 259 240 249 279 q 281 190 269 200 l 281 0 l 36 0 l 36 233 l 118 233 l 121 244 q 76 308 94 275 q 47 394 58 340 q 31 535 36 449 q 26 763 26 622 q 35 933 26 871 q 72 1024 43 994 q 158 1062 101 1054 q 314 1069 215 1069 q 470 1062 413 1069 q 557 1024 528 1054 q 594 933 586 994 q 603 763 603 871 q 598 535 603 622 q 582 394 593 449 q 553 308 571 340 q 508 244 535 275 l 511 233 l 592 233 l 592 0 l 347 0 z "},"μ":{"ha":629,"x_min":44,"x_max":585,"o":"m 44 -331 l 44 778 l 263 778 l 263 228 q 274 176 263 192 q 314 161 285 161 q 367 183 347 161 l 367 778 l 585 778 l 585 0 l 388 0 l 385 47 l 376 50 q 263 -14 333 -1 l 263 -331 l 44 -331 z "},"π":{"ha":769,"x_min":49,"x_max":739,"o":"m 739 35 q 685 1 728 19 q 565 -18 642 -18 q 426 24 472 -18 q 379 171 379 67 l 379 607 l 267 607 l 267 0 l 49 0 l 49 778 l 597 778 l 597 214 q 613 165 597 181 q 668 150 628 150 q 704 155 689 150 q 731 164 719 160 l 739 164 l 739 35 z "},"Ẁ":{"ha":1004,"x_min":19,"x_max":985,"o":"m 19 0 m 586 0 l 514 644 l 499 644 l 421 0 l 113 0 l 19 1051 l 240 1051 l 288 336 l 303 336 l 399 1051 l 618 1051 l 715 336 l 731 336 l 776 1051 l 985 1051 l 894 0 l 586 0 m 436 1096 l 276 1328 l 276 1336 l 472 1336 l 599 1103 l 599 1096 l 436 1096 z "},"ẁ":{"ha":1004,"x_min":19,"x_max":985,"o":"m 19 0 m 586 0 l 514 644 l 499 644 l 421 0 l 113 0 l 19 1051 l 240 1051 l 288 336 l 303 336 l 399 1051 l 618 1051 l 715 336 l 731 336 l 776 1051 l 985 1051 l 894 0 l 586 0 m 436 1096 l 276 1328 l 276 1336 l 472 1336 l 599 1103 l 599 1096 l 436 1096 z "},"Ẃ":{"ha":1004,"x_min":19,"x_max":985,"o":"m 19 0 m 586 0 l 514 644 l 499 644 l 421 0 l 113 0 l 19 1051 l 240 1051 l 288 336 l 303 336 l 399 1051 l 618 1051 l 715 336 l 731 336 l 776 1051 l 985 1051 l 894 0 l 586 0 m 415 1096 l 415 1103 l 542 1336 l 738 1336 l 738 1328 l 578 1096 l 415 1096 z "},"ẃ":{"ha":1004,"x_min":19,"x_max":985,"o":"m 19 0 m 586 0 l 514 644 l 499 644 l 421 0 l 113 0 l 19 1051 l 240 1051 l 288 336 l 303 336 l 399 1051 l 618 1051 l 715 336 l 731 336 l 776 1051 l 985 1051 l 894 0 l 586 0 m 415 1096 l 415 1103 l 542 1336 l 738 1336 l 738 1328 l 578 1096 l 415 1096 z "},"Ẅ":{"ha":1004,"x_min":19,"x_max":985,"o":"m 19 0 m 586 0 l 514 644 l 499 644 l 421 0 l 113 0 l 19 1051 l 240 1051 l 288 336 l 303 336 l 399 1051 l 618 1051 l 715 336 l 731 336 l 776 1051 l 985 1051 l 894 0 l 586 0 m 557 1125 l 557 1296 l 743 1296 l 743 1125 l 557 1125 m 271 1125 l 271 1296 l 458 1296 l 458 1125 l 271 1125 z "},"ẅ":{"ha":1004,"x_min":19,"x_max":985,"o":"m 19 0 m 586 0 l 514 644 l 499 644 l 421 0 l 113 0 l 19 1051 l 240 1051 l 288 336 l 303 336 l 399 1051 l 618 1051 l 715 336 l 731 336 l 776 1051 l 985 1051 l 894 0 l 586 0 m 557 1125 l 557 1296 l 743 1296 l 743 1125 l 557 1125 m 271 1125 l 271 1296 l 458 1296 l 458 1125 l 271 1125 z "},"Ỳ":{"ha":621,"x_min":6,"x_max":615,"o":"m 6 0 m 197 0 l 197 383 l 6 1044 l 6 1051 l 231 1051 q 266 894 253 953 q 287 799 279 835 q 299 746 294 764 q 306 711 303 728 l 319 711 q 326 746 322 728 q 338 799 331 764 q 360 894 346 835 q 397 1051 374 953 l 615 1051 l 615 1044 l 432 386 l 432 0 l 197 0 m 240 1096 l 81 1328 l 81 1336 l 276 1336 l 403 1103 l 403 1096 l 240 1096 z "},"ỳ":{"ha":621,"x_min":6,"x_max":615,"o":"m 6 0 m 197 0 l 197 383 l 6 1044 l 6 1051 l 231 1051 q 266 894 253 953 q 287 799 279 835 q 299 746 294 764 q 306 711 303 728 l 319 711 q 326 746 322 728 q 338 799 331 764 q 360 894 346 835 q 397 1051 374 953 l 615 1051 l 615 1044 l 432 386 l 432 0 l 197 0 m 240 1096 l 81 1328 l 81 1336 l 276 1336 l 403 1103 l 403 1096 l 240 1096 z "},"–":{"ha":765,"x_min":28,"x_max":736,"o":"m 28 443 l 28 615 l 736 615 l 736 443 l 28 443 z "},"—":{"ha":1065,"x_min":28,"x_max":1036,"o":"m 28 443 l 28 615 l 1036 615 l 1036 443 l 28 443 z "},"‘":{"ha":313,"x_min":47,"x_max":265,"o":"m 47 686 l 47 892 l 151 1094 l 256 1094 l 256 1086 l 189 896 l 193 883 l 265 883 l 265 686 l 47 686 z "},"’":{"ha":313,"x_min":47,"x_max":265,"o":"m 56 686 l 56 694 l 124 885 l 119 897 l 47 897 l 47 1094 l 265 1094 l 265 890 l 161 686 l 56 686 z "},"‚":{"ha":313,"x_min":47,"x_max":265,"o":"m 56 -197 l 56 -189 l 124 1 l 119 14 l 47 14 l 47 210 l 265 210 l 265 6 l 161 -197 l 56 -197 z "},"“":{"ha":625,"x_min":47,"x_max":578,"o":"m 47 686 m 47 686 l 47 892 l 151 1094 l 256 1094 l 256 1086 l 189 896 l 193 883 l 265 883 l 265 686 l 47 686 m 360 686 l 360 892 l 464 1094 l 568 1094 l 568 1086 l 501 896 l 506 883 l 578 883 l 578 686 l 360 686 z "},"”":{"ha":625,"x_min":47,"x_max":578,"o":"m 47 686 m 56 686 l 56 694 l 124 885 l 119 897 l 47 897 l 47 1094 l 265 1094 l 265 890 l 161 686 l 56 686 m 368 686 l 368 694 l 436 885 l 432 897 l 360 897 l 360 1094 l 578 1094 l 578 890 l 474 686 l 368 686 z "},"„":{"ha":625,"x_min":47,"x_max":578,"o":"m 47 0 m 56 -197 l 56 -189 l 124 1 l 119 14 l 47 14 l 47 210 l 265 210 l 265 6 l 161 -197 l 56 -197 m 368 -197 l 368 -189 l 436 1 l 432 14 l 360 14 l 360 210 l 578 210 l 578 6 l 474 -197 l 368 -197 z "},"†":{"ha":638,"x_min":47,"x_max":590,"o":"m 310 0 l 260 178 l 260 693 l 47 693 l 47 810 l 260 810 l 260 1051 l 376 1051 l 376 810 l 590 810 l 590 693 l 376 693 l 376 178 l 325 0 l 310 0 z "},"‡":{"ha":638,"x_min":47,"x_max":590,"o":"m 260 0 l 260 242 l 47 242 l 47 358 l 260 358 l 260 406 l 301 525 l 260 646 l 260 693 l 47 693 l 47 810 l 260 810 l 260 1051 l 376 1051 l 376 810 l 590 810 l 590 693 l 376 693 l 376 646 l 335 525 l 376 406 l 376 358 l 590 358 l 590 242 l 376 242 l 376 0 l 260 0 z "},"•":{"ha":465,"x_min":47,"x_max":418,"o":"m 386 351 q 333 326 367 333 q 232 319 299 319 q 133 326 168 319 q 81 351 97 333 q 66 370 72 360 q 56 399 60 381 q 49 446 51 417 q 47 521 47 475 q 49 595 47 567 q 56 642 51 624 q 66 671 60 660 q 81 690 72 682 q 133 715 97 708 q 232 721 168 721 q 333 715 299 721 q 386 690 368 708 q 401 671 394 682 q 410 642 407 660 q 416 595 414 624 q 418 521 418 567 q 416 446 418 475 q 410 399 414 417 q 401 370 407 381 q 386 351 394 360 z "},"…":{"ha":1282,"x_min":74,"x_max":1208,"o":"m 74 0 m 74 0 l 74 210 l 292 210 l 292 0 l 74 0 m 532 0 l 532 210 l 750 210 l 750 0 l 532 0 m 990 0 l 990 210 l 1208 210 l 1208 0 l 990 0 z "},"‰":{"ha":1171,"x_min":18,"x_max":1149,"o":"m 18 0 m 179 474 q 90 480 122 474 q 42 515 58 486 q 22 605 26 544 q 18 775 18 665 q 22 944 18 883 q 42 1035 26 1006 q 90 1070 58 1064 q 179 1076 122 1076 q 267 1070 235 1076 q 316 1035 300 1064 q 336 944 332 1006 q 340 775 340 883 q 336 605 340 665 q 316 515 332 544 q 267 480 300 486 q 179 474 235 474 m 179 617 q 194 619 189 617 q 203 638 200 622 q 206 685 206 653 q 207 778 207 718 q 206 872 207 839 q 203 922 206 906 q 195 940 201 938 q 179 943 189 943 q 163 940 168 943 q 155 922 157 938 q 152 872 153 906 q 151 778 151 839 q 152 685 151 718 q 156 638 153 653 q 164 619 158 622 q 179 617 169 617 m 39 0 l 39 7 l 640 1051 l 775 1051 l 775 1044 l 172 0 l 39 0 m 642 -24 q 553 -17 585 -24 q 505 18 521 -11 q 485 108 489 47 q 481 278 481 168 q 485 447 481 386 q 505 538 489 508 q 553 573 521 567 q 642 579 585 579 q 730 573 697 579 q 778 538 763 567 q 799 447 794 508 q 803 278 803 386 q 799 108 803 168 q 778 18 794 47 q 730 -17 763 -11 q 642 -24 697 -24 m 642 119 q 657 122 651 119 q 665 140 663 125 q 669 188 668 156 q 669 281 669 221 q 669 375 669 342 q 666 424 668 408 q 658 443 664 440 q 642 446 651 446 q 625 443 631 446 q 617 424 619 440 q 615 375 615 408 q 614 281 614 342 q 615 188 614 221 q 618 140 615 156 q 626 122 621 125 q 642 119 632 119 m 988 -24 q 899 -17 931 -24 q 851 18 867 -11 q 831 108 835 47 q 826 278 826 168 q 831 447 826 386 q 851 538 835 508 q 899 573 867 567 q 988 579 931 579 q 1076 573 1043 579 q 1124 538 1108 567 q 1144 447 1140 508 q 1149 278 1149 386 q 1144 108 1149 168 q 1124 18 1140 47 q 1076 -17 1108 -11 q 988 -24 1043 -24 m 988 119 q 1003 122 997 119 q 1011 140 1008 125 q 1015 188 1014 156 q 1015 281 1015 221 q 1015 375 1015 342 q 1012 424 1014 408 q 1003 443 1010 440 q 988 446 997 446 q 971 443 976 446 q 963 424 965 440 q 960 375 961 408 q 960 281 960 342 q 960 188 960 221 q 964 140 961 156 q 972 122 967 125 q 988 119 978 119 z "},"′":{"ha":374,"x_min":15,"x_max":358,"o":"m 15 672 l 151 1094 l 358 1094 l 163 672 l 15 672 z "},"″":{"ha":693,"x_min":15,"x_max":678,"o":"m 335 672 l 471 1094 l 678 1094 l 482 672 l 335 672 m 15 672 l 151 1094 l 358 1094 l 163 672 l 15 672 z "},"‹":{"ha":344,"x_min":28,"x_max":315,"o":"m 308 253 l 28 457 l 28 600 l 308 808 l 315 808 l 315 636 l 172 536 l 172 521 l 315 424 l 315 253 l 308 253 z "},"›":{"ha":344,"x_min":28,"x_max":315,"o":"m 35 253 l 28 253 l 28 424 l 171 521 l 171 536 l 28 636 l 28 808 l 35 808 l 315 600 l 315 457 l 35 253 z "},"⁄":{"ha":256,"x_min":-240,"x_max":496,"o":"m -240 0 l -240 7 l 361 1051 l 496 1051 l 496 1044 l -107 0 l -240 0 z "},"⁰":{"ha":388,"x_min":31,"x_max":353,"o":"m 31 474 m 192 474 q 103 480 135 474 q 55 515 71 486 q 35 605 39 544 q 31 775 31 665 q 35 944 31 883 q 55 1035 39 1006 q 103 1070 71 1064 q 192 1076 135 1076 q 280 1070 247 1076 q 328 1035 313 1064 q 349 944 344 1006 q 353 775 353 883 q 349 605 353 665 q 328 515 344 544 q 280 480 313 486 q 192 474 247 474 m 192 617 q 207 619 201 617 q 215 638 213 622 q 219 685 218 653 q 219 778 219 718 q 219 872 219 839 q 216 922 218 906 q 208 940 214 938 q 192 943 201 943 q 175 940 181 943 q 167 922 169 938 q 165 872 165 906 q 164 778 164 839 q 165 685 164 718 q 168 638 165 653 q 176 619 171 622 q 192 617 182 617 z "},"⁴":{"ha":388,"x_min":24,"x_max":360,"o":"m 24 483 m 192 483 l 192 579 l 24 579 l 24 697 l 193 1065 l 318 1065 l 318 699 l 360 699 l 360 579 l 318 579 l 318 483 l 192 483 m 196 819 l 190 819 l 138 699 l 196 699 l 196 819 z "},"⁵":{"ha":388,"x_min":33,"x_max":353,"o":"m 33 474 m 178 929 l 174 883 l 178 881 q 231 890 196 890 q 323 852 293 890 q 353 719 353 814 q 347 590 353 639 q 322 516 340 542 q 272 482 304 490 q 188 474 239 474 q 107 485 138 474 q 60 519 76 496 q 39 576 44 542 q 33 657 33 610 q 33 688 33 672 q 35 715 33 703 l 161 715 q 160 700 160 708 q 160 683 160 692 q 164 635 160 653 q 188 617 168 617 q 216 639 213 617 q 219 717 219 661 q 213 763 219 753 q 183 774 207 774 q 147 758 164 774 l 46 789 l 64 1065 l 343 1065 l 343 929 l 178 929 z "},"⁶":{"ha":388,"x_min":32,"x_max":353,"o":"m 32 474 m 221 894 q 222 915 222 901 q 215 939 222 935 q 193 943 208 943 q 179 941 185 943 q 170 930 174 939 q 165 901 167 921 q 164 847 164 882 q 193 851 179 850 q 218 853 207 853 q 276 845 251 853 q 319 818 301 838 q 344 765 336 799 q 353 681 353 732 q 346 575 353 615 q 321 512 339 535 q 272 481 303 489 q 193 474 240 474 q 109 483 140 474 q 60 522 78 492 q 38 613 43 553 q 32 775 32 672 q 36 944 32 883 q 56 1035 40 1006 q 104 1070 72 1064 q 193 1076 136 1076 q 270 1072 240 1076 q 317 1054 300 1068 q 340 1013 333 1040 q 346 939 346 986 q 346 915 346 924 q 344 894 346 907 l 221 894 m 164 697 q 166 651 164 665 q 171 626 168 638 q 194 617 174 617 q 208 619 203 617 q 215 629 213 621 q 219 656 218 638 q 219 706 219 674 q 214 738 219 729 q 193 746 208 746 q 175 744 182 746 q 164 740 168 743 l 164 697 z "},"⁷":{"ha":388,"x_min":32,"x_max":351,"o":"m 32 483 m 63 483 l 192 924 l 189 929 l 32 929 l 32 1065 l 351 1065 l 351 990 l 211 483 l 63 483 z "},"⁸":{"ha":388,"x_min":28,"x_max":356,"o":"m 28 474 m 313 783 q 331 769 322 776 q 344 748 339 763 q 353 709 350 733 q 356 644 356 685 q 350 563 356 596 q 327 511 344 531 q 278 483 310 492 q 192 474 246 474 q 106 483 138 474 q 56 511 74 492 q 33 563 39 531 q 28 644 28 596 q 31 709 28 685 q 39 748 33 733 q 53 769 44 763 q 72 783 61 776 q 43 826 51 800 q 35 911 35 853 q 41 997 35 965 q 65 1047 47 1029 q 113 1071 83 1065 q 192 1076 143 1076 q 271 1071 240 1076 q 319 1047 301 1065 q 342 997 336 1029 q 349 911 349 965 q 340 826 349 853 q 313 783 332 800 m 192 614 q 219 624 211 614 q 228 661 228 633 q 221 719 228 710 q 192 729 214 729 q 174 728 181 729 q 163 719 167 726 q 157 699 158 713 q 156 661 156 686 q 164 624 156 633 q 192 614 172 614 m 192 832 q 215 841 208 832 q 221 894 221 850 q 216 939 221 931 q 192 947 211 947 q 167 940 172 947 q 163 896 163 932 q 168 842 163 851 q 192 832 174 832 z "},"⁹":{"ha":388,"x_min":31,"x_max":353,"o":"m 31 483 m 99 483 l 99 500 q 156 599 128 546 q 200 701 185 653 l 196 706 q 178 701 189 703 q 156 700 167 700 q 91 708 115 700 q 53 736 67 715 q 35 794 40 757 q 31 888 31 831 q 36 985 31 949 q 58 1042 42 1022 q 107 1069 75 1063 q 192 1076 139 1076 q 278 1069 246 1076 q 326 1042 310 1063 q 348 983 343 1021 q 353 883 353 946 q 326 678 353 774 q 246 483 299 583 l 99 483 m 190 815 q 215 824 210 815 q 219 863 219 833 q 217 909 219 894 q 213 933 215 924 q 206 942 210 940 q 190 944 201 944 q 176 942 182 944 q 168 931 171 940 q 165 904 165 922 q 164 854 164 886 q 169 823 164 831 q 190 815 175 815 z "},"₀":{"ha":388,"x_min":31,"x_max":353,"o":"m 192 -24 q 103 -17 135 -24 q 55 18 71 -11 q 35 108 39 47 q 31 278 31 168 q 35 447 31 386 q 55 538 39 508 q 103 573 71 567 q 192 579 135 579 q 280 573 247 579 q 328 538 313 567 q 349 447 344 508 q 353 278 353 386 q 349 108 353 168 q 328 18 344 47 q 280 -17 313 -11 q 192 -24 247 -24 m 192 119 q 207 122 201 119 q 215 140 213 125 q 219 188 218 156 q 219 281 219 221 q 219 375 219 342 q 216 424 218 408 q 208 443 214 440 q 192 446 201 446 q 175 443 181 446 q 167 424 169 440 q 165 375 165 408 q 164 281 164 342 q 165 188 164 221 q 168 140 165 156 q 176 122 171 125 q 192 119 182 119 z "},"₁":{"ha":388,"x_min":43,"x_max":340,"o":"m 44 -14 l 44 128 l 126 128 l 126 358 l 43 358 l 43 478 l 101 478 q 127 481 118 478 q 142 494 136 485 q 149 521 147 503 q 150 568 150 539 l 264 568 l 264 128 l 340 128 l 340 -14 l 44 -14 z "},"₂":{"ha":388,"x_min":32,"x_max":350,"o":"m 43 -14 l 43 128 l 139 222 q 170 252 158 240 q 189 272 182 264 q 199 286 196 281 q 207 300 203 292 q 215 330 214 315 q 217 385 217 344 q 215 417 217 406 q 211 436 214 429 q 204 443 208 440 q 189 446 200 446 q 164 436 168 446 q 160 419 161 431 q 160 381 160 408 q 160 356 160 365 q 163 339 160 347 l 35 339 q 32 369 32 357 q 32 404 32 382 q 38 485 32 451 q 60 539 43 518 q 108 569 78 560 q 189 579 139 579 q 267 571 236 579 q 316 541 297 563 q 342 482 335 519 q 350 386 350 444 q 349 344 350 361 q 347 315 349 328 q 343 292 346 303 q 335 269 340 282 q 311 229 325 249 q 265 179 297 210 l 207 124 l 346 124 l 346 -14 l 43 -14 z "},"₃":{"ha":388,"x_min":31,"x_max":354,"o":"m 122 231 l 122 336 l 190 336 q 215 345 210 336 q 219 397 219 354 q 215 441 219 433 q 190 449 210 449 q 165 441 169 449 q 160 394 160 433 q 160 383 160 388 q 161 371 160 378 l 35 371 q 33 387 33 379 q 33 403 33 394 q 40 484 33 450 q 63 539 46 518 q 111 569 81 560 q 190 579 142 579 q 269 574 239 579 q 317 550 300 568 q 341 500 335 532 q 347 414 347 468 q 339 329 347 356 q 311 286 331 303 q 329 272 321 279 q 343 251 338 265 q 351 212 349 236 q 354 147 354 188 q 349 66 354 99 q 326 14 343 33 q 277 -15 310 -6 q 190 -24 244 -24 q 106 -12 138 -24 q 58 22 75 -1 q 36 78 42 44 q 31 160 31 113 q 31 176 31 167 q 33 199 32 186 l 160 199 q 158 185 158 192 q 158 172 158 179 q 159 147 158 156 q 163 131 160 139 q 171 121 165 124 q 190 118 176 118 q 218 127 210 118 q 226 164 226 136 q 226 201 226 188 q 221 221 225 214 q 210 229 217 228 q 190 231 203 231 l 122 231 z "},"₄":{"ha":388,"x_min":24,"x_max":360,"o":"m 192 -14 l 192 82 l 24 82 l 24 200 l 193 568 l 318 568 l 318 201 l 360 201 l 360 82 l 318 82 l 318 -14 l 192 -14 m 196 322 l 190 322 l 138 201 l 196 201 l 196 322 z "},"₅":{"ha":388,"x_min":33,"x_max":353,"o":"m 178 432 l 174 386 l 178 383 q 231 393 196 393 q 323 355 293 393 q 353 222 353 317 q 347 93 353 142 q 322 19 340 44 q 272 -15 304 -7 q 188 -24 239 -24 q 107 -12 138 -24 q 60 22 76 -1 q 39 78 44 44 q 33 160 33 113 q 33 190 33 175 q 35 218 33 206 l 161 218 q 160 203 160 211 q 160 186 160 194 q 164 138 160 156 q 188 119 168 119 q 216 142 213 119 q 219 219 219 164 q 213 266 219 256 q 183 276 207 276 q 147 261 164 276 l 46 292 l 64 568 l 343 568 l 343 432 l 178 432 z "},"₆":{"ha":388,"x_min":32,"x_max":353,"o":"m 221 397 q 222 418 222 404 q 215 442 222 438 q 193 446 208 446 q 179 444 185 446 q 170 433 174 442 q 165 404 167 424 q 164 350 164 385 q 193 354 179 353 q 218 356 207 356 q 276 348 251 356 q 319 321 301 340 q 344 268 336 301 q 353 183 353 235 q 346 78 353 118 q 321 15 339 38 q 272 -16 303 -8 q 193 -24 240 -24 q 109 -15 140 -24 q 60 25 78 -6 q 38 115 43 56 q 32 278 32 175 q 36 447 32 386 q 56 538 40 508 q 104 573 72 567 q 193 579 136 579 q 270 575 240 579 q 317 557 300 571 q 340 516 333 543 q 346 442 346 489 q 346 418 346 426 q 344 397 346 410 l 221 397 m 164 200 q 166 154 164 168 q 171 129 168 140 q 194 119 174 119 q 208 122 203 119 q 215 132 213 124 q 219 158 218 140 q 219 208 219 176 q 214 240 219 232 q 193 249 208 249 q 175 247 182 249 q 164 243 168 246 l 164 200 z "},"₇":{"ha":388,"x_min":32,"x_max":351,"o":"m 63 -14 l 192 426 l 189 432 l 32 432 l 32 568 l 351 568 l 351 493 l 211 -14 l 63 -14 z "},"₈":{"ha":388,"x_min":28,"x_max":356,"o":"m 313 286 q 331 272 322 279 q 344 251 339 265 q 353 212 350 236 q 356 147 356 188 q 350 66 356 99 q 327 14 344 33 q 278 -15 310 -6 q 192 -24 246 -24 q 106 -15 138 -24 q 56 14 74 -6 q 33 66 39 33 q 28 147 28 99 q 31 212 28 188 q 39 251 33 236 q 53 272 44 265 q 72 286 61 279 q 43 329 51 303 q 35 414 35 356 q 41 500 35 468 q 65 550 47 532 q 113 574 83 568 q 192 579 143 579 q 271 574 240 579 q 319 550 301 568 q 342 500 336 532 q 349 414 349 468 q 340 329 349 356 q 313 286 332 303 m 192 117 q 219 126 211 117 q 228 164 228 136 q 221 222 228 213 q 192 232 214 232 q 174 231 181 232 q 163 222 167 229 q 157 202 158 215 q 156 164 156 189 q 164 126 156 136 q 192 117 172 117 m 192 335 q 215 344 208 335 q 221 397 221 353 q 216 442 221 433 q 192 450 211 450 q 167 442 172 450 q 163 399 163 435 q 168 344 163 354 q 192 335 174 335 z "},"₉":{"ha":388,"x_min":31,"x_max":353,"o":"m 99 -14 l 99 3 q 156 102 128 49 q 200 204 185 156 l 196 208 q 178 204 189 206 q 156 203 167 203 q 91 210 115 203 q 53 239 67 218 q 35 297 40 260 q 31 390 31 333 q 36 488 31 451 q 58 545 42 525 q 107 572 75 565 q 192 579 139 579 q 278 572 246 579 q 326 544 310 565 q 348 486 343 524 q 353 386 353 449 q 326 181 353 276 q 246 -14 299 86 l 99 -14 m 190 318 q 215 327 210 318 q 219 365 219 336 q 217 412 219 397 q 213 436 215 426 q 206 445 210 443 q 190 447 201 447 q 176 445 182 447 q 168 434 171 443 q 165 407 165 425 q 164 357 164 389 q 169 326 164 333 q 190 318 175 318 z "},"€":{"ha":629,"x_min":15,"x_max":613,"o":"m 606 288 q 610 233 608 260 q 613 183 613 207 q 602 96 613 133 q 564 33 592 58 q 488 -5 536 8 q 363 -18 439 -18 q 218 -9 272 -18 q 133 40 164 0 q 92 162 103 79 q 79 392 81 244 l 15 392 l 36 481 l 79 481 l 79 588 l 15 588 l 36 676 l 79 676 q 92 885 81 807 q 136 1003 104 963 q 225 1057 168 1044 q 376 1069 282 1069 q 508 1049 458 1069 q 574 1006 558 1028 l 526 806 l 519 806 q 472 844 501 829 q 393 860 442 860 q 333 856 356 860 q 299 833 310 851 q 283 778 288 815 q 279 676 279 742 l 496 676 l 475 588 l 279 588 l 279 481 l 451 481 l 431 392 l 279 392 q 284 290 281 326 q 296 235 288 253 q 319 212 304 217 q 357 207 333 207 q 396 213 382 207 q 416 228 410 218 q 424 253 422 239 q 425 288 425 268 l 606 288 z "},"₹":{"ha":629,"x_min":32,"x_max":597,"o":"m 310 0 q 301 24 306 11 q 293 67 297 38 q 283 149 289 96 q 268 292 276 201 q 252 344 265 331 q 217 358 239 358 l 40 358 l 79 515 l 246 515 q 285 540 272 515 q 300 633 297 564 l 32 633 l 57 721 l 301 721 q 296 781 300 758 q 284 816 292 804 q 265 831 276 828 q 240 835 254 835 l 35 835 l 103 1051 l 597 1051 l 504 857 q 517 810 513 842 q 522 721 522 778 l 592 721 l 567 633 l 519 633 q 509 539 517 576 q 490 476 501 501 q 465 436 479 451 q 432 411 450 421 l 432 403 q 463 381 450 392 q 484 353 475 371 q 499 307 493 336 q 510 232 506 278 q 522 129 517 168 q 530 67 526 90 q 536 31 533 43 q 543 7 539 18 l 543 0 l 310 0 z "},"₺":{"ha":629,"x_min":18,"x_max":611,"o":"m 68 0 l 68 447 l 18 435 l 18 528 l 68 542 l 68 643 l 18 629 l 18 722 l 68 736 l 68 1051 l 286 1051 l 286 799 l 554 874 l 554 781 l 286 704 l 286 603 l 554 678 l 554 585 l 286 510 l 286 232 l 324 232 q 356 234 344 232 q 375 247 368 236 q 385 283 382 258 q 390 354 388 308 l 611 354 q 606 245 610 289 q 597 172 603 201 q 582 122 590 142 q 563 83 574 101 q 530 44 549 60 q 483 18 511 28 q 418 4 456 8 q 331 0 381 0 l 68 0 z "},"℗":{"ha":875,"x_min":31,"x_max":844,"o":"m 104 68 q 71 120 85 92 q 48 197 57 149 q 35 324 39 246 q 31 526 31 403 q 35 728 31 650 q 48 854 39 806 q 71 931 57 903 q 104 983 85 958 q 151 1024 124 1007 q 217 1051 178 1040 q 311 1065 257 1061 q 436 1069 365 1069 q 563 1065 508 1069 q 656 1051 617 1061 q 724 1024 696 1040 q 771 983 751 1007 q 804 931 790 958 q 827 854 818 903 q 840 728 836 806 q 844 526 844 650 q 840 324 844 403 q 827 197 836 246 q 804 120 818 149 q 771 68 790 92 q 724 27 751 43 q 656 1 696 11 q 563 -14 617 -10 q 436 -18 508 -18 q 311 -14 365 -18 q 217 1 257 -10 q 151 27 178 11 q 104 68 124 43 m 675 143 q 697 179 688 158 q 713 241 707 200 q 721 349 718 282 q 724 526 724 417 q 721 702 724 635 q 713 809 718 769 q 697 869 707 849 q 675 906 688 890 q 601 940 656 929 q 436 950 547 950 q 271 940 325 950 q 197 906 217 929 q 176 870 185 890 q 163 810 168 850 q 154 703 157 771 q 151 526 151 636 q 154 349 151 417 q 163 240 157 281 q 176 178 168 199 q 197 143 185 158 q 269 111 215 119 q 436 103 324 103 q 603 111 550 103 q 675 143 657 119 m 304 263 l 304 804 l 467 804 q 526 794 503 804 q 564 763 550 785 q 583 705 578 740 q 589 618 589 669 q 583 528 589 565 q 564 469 578 492 q 526 435 550 446 q 467 425 503 425 l 417 425 l 417 263 l 304 263 m 447 536 q 469 554 463 536 q 476 621 476 572 q 469 678 476 664 q 444 692 461 692 l 417 692 l 417 536 l 447 536 z "},"™":{"ha":1024,"x_min":26,"x_max":976,"o":"m 129 553 l 129 933 l 26 933 l 26 1051 l 372 1051 l 372 933 l 268 933 l 268 553 l 129 553 m 850 553 l 850 828 l 835 828 l 733 553 l 664 553 l 561 828 l 546 828 l 546 553 l 419 553 l 419 1051 l 617 1051 l 688 819 l 703 819 l 781 1051 l 976 1051 l 976 553 l 850 553 z "},"⅓":{"ha":860,"x_min":18,"x_max":839,"o":"m 18 0 m 19 483 l 19 625 l 101 625 l 101 856 l 18 856 l 18 975 l 76 975 q 102 978 93 975 q 117 991 111 982 q 124 1018 122 1000 q 125 1065 125 1036 l 239 1065 l 239 625 l 315 625 l 315 483 l 19 483 m 67 0 l 67 7 l 668 1051 l 803 1051 l 803 1044 l 200 0 l 67 0 m 607 231 l 607 336 l 675 336 q 699 345 694 336 q 704 397 704 354 q 699 441 704 433 q 675 449 694 449 q 649 441 654 449 q 644 394 644 433 q 644 383 644 388 q 646 371 644 378 l 519 371 q 518 387 518 379 q 518 403 518 394 q 524 484 518 450 q 548 539 531 518 q 596 569 565 560 q 675 579 626 579 q 754 574 724 579 q 802 550 785 568 q 826 500 819 532 q 832 414 832 468 q 824 329 832 356 q 796 286 815 303 q 814 272 806 279 q 828 251 822 265 q 836 212 833 236 q 839 147 839 188 q 833 66 839 99 q 811 14 828 33 q 762 -15 794 -6 q 675 -24 729 -24 q 591 -12 622 -24 q 543 22 560 -1 q 521 78 526 44 q 515 160 515 113 q 516 176 515 167 q 518 199 517 186 l 644 199 q 643 185 643 192 q 643 172 643 179 q 644 147 643 156 q 647 131 644 139 q 656 121 650 124 q 675 118 661 118 q 703 127 694 118 q 711 164 711 136 q 710 201 711 188 q 706 221 710 214 q 694 229 701 228 q 675 231 688 231 l 607 231 z "},"⅔":{"ha":860,"x_min":11,"x_max":849,"o":"m 11 0 m 22 483 l 22 625 l 118 719 q 149 749 138 738 q 168 769 161 761 q 178 783 175 778 q 186 797 182 789 q 194 827 193 813 q 196 882 196 842 q 194 915 196 903 q 190 933 193 926 q 183 940 188 938 q 168 943 179 943 q 143 933 147 943 q 140 917 140 928 q 139 878 139 906 q 139 853 139 863 q 142 836 139 844 l 14 836 q 11 867 11 854 q 11 901 11 879 q 17 982 11 949 q 40 1036 22 1015 q 88 1067 57 1057 q 168 1076 118 1076 q 246 1068 215 1076 q 295 1038 276 1060 q 322 979 314 1017 q 329 883 329 942 q 328 842 329 858 q 326 813 328 825 q 322 790 325 800 q 314 767 319 779 q 290 726 304 746 q 244 676 276 707 l 186 621 l 325 621 l 325 483 l 22 483 m 78 0 l 78 7 l 679 1051 l 814 1051 l 814 1044 l 211 0 l 78 0 m 617 231 l 617 336 l 685 336 q 709 345 704 336 q 714 397 714 354 q 709 441 714 433 q 685 449 704 449 q 659 441 664 449 q 654 394 654 433 q 654 383 654 388 q 656 371 654 378 l 529 371 q 528 387 528 379 q 528 403 528 394 q 534 484 528 450 q 558 539 540 518 q 606 569 575 560 q 685 579 636 579 q 764 574 733 579 q 812 550 794 568 q 835 500 829 532 q 842 414 842 468 q 833 329 842 356 q 806 286 825 303 q 824 272 815 279 q 838 251 832 265 q 846 212 843 236 q 849 147 849 188 q 843 66 849 99 q 821 14 838 33 q 772 -15 804 -6 q 685 -24 739 -24 q 601 -12 632 -24 q 553 22 569 -1 q 531 78 536 44 q 525 160 525 113 q 526 176 525 167 q 528 199 526 186 l 654 199 q 653 185 653 192 q 653 172 653 179 q 653 147 653 156 q 657 131 654 139 q 665 121 660 124 q 685 118 671 118 q 713 127 704 118 q 721 164 721 136 q 720 201 721 188 q 715 221 719 214 q 704 229 711 228 q 685 231 697 231 l 617 231 z "},"⅛":{"ha":860,"x_min":15,"x_max":843,"o":"m 15 0 m 17 483 l 17 625 l 99 625 l 99 856 l 15 856 l 15 975 l 74 975 q 99 978 90 975 q 114 991 108 982 q 121 1018 119 1000 q 122 1065 122 1036 l 236 1065 l 236 625 l 313 625 l 313 483 l 17 483 m 64 0 l 64 7 l 665 1051 l 800 1051 l 800 1044 l 197 0 l 64 0 m 800 286 q 818 272 810 279 q 832 251 826 265 q 840 212 838 236 q 843 147 843 188 q 838 66 843 99 q 815 14 832 33 q 765 -15 797 -6 q 679 -24 733 -24 q 593 -15 625 -24 q 544 14 561 -6 q 521 66 526 33 q 515 147 515 99 q 518 212 515 188 q 526 251 521 236 q 540 272 532 265 q 560 286 549 279 q 531 329 539 303 q 522 414 522 356 q 528 500 522 468 q 553 550 535 532 q 601 574 571 568 q 679 579 631 579 q 758 574 728 579 q 806 550 789 568 q 830 500 824 532 q 836 414 836 468 q 828 329 836 356 q 800 286 819 303 m 679 117 q 707 126 699 117 q 715 164 715 136 q 708 222 715 213 q 679 232 701 232 q 661 231 668 232 q 650 222 654 229 q 644 202 646 215 q 643 164 643 189 q 651 126 643 136 q 679 117 660 117 m 679 335 q 702 344 696 335 q 708 397 708 353 q 703 442 708 433 q 679 450 699 450 q 655 442 660 450 q 650 399 650 435 q 656 344 650 354 q 679 335 661 335 z "},"⅜":{"ha":860,"x_min":21,"x_max":833,"o":"m 21 0 m 113 728 l 113 833 l 181 833 q 205 842 200 833 q 210 894 210 851 q 205 938 210 931 q 181 946 200 946 q 155 938 160 946 q 150 892 150 931 q 150 880 150 885 q 151 868 150 875 l 25 868 q 24 884 24 876 q 24 900 24 892 q 30 981 24 947 q 53 1036 36 1015 q 101 1067 71 1057 q 181 1076 132 1076 q 260 1071 229 1076 q 308 1047 290 1065 q 331 997 325 1029 q 338 911 338 965 q 329 826 338 853 q 301 783 321 800 q 319 769 311 776 q 333 748 328 763 q 342 709 339 733 q 344 644 344 685 q 339 563 344 596 q 317 511 333 531 q 267 483 300 492 q 181 474 235 474 q 97 485 128 474 q 49 519 65 496 q 26 576 32 542 q 21 657 21 610 q 22 674 21 664 q 24 696 22 683 l 150 696 q 149 683 149 689 q 149 669 149 676 q 149 644 149 653 q 153 628 150 636 q 161 618 156 621 q 181 615 167 615 q 208 624 200 615 q 217 661 217 633 q 216 698 217 685 q 211 718 215 711 q 200 726 207 725 q 181 728 193 728 l 113 728 m 58 0 l 58 7 l 660 1051 l 794 1051 l 794 1044 l 192 0 l 58 0 m 790 286 q 808 272 800 279 q 822 251 817 265 q 831 212 828 236 q 833 147 833 188 q 828 66 833 99 q 805 14 822 33 q 756 -15 788 -6 q 669 -24 724 -24 q 583 -15 615 -24 q 534 14 551 -6 q 511 66 517 33 q 506 147 506 99 q 508 212 506 188 q 517 251 511 236 q 531 272 522 265 q 550 286 539 279 q 521 329 529 303 q 513 414 513 356 q 519 500 513 468 q 543 550 525 532 q 591 574 561 568 q 669 579 621 579 q 749 574 718 579 q 797 550 779 568 q 820 500 814 532 q 826 414 826 468 q 818 329 826 356 q 790 286 810 303 m 669 117 q 697 126 689 117 q 706 164 706 136 q 699 222 706 213 q 669 232 692 232 q 651 231 658 232 q 640 222 644 229 q 635 202 636 215 q 633 164 633 189 q 642 126 633 136 q 669 117 650 117 m 669 335 q 692 344 686 335 q 699 397 699 353 q 694 442 699 433 q 669 450 689 450 q 645 442 650 450 q 640 399 640 435 q 646 344 640 354 q 669 335 651 335 z "},"⅝":{"ha":860,"x_min":24,"x_max":835,"o":"m 24 0 m 168 929 l 164 883 l 168 881 q 221 890 186 890 q 313 852 283 890 q 343 719 343 814 q 337 590 343 639 q 313 516 331 542 q 262 482 294 490 q 178 474 229 474 q 97 485 128 474 q 51 519 67 496 q 29 576 35 542 q 24 657 24 610 q 24 688 24 672 q 25 715 24 703 l 151 715 q 150 700 150 708 q 150 683 150 692 q 154 635 150 653 q 178 617 158 617 q 206 639 203 617 q 210 717 210 661 q 203 763 210 753 q 174 774 197 774 q 138 758 154 774 l 36 789 l 54 1065 l 333 1065 l 333 929 l 168 929 m 54 0 l 54 7 l 656 1051 l 790 1051 l 790 1044 l 188 0 l 54 0 m 792 286 q 810 272 801 279 q 824 251 818 265 q 832 212 829 236 q 835 147 835 188 q 829 66 835 99 q 806 14 824 33 q 757 -15 789 -6 q 671 -24 725 -24 q 585 -15 617 -24 q 535 14 553 -6 q 513 66 518 33 q 507 147 507 99 q 510 212 507 188 q 518 251 513 236 q 532 272 524 265 q 551 286 540 279 q 522 329 531 303 q 514 414 514 356 q 520 500 514 468 q 544 550 526 532 q 592 574 563 568 q 671 579 622 579 q 750 574 719 579 q 798 550 781 568 q 822 500 815 532 q 828 414 828 468 q 819 329 828 356 q 792 286 811 303 m 671 117 q 699 126 690 117 q 707 164 707 136 q 700 222 707 213 q 671 232 693 232 q 653 231 660 232 q 642 222 646 229 q 636 202 638 215 q 635 164 635 189 q 643 126 635 136 q 671 117 651 117 m 671 335 q 694 344 688 335 q 700 397 700 353 q 695 442 700 433 q 671 450 690 450 q 647 442 651 450 q 642 399 642 435 q 647 344 642 354 q 671 335 653 335 z "},"⅞":{"ha":860,"x_min":36,"x_max":833,"o":"m 36 0 m 67 483 l 196 924 l 193 929 l 36 929 l 36 1065 l 356 1065 l 356 990 l 215 483 l 67 483 m 38 0 l 38 7 l 639 1051 l 774 1051 l 774 1044 l 171 0 l 38 0 m 790 286 q 808 272 800 279 q 822 251 817 265 q 831 212 828 236 q 833 147 833 188 q 828 66 833 99 q 805 14 822 33 q 756 -15 788 -6 q 669 -24 724 -24 q 583 -15 615 -24 q 534 14 551 -6 q 511 66 517 33 q 506 147 506 99 q 508 212 506 188 q 517 251 511 236 q 531 272 522 265 q 550 286 539 279 q 521 329 529 303 q 513 414 513 356 q 519 500 513 468 q 543 550 525 532 q 591 574 561 568 q 669 579 621 579 q 749 574 718 579 q 797 550 779 568 q 820 500 814 532 q 826 414 826 468 q 818 329 826 356 q 790 286 810 303 m 669 117 q 697 126 689 117 q 706 164 706 136 q 699 222 706 213 q 669 232 692 232 q 651 231 658 232 q 640 222 644 229 q 635 202 636 215 q 633 164 633 189 q 642 126 633 136 q 669 117 650 117 m 669 335 q 692 344 686 335 q 699 397 699 353 q 694 442 699 433 q 669 450 689 450 q 645 442 650 450 q 640 399 640 435 q 646 344 640 354 q 669 335 651 335 z "},"∂":{"ha":629,"x_min":25,"x_max":603,"o":"m 446 572 q 448 594 447 583 q 449 625 449 606 q 408 818 449 751 q 296 885 367 885 q 261 879 274 885 l 254 1061 q 286 1067 269 1064 q 319 1069 303 1069 q 426 1044 375 1069 q 516 963 476 1019 q 579 815 556 906 q 603 593 603 724 q 588 352 603 464 q 536 158 574 240 q 435 27 499 75 q 276 -21 372 -21 q 90 65 154 -21 q 25 314 25 151 q 44 487 25 417 q 97 601 63 557 q 178 664 131 644 q 281 683 225 683 q 370 653 329 683 q 432 572 411 624 l 446 572 m 426 404 q 383 474 411 447 q 293 501 354 501 q 216 454 243 501 q 189 313 189 407 q 217 196 189 235 q 290 157 246 157 q 382 217 349 157 q 426 404 415 278 z "},"∏":{"ha":629,"x_min":28,"x_max":600,"o":"m 438 -331 l 438 1174 l 190 1174 l 190 -331 l 28 -331 l 28 1336 l 600 1336 l 600 -331 l 438 -331 z "},"∑":{"ha":629,"x_min":31,"x_max":597,"o":"m 31 -331 l 31 -299 l 335 360 l 31 1022 l 31 1051 l 597 1051 l 597 867 l 290 867 l 508 360 l 290 -147 l 597 -147 l 597 -331 l 31 -331 z "},"−":{"ha":629,"x_min":21,"x_max":608,"o":"m 21 446 l 21 608 l 608 608 l 608 446 l 21 446 z "},"√":{"ha":629,"x_min":6,"x_max":624,"o":"m 214 0 l 101 446 l 6 446 l 6 608 l 225 608 l 297 258 l 311 258 l 461 1051 l 624 1051 l 624 1044 l 394 0 l 214 0 z "},"∞":{"ha":1106,"x_min":47,"x_max":1058,"o":"m 550 365 q 438 260 506 301 q 267 219 371 219 q 103 297 160 219 q 47 525 47 375 q 104 756 47 679 q 267 832 161 832 q 360 821 318 832 q 435 790 401 810 q 496 742 468 769 q 550 682 524 715 q 608 742 578 715 q 672 790 638 769 q 747 821 706 810 q 840 832 789 832 q 1002 756 946 832 q 1058 525 1058 679 q 1003 297 1058 375 q 840 219 949 219 q 745 231 788 219 q 668 261 703 242 q 605 307 633 281 q 550 365 576 333 m 476 518 q 438 563 457 543 q 397 599 418 583 q 350 622 375 614 q 294 631 325 631 q 247 623 264 631 q 223 601 231 615 q 214 567 215 586 q 213 525 213 547 q 214 476 213 497 q 223 440 215 456 q 247 417 231 425 q 294 410 264 410 q 355 419 328 410 q 403 445 382 429 q 443 480 425 461 q 476 518 461 499 m 629 518 q 663 480 644 499 q 703 445 681 461 q 751 419 725 429 q 810 410 778 410 q 859 417 842 410 q 885 440 876 425 q 894 476 893 456 q 896 525 896 497 q 894 567 896 547 q 885 601 893 586 q 859 623 876 615 q 810 631 842 631 q 708 599 750 631 q 629 518 667 567 z "},"∫":{"ha":629,"x_min":46,"x_max":583,"o":"m 46 -331 l 46 -168 l 169 -168 q 222 -153 210 -168 q 233 -96 233 -139 l 233 1103 q 285 1283 233 1229 q 456 1336 336 1336 l 583 1336 l 583 1174 l 461 1174 q 408 1159 421 1174 q 396 1101 396 1144 l 396 -97 q 384 -206 396 -161 q 345 -278 372 -250 q 276 -318 318 -306 q 174 -331 233 -331 l 46 -331 z "},"≈":{"ha":629,"x_min":21,"x_max":608,"o":"m 21 185 m 608 294 q 536 226 575 246 q 443 206 497 206 q 372 216 407 206 q 304 238 338 226 q 239 260 271 250 q 176 271 207 271 q 97 251 129 271 q 32 185 65 232 l 21 185 l 21 347 q 80 409 44 383 q 168 435 115 435 q 251 424 213 435 q 323 401 289 414 q 388 377 357 388 q 450 367 419 367 q 531 386 494 367 q 599 453 567 406 l 608 453 l 608 294 m 608 711 q 536 642 575 663 q 443 622 497 622 q 372 633 407 622 q 304 655 338 643 q 239 677 271 667 q 176 688 207 688 q 97 668 129 688 q 32 601 65 649 l 21 601 l 21 764 q 80 826 44 800 q 168 851 115 851 q 251 841 213 851 q 323 817 289 831 q 388 794 357 804 q 450 783 419 783 q 531 803 494 783 q 599 869 567 822 l 608 869 l 608 711 z "},"≠":{"ha":629,"x_min":0,"x_max":629,"o":"m 260 267 l 133 0 l 0 0 l 0 7 l 122 267 l 21 267 l 21 428 l 199 428 l 293 626 l 21 626 l 21 789 l 369 789 l 494 1051 l 629 1051 l 629 1044 l 507 789 l 608 789 l 608 626 l 431 626 l 336 428 l 608 428 l 608 267 l 260 267 z "}}}
